M48
; DRILL file {KiCad 6.0.10-86aedd382b~118~ubuntu18.04.1} date Wed 01 Jan 2025 16:08:21 ACDT
; FORMAT={-:-/ absolute / inch / decimal}
; #@! TF.CreationDate,2025-01-01T16:08:21+10:30
; #@! TF.GenerationSoftware,Kicad,Pcbnew,6.0.10-86aedd382b~118~ubuntu18.04.1
; #@! TF.FileFunction,Plated,1,2,PTH
FMAT,2
INCH
; #@! TA.AperFunction,Plated,PTH,ViaDrill
T1C0.0157
; #@! TA.AperFunction,Plated,PTH,ComponentDrill
T2C0.0299
; #@! TA.AperFunction,Plated,PTH,ComponentDrill
T3C0.0394
; #@! TA.AperFunction,Plated,PTH,ComponentDrill
T4C0.0984
%
G90
G05
T1
X3.35Y-4.5
X3.9Y-4.75
X3.95Y-5.0
X4.1Y-5.175
X4.5Y-4.9
X4.675Y-4.625
T2
X3.5Y-4.75
X3.5Y-4.85
X3.5Y-4.95
X3.5Y-5.05
X3.6Y-4.8
X3.6Y-4.9
X3.6Y-5.0
X3.6Y-5.1
X4.197Y-4.75
X4.197Y-4.85
X4.197Y-4.95
X4.197Y-5.05
X4.297Y-4.8
X4.297Y-4.9
X4.297Y-5.0
X4.297Y-5.1
T3
X3.5589Y-2.45
X3.5589Y-2.55
X3.5589Y-2.65
X3.5589Y-2.75
X3.5589Y-2.85
X3.5589Y-2.95
X3.5589Y-3.05
X3.5589Y-3.15
X3.5589Y-3.25
X3.5589Y-3.35
X3.5589Y-3.45
X3.5589Y-3.55
X3.5589Y-3.65
X3.5589Y-3.75
X3.5589Y-3.85
X3.5589Y-4.05
X3.5589Y-4.15
X3.5589Y-4.25
X3.5589Y-4.35
X3.5605Y-3.95
X4.2589Y-2.45
X4.2589Y-2.55
X4.2589Y-2.65
X4.2589Y-2.75
X4.2589Y-2.85
X4.2589Y-2.95
X4.2589Y-3.05
X4.2589Y-3.15
X4.2589Y-3.25
X4.2589Y-3.35
X4.2589Y-3.45
X4.2589Y-3.55
X4.2589Y-3.65
X4.2589Y-3.75
X4.2589Y-3.85
X4.2589Y-3.95
X4.2589Y-4.05
X4.2589Y-4.15
X4.2589Y-4.25
X4.2589Y-4.35
T4
X3.08Y-2.48
X3.08Y-4.32
X4.72Y-2.48
X4.72Y-4.32
T0
M30
