%TF.GenerationSoftware,KiCad,Pcbnew,6.0.10-86aedd382b~118~ubuntu18.04.1*%
%TF.CreationDate,2025-01-01T16:08:03+10:30*%
%TF.ProjectId,pcb,7063622e-6b69-4636-9164-5f7063625858,1*%
%TF.SameCoordinates,Original*%
%TF.FileFunction,Copper,L1,Top*%
%TF.FilePolarity,Positive*%
%FSLAX46Y46*%
G04 Gerber Fmt 4.6, Leading zero omitted, Abs format (unit mm)*
G04 Created by KiCad (PCBNEW 6.0.10-86aedd382b~118~ubuntu18.04.1) date 2025-01-01 16:08:03*
%MOMM*%
%LPD*%
G01*
G04 APERTURE LIST*
G04 Aperture macros list*
%AMRoundRect*
0 Rectangle with rounded corners*
0 $1 Rounding radius*
0 $2 $3 $4 $5 $6 $7 $8 $9 X,Y pos of 4 corners*
0 Add a 4 corners polygon primitive as box body*
4,1,4,$2,$3,$4,$5,$6,$7,$8,$9,$2,$3,0*
0 Add four circle primitives for the rounded corners*
1,1,$1+$1,$2,$3*
1,1,$1+$1,$4,$5*
1,1,$1+$1,$6,$7*
1,1,$1+$1,$8,$9*
0 Add four rect primitives between the rounded corners*
20,1,$1+$1,$2,$3,$4,$5,0*
20,1,$1+$1,$4,$5,$6,$7,0*
20,1,$1+$1,$6,$7,$8,$9,0*
20,1,$1+$1,$8,$9,$2,$3,0*%
G04 Aperture macros list end*
%TA.AperFunction,ComponentPad*%
%ADD10C,5.000000*%
%TD*%
%TA.AperFunction,ComponentPad*%
%ADD11C,1.600000*%
%TD*%
%TA.AperFunction,ComponentPad*%
%ADD12RoundRect,0.200000X-0.600000X-0.600000X0.600000X-0.600000X0.600000X0.600000X-0.600000X0.600000X0*%
%TD*%
%TA.AperFunction,ComponentPad*%
%ADD13R,1.500000X1.500000*%
%TD*%
%TA.AperFunction,ComponentPad*%
%ADD14C,1.500000*%
%TD*%
%TA.AperFunction,ViaPad*%
%ADD15C,0.800000*%
%TD*%
%TA.AperFunction,Conductor*%
%ADD16C,0.250000*%
%TD*%
G04 APERTURE END LIST*
D10*
%TO.P,M2,1*%
%TO.N,N/C*%
X119888000Y-62992000D03*
%TD*%
D11*
%TO.P,A1,1,GP0*%
%TO.N,unconnected-(A1-Pad1)*%
X90395000Y-62230000D03*
%TO.P,A1,2,GP1*%
%TO.N,Net-(A1-Pad2)*%
X90395000Y-64770000D03*
D12*
%TO.P,A1,3,GND*%
%TO.N,GND*%
X90395000Y-67310000D03*
D11*
%TO.P,A1,4,GP2*%
%TO.N,unconnected-(A1-Pad4)*%
X90395000Y-69850000D03*
%TO.P,A1,5,GP3*%
%TO.N,unconnected-(A1-Pad5)*%
X90395000Y-72390000D03*
%TO.P,A1,6,GP4*%
%TO.N,unconnected-(A1-Pad6)*%
X90395000Y-74930000D03*
%TO.P,A1,7,GP5*%
%TO.N,unconnected-(A1-Pad7)*%
X90395000Y-77470000D03*
D12*
%TO.P,A1,8,GND*%
%TO.N,GND*%
X90395000Y-80010000D03*
D11*
%TO.P,A1,9,GP6*%
%TO.N,unconnected-(A1-Pad9)*%
X90395000Y-82550000D03*
%TO.P,A1,10,GP7*%
%TO.N,unconnected-(A1-Pad10)*%
X90395000Y-85090000D03*
%TO.P,A1,11,GP8*%
%TO.N,Net-(A1-Pad11)*%
X90395000Y-87630000D03*
%TO.P,A1,12,GP9*%
%TO.N,Net-(A1-Pad12)*%
X90395000Y-90170000D03*
D12*
%TO.P,A1,13,GND*%
%TO.N,GND*%
X90395000Y-92710000D03*
D11*
%TO.P,A1,14,GP10*%
%TO.N,unconnected-(A1-Pad14)*%
X90395000Y-95250000D03*
%TO.P,A1,15,GP11*%
%TO.N,unconnected-(A1-Pad15)*%
X90395000Y-97790000D03*
%TO.P,A1,16,GP12*%
%TO.N,unconnected-(A1-Pad16)*%
X90436881Y-100330000D03*
%TO.P,A1,17,GP13*%
%TO.N,unconnected-(A1-Pad17)*%
X90395000Y-102870000D03*
D12*
%TO.P,A1,18,GND*%
%TO.N,GND*%
X90395000Y-105410000D03*
D11*
%TO.P,A1,19,GP14*%
%TO.N,unconnected-(A1-Pad19)*%
X90395000Y-107950000D03*
%TO.P,A1,20,GP15*%
%TO.N,Net-(A1-Pad20)*%
X90395000Y-110490000D03*
%TO.P,A1,21,GP16*%
%TO.N,Net-(A1-Pad21)*%
X108175000Y-110490000D03*
%TO.P,A1,22,GP17*%
%TO.N,unconnected-(A1-Pad22)*%
X108175000Y-107950000D03*
D12*
%TO.P,A1,23,GND*%
%TO.N,GND*%
X108175000Y-105410000D03*
D11*
%TO.P,A1,24,GP18*%
%TO.N,unconnected-(A1-Pad24)*%
X108175000Y-102870000D03*
%TO.P,A1,25,GP19*%
%TO.N,unconnected-(A1-Pad25)*%
X108175000Y-100330000D03*
%TO.P,A1,26,GP20*%
%TO.N,unconnected-(A1-Pad26)*%
X108175000Y-97790000D03*
%TO.P,A1,27,GP21*%
%TO.N,unconnected-(A1-Pad27)*%
X108175000Y-95250000D03*
D12*
%TO.P,A1,28,GND*%
%TO.N,GND*%
X108175000Y-92710000D03*
D11*
%TO.P,A1,29,GP22*%
%TO.N,unconnected-(A1-Pad29)*%
X108175000Y-90170000D03*
%TO.P,A1,30,RUN*%
%TO.N,unconnected-(A1-Pad30)*%
X108175000Y-87630000D03*
%TO.P,A1,31,GP26*%
%TO.N,unconnected-(A1-Pad31)*%
X108175000Y-85090000D03*
%TO.P,A1,32,GP27*%
%TO.N,unconnected-(A1-Pad32)*%
X108175000Y-82550000D03*
D12*
%TO.P,A1,33,AGND*%
%TO.N,unconnected-(A1-Pad33)*%
X108175000Y-80010000D03*
D11*
%TO.P,A1,34,GP28*%
%TO.N,unconnected-(A1-Pad34)*%
X108175000Y-77470000D03*
%TO.P,A1,35,ADC_VREF*%
%TO.N,unconnected-(A1-Pad35)*%
X108175000Y-74930000D03*
%TO.P,A1,36,3V3_OUT*%
%TO.N,unconnected-(A1-Pad36)*%
X108175000Y-72390000D03*
%TO.P,A1,37,3V3_EN*%
%TO.N,unconnected-(A1-Pad37)*%
X108175000Y-69850000D03*
D12*
%TO.P,A1,38,GND*%
%TO.N,GND*%
X108175000Y-67310000D03*
D11*
%TO.P,A1,39,VSYS*%
%TO.N,unconnected-(A1-Pad39)*%
X108175000Y-64770000D03*
%TO.P,A1,40,VBUS*%
%TO.N,unconnected-(A1-Pad40)*%
X108175000Y-62230000D03*
%TD*%
D10*
%TO.P,M1,1*%
%TO.N,N/C*%
X78232000Y-62992000D03*
%TD*%
%TO.P,M3,1*%
%TO.N,N/C*%
X78232000Y-109728000D03*
%TD*%
%TO.P,M4,1*%
%TO.N,N/C*%
X119888000Y-109728000D03*
%TD*%
D13*
%TO.P,J2,1*%
%TO.N,Net-(A1-Pad12)*%
X109145000Y-129540000D03*
D14*
%TO.P,J2,2*%
%TO.N,Net-(A1-Pad2)*%
X106605000Y-128270000D03*
%TO.P,J2,3*%
%TO.N,Net-(J1-Pad3)*%
X109145000Y-127000000D03*
%TO.P,J2,4*%
%TO.N,Net-(A1-Pad20)*%
X106605000Y-125730000D03*
%TO.P,J2,5*%
%TO.N,GND*%
X109145000Y-124460000D03*
%TO.P,J2,6*%
%TO.N,Net-(J1-Pad6)*%
X106605000Y-123190000D03*
%TO.P,J2,7*%
%TO.N,Net-(J1-Pad7)*%
X109145000Y-121920000D03*
%TO.P,J2,8*%
%TO.N,Net-(J1-Pad8)*%
X106605000Y-120650000D03*
%TD*%
D13*
%TO.P,J1,1*%
%TO.N,Net-(A1-Pad12)*%
X88900000Y-120650000D03*
D14*
%TO.P,J1,2*%
%TO.N,Net-(A1-Pad11)*%
X91440000Y-121920000D03*
%TO.P,J1,3*%
%TO.N,Net-(J1-Pad3)*%
X88900000Y-123190000D03*
%TO.P,J1,4*%
%TO.N,Net-(A1-Pad21)*%
X91440000Y-124460000D03*
%TO.P,J1,5*%
%TO.N,GND*%
X88900000Y-125730000D03*
%TO.P,J1,6*%
%TO.N,Net-(J1-Pad6)*%
X91440000Y-127000000D03*
%TO.P,J1,7*%
%TO.N,Net-(J1-Pad7)*%
X88900000Y-128270000D03*
%TO.P,J1,8*%
%TO.N,Net-(J1-Pad8)*%
X91440000Y-129540000D03*
%TD*%
D15*
%TO.N,Net-(J1-Pad8)*%
X99060000Y-120650000D03*
%TO.N,Net-(A1-Pad11)*%
X85090000Y-114300000D03*
%TO.N,Net-(A1-Pad12)*%
X104140000Y-131445000D03*
%TO.N,Net-(A1-Pad2)*%
X118745000Y-117475000D03*
%TO.N,Net-(J1-Pad3)*%
X114300000Y-124460000D03*
%TO.N,Net-(J1-Pad6)*%
X100330000Y-127000000D03*
%TD*%
D16*
%TO.N,Net-(J1-Pad8)*%
X106605000Y-120650000D02*
X101600000Y-120650000D01*
X101600000Y-120650000D02*
X99060000Y-120650000D01*
%TO.N,Net-(A1-Pad21)*%
X105410000Y-110490000D02*
X91440000Y-124460000D01*
X108175000Y-110490000D02*
X105410000Y-110490000D01*
%TO.N,Net-(A1-Pad11)*%
X87630000Y-87630000D02*
X90395000Y-87630000D01*
X85090000Y-90170000D02*
X87630000Y-87630000D01*
X85090000Y-90170000D02*
X85090000Y-114300000D01*
%TO.N,Net-(A1-Pad12)*%
X88900000Y-120650000D02*
X87630000Y-120650000D01*
X88900000Y-90170000D02*
X87630000Y-91440000D01*
X87630000Y-91440000D02*
X87630000Y-119380000D01*
X88900000Y-131445000D02*
X104140000Y-131445000D01*
X87630000Y-120650000D02*
X86360000Y-121920000D01*
X90395000Y-90170000D02*
X88900000Y-90170000D01*
X87630000Y-119380000D02*
X88900000Y-120650000D01*
X86360000Y-121920000D02*
X86360000Y-128905000D01*
X86360000Y-128905000D02*
X88900000Y-131445000D01*
%TO.N,Net-(A1-Pad2)*%
X106605000Y-130735000D02*
X106605000Y-128270000D01*
X111125000Y-131445000D02*
X110490000Y-132080000D01*
X118745000Y-117475000D02*
X118745000Y-122555000D01*
X110490000Y-132080000D02*
X107950000Y-132080000D01*
X118745000Y-122555000D02*
X111125000Y-130175000D01*
X107950000Y-132080000D02*
X106605000Y-130735000D01*
X111125000Y-130175000D02*
X111125000Y-131445000D01*
%TO.N,Net-(J1-Pad3)*%
X109145000Y-127000000D02*
X111760000Y-127000000D01*
X114300000Y-124460000D02*
X111760000Y-127000000D01*
%TO.N,Net-(J1-Pad6)*%
X100330000Y-127000000D02*
X91440000Y-127000000D01*
%TD*%
%TA.AperFunction,Conductor*%
%TO.N,GND*%
G36*
X123893621Y-58948502D02*
G01*
X123940114Y-59002158D01*
X123951500Y-59054500D01*
X123951500Y-136525500D01*
X123931498Y-136593621D01*
X123877842Y-136640114D01*
X123825500Y-136651500D01*
X74294500Y-136651500D01*
X74226379Y-136631498D01*
X74179886Y-136577842D01*
X74168500Y-136525500D01*
X74168500Y-130942703D01*
X80440743Y-130942703D01*
X80441302Y-130946947D01*
X80441302Y-130946951D01*
X80453897Y-131042617D01*
X80478268Y-131227734D01*
X80554129Y-131505036D01*
X80555813Y-131508984D01*
X80664063Y-131762770D01*
X80666923Y-131769476D01*
X80716645Y-131852555D01*
X80803549Y-131997761D01*
X80814561Y-132016161D01*
X80994313Y-132240528D01*
X81202851Y-132438423D01*
X81436317Y-132606186D01*
X81440112Y-132608195D01*
X81440113Y-132608196D01*
X81461869Y-132619715D01*
X81690392Y-132740712D01*
X81960373Y-132839511D01*
X82241264Y-132900755D01*
X82269841Y-132903004D01*
X82464282Y-132918307D01*
X82464291Y-132918307D01*
X82466739Y-132918500D01*
X82622271Y-132918500D01*
X82624407Y-132918354D01*
X82624418Y-132918354D01*
X82832548Y-132904165D01*
X82832554Y-132904164D01*
X82836825Y-132903873D01*
X82841020Y-132903004D01*
X82841022Y-132903004D01*
X82977584Y-132874723D01*
X83118342Y-132845574D01*
X83389343Y-132749607D01*
X83559112Y-132661983D01*
X83641005Y-132619715D01*
X83641006Y-132619715D01*
X83644812Y-132617750D01*
X83648313Y-132615289D01*
X83648317Y-132615287D01*
X83796140Y-132511395D01*
X83880023Y-132452441D01*
X83986496Y-132353500D01*
X84087479Y-132259661D01*
X84087481Y-132259658D01*
X84090622Y-132256740D01*
X84272713Y-132034268D01*
X84422927Y-131789142D01*
X84434504Y-131762770D01*
X84536757Y-131529830D01*
X84538483Y-131525898D01*
X84617244Y-131249406D01*
X84657751Y-130964784D01*
X84657845Y-130946951D01*
X84659235Y-130681583D01*
X84659235Y-130681576D01*
X84659257Y-130677297D01*
X84658046Y-130668093D01*
X84636936Y-130507749D01*
X84621732Y-130392266D01*
X84545871Y-130114964D01*
X84484924Y-129972076D01*
X84434763Y-129854476D01*
X84434761Y-129854472D01*
X84433077Y-129850524D01*
X84285439Y-129603839D01*
X84105687Y-129379472D01*
X83956342Y-129237749D01*
X83900258Y-129184527D01*
X83900255Y-129184525D01*
X83897149Y-129181577D01*
X83663683Y-129013814D01*
X83641843Y-129002250D01*
X83563366Y-128960699D01*
X83409608Y-128879288D01*
X83139627Y-128780489D01*
X82858736Y-128719245D01*
X82827685Y-128716801D01*
X82635718Y-128701693D01*
X82635709Y-128701693D01*
X82633261Y-128701500D01*
X82477729Y-128701500D01*
X82475593Y-128701646D01*
X82475582Y-128701646D01*
X82267452Y-128715835D01*
X82267446Y-128715836D01*
X82263175Y-128716127D01*
X82258980Y-128716996D01*
X82258978Y-128716996D01*
X82155289Y-128738469D01*
X81981658Y-128774426D01*
X81710657Y-128870393D01*
X81455188Y-129002250D01*
X81451687Y-129004711D01*
X81451683Y-129004713D01*
X81378809Y-129055930D01*
X81219977Y-129167559D01*
X81179421Y-129205246D01*
X81026706Y-129347158D01*
X81009378Y-129363260D01*
X80827287Y-129585732D01*
X80677073Y-129830858D01*
X80675347Y-129834791D01*
X80675346Y-129834792D01*
X80563243Y-130090170D01*
X80561517Y-130094102D01*
X80560342Y-130098229D01*
X80560341Y-130098230D01*
X80529962Y-130204875D01*
X80482756Y-130370594D01*
X80459115Y-130536705D01*
X80443891Y-130643682D01*
X80442249Y-130655216D01*
X80442227Y-130659505D01*
X80442226Y-130659512D01*
X80440765Y-130938417D01*
X80440743Y-130942703D01*
X74168500Y-130942703D01*
X74168500Y-119512703D01*
X80440743Y-119512703D01*
X80441302Y-119516947D01*
X80441302Y-119516951D01*
X80446130Y-119553619D01*
X80478268Y-119797734D01*
X80554129Y-120075036D01*
X80555813Y-120078984D01*
X80617313Y-120223167D01*
X80666923Y-120339476D01*
X80814561Y-120586161D01*
X80994313Y-120810528D01*
X81031910Y-120846206D01*
X81147765Y-120956148D01*
X81202851Y-121008423D01*
X81436317Y-121176186D01*
X81440112Y-121178195D01*
X81440113Y-121178196D01*
X81461869Y-121189715D01*
X81690392Y-121310712D01*
X81960373Y-121409511D01*
X82241264Y-121470755D01*
X82269841Y-121473004D01*
X82464282Y-121488307D01*
X82464291Y-121488307D01*
X82466739Y-121488500D01*
X82622271Y-121488500D01*
X82624407Y-121488354D01*
X82624418Y-121488354D01*
X82832548Y-121474165D01*
X82832554Y-121474164D01*
X82836825Y-121473873D01*
X82841020Y-121473004D01*
X82841022Y-121473004D01*
X82994994Y-121441118D01*
X83118342Y-121415574D01*
X83389343Y-121319607D01*
X83565482Y-121228695D01*
X83641005Y-121189715D01*
X83641006Y-121189715D01*
X83644812Y-121187750D01*
X83648313Y-121185289D01*
X83648317Y-121185287D01*
X83873139Y-121027279D01*
X83880023Y-121022441D01*
X83958956Y-120949092D01*
X84087479Y-120829661D01*
X84087481Y-120829658D01*
X84090622Y-120826740D01*
X84272713Y-120604268D01*
X84422927Y-120359142D01*
X84496896Y-120190637D01*
X84536757Y-120099830D01*
X84538483Y-120095898D01*
X84540036Y-120090448D01*
X84607592Y-119853288D01*
X84617244Y-119819406D01*
X84650543Y-119585431D01*
X84657146Y-119539036D01*
X84657146Y-119539034D01*
X84657751Y-119534784D01*
X84657836Y-119518700D01*
X84659235Y-119251583D01*
X84659235Y-119251576D01*
X84659257Y-119247297D01*
X84621732Y-118962266D01*
X84545871Y-118684964D01*
X84433077Y-118420524D01*
X84358527Y-118295960D01*
X84287643Y-118177521D01*
X84287640Y-118177517D01*
X84285439Y-118173839D01*
X84105687Y-117949472D01*
X83897149Y-117751577D01*
X83663683Y-117583814D01*
X83641843Y-117572250D01*
X83618654Y-117559972D01*
X83409608Y-117449288D01*
X83139627Y-117350489D01*
X82858736Y-117289245D01*
X82827685Y-117286801D01*
X82635718Y-117271693D01*
X82635709Y-117271693D01*
X82633261Y-117271500D01*
X82477729Y-117271500D01*
X82475593Y-117271646D01*
X82475582Y-117271646D01*
X82267452Y-117285835D01*
X82267446Y-117285836D01*
X82263175Y-117286127D01*
X82258980Y-117286996D01*
X82258978Y-117286996D01*
X82122417Y-117315276D01*
X81981658Y-117344426D01*
X81710657Y-117440393D01*
X81455188Y-117572250D01*
X81451687Y-117574711D01*
X81451683Y-117574713D01*
X81441594Y-117581804D01*
X81219977Y-117737559D01*
X81009378Y-117933260D01*
X80827287Y-118155732D01*
X80677073Y-118400858D01*
X80561517Y-118664102D01*
X80482756Y-118940594D01*
X80442249Y-119225216D01*
X80442227Y-119229505D01*
X80442226Y-119229512D01*
X80440875Y-119487497D01*
X80440743Y-119512703D01*
X74168500Y-119512703D01*
X74168500Y-114300000D01*
X84176496Y-114300000D01*
X84196458Y-114489928D01*
X84255473Y-114671556D01*
X84350960Y-114836944D01*
X84478747Y-114978866D01*
X84633248Y-115091118D01*
X84639276Y-115093802D01*
X84639278Y-115093803D01*
X84801681Y-115166109D01*
X84807712Y-115168794D01*
X84901112Y-115188647D01*
X84988056Y-115207128D01*
X84988061Y-115207128D01*
X84994513Y-115208500D01*
X85185487Y-115208500D01*
X85191939Y-115207128D01*
X85191944Y-115207128D01*
X85278888Y-115188647D01*
X85372288Y-115168794D01*
X85378319Y-115166109D01*
X85540722Y-115093803D01*
X85540724Y-115093802D01*
X85546752Y-115091118D01*
X85701253Y-114978866D01*
X85829040Y-114836944D01*
X85924527Y-114671556D01*
X85983542Y-114489928D01*
X86003504Y-114300000D01*
X85983542Y-114110072D01*
X85924527Y-113928444D01*
X85829040Y-113763056D01*
X85755863Y-113681785D01*
X85725147Y-113617779D01*
X85723500Y-113597476D01*
X85723500Y-90484594D01*
X85743502Y-90416473D01*
X85760405Y-90395499D01*
X87855499Y-88300405D01*
X87917811Y-88266379D01*
X87944594Y-88263500D01*
X89175606Y-88263500D01*
X89243727Y-88283502D01*
X89278819Y-88317229D01*
X89388802Y-88474300D01*
X89550700Y-88636198D01*
X89555208Y-88639355D01*
X89555211Y-88639357D01*
X89633389Y-88694098D01*
X89738251Y-88767523D01*
X89743233Y-88769846D01*
X89743238Y-88769849D01*
X89777457Y-88785805D01*
X89830742Y-88832722D01*
X89850203Y-88900999D01*
X89829661Y-88968959D01*
X89777457Y-89014195D01*
X89743238Y-89030151D01*
X89743233Y-89030154D01*
X89738251Y-89032477D01*
X89633389Y-89105902D01*
X89555211Y-89160643D01*
X89555208Y-89160645D01*
X89550700Y-89163802D01*
X89388802Y-89325700D01*
X89385645Y-89330208D01*
X89385643Y-89330211D01*
X89278819Y-89482771D01*
X89223362Y-89527099D01*
X89175606Y-89536500D01*
X88978767Y-89536500D01*
X88967584Y-89535973D01*
X88960091Y-89534298D01*
X88952165Y-89534547D01*
X88952164Y-89534547D01*
X88892014Y-89536438D01*
X88888055Y-89536500D01*
X88860144Y-89536500D01*
X88856210Y-89536997D01*
X88856209Y-89536997D01*
X88856144Y-89537005D01*
X88844307Y-89537938D01*
X88812490Y-89538938D01*
X88808029Y-89539078D01*
X88800110Y-89539327D01*
X88782454Y-89544456D01*
X88780658Y-89544978D01*
X88761306Y-89548986D01*
X88754235Y-89549880D01*
X88741203Y-89551526D01*
X88733834Y-89554443D01*
X88733832Y-89554444D01*
X88700097Y-89567800D01*
X88688869Y-89571645D01*
X88646407Y-89583982D01*
X88639585Y-89588016D01*
X88639579Y-89588019D01*
X88628968Y-89594294D01*
X88611218Y-89602990D01*
X88599756Y-89607528D01*
X88599751Y-89607531D01*
X88592383Y-89610448D01*
X88585968Y-89615109D01*
X88556625Y-89636427D01*
X88546707Y-89642943D01*
X88528019Y-89653995D01*
X88508637Y-89665458D01*
X88494313Y-89679782D01*
X88479281Y-89692621D01*
X88462893Y-89704528D01*
X88443764Y-89727651D01*
X88434712Y-89738593D01*
X88426722Y-89747373D01*
X87237747Y-90936348D01*
X87229461Y-90943888D01*
X87222982Y-90948000D01*
X87217557Y-90953777D01*
X87176357Y-90997651D01*
X87173602Y-91000493D01*
X87153865Y-91020230D01*
X87151385Y-91023427D01*
X87143682Y-91032447D01*
X87113414Y-91064679D01*
X87109595Y-91071625D01*
X87109593Y-91071628D01*
X87103652Y-91082434D01*
X87092801Y-91098953D01*
X87080386Y-91114959D01*
X87077241Y-91122228D01*
X87077238Y-91122232D01*
X87062826Y-91155537D01*
X87057609Y-91166187D01*
X87036305Y-91204940D01*
X87034334Y-91212615D01*
X87034334Y-91212616D01*
X87031267Y-91224562D01*
X87024863Y-91243266D01*
X87016819Y-91261855D01*
X87015580Y-91269678D01*
X87015577Y-91269688D01*
X87009901Y-91305524D01*
X87007495Y-91317144D01*
X86996500Y-91359970D01*
X86996500Y-91380224D01*
X86994949Y-91399934D01*
X86991780Y-91419943D01*
X86992526Y-91427835D01*
X86995941Y-91463961D01*
X86996500Y-91475819D01*
X86996500Y-119301233D01*
X86995973Y-119312416D01*
X86994298Y-119319909D01*
X86994547Y-119327835D01*
X86994547Y-119327836D01*
X86996438Y-119387986D01*
X86996500Y-119391945D01*
X86996500Y-119419856D01*
X86996997Y-119423790D01*
X86996997Y-119423791D01*
X86997005Y-119423856D01*
X86997938Y-119435693D01*
X86999327Y-119479889D01*
X87004978Y-119499339D01*
X87008987Y-119518700D01*
X87011526Y-119538797D01*
X87014445Y-119546168D01*
X87014445Y-119546170D01*
X87027804Y-119579912D01*
X87031649Y-119591142D01*
X87043982Y-119633593D01*
X87048015Y-119640412D01*
X87048017Y-119640417D01*
X87054293Y-119651028D01*
X87062988Y-119668776D01*
X87070448Y-119687617D01*
X87075110Y-119694033D01*
X87075110Y-119694034D01*
X87096436Y-119723387D01*
X87102952Y-119733307D01*
X87125458Y-119771362D01*
X87139779Y-119785683D01*
X87152619Y-119800716D01*
X87164528Y-119817107D01*
X87170634Y-119822158D01*
X87198605Y-119845298D01*
X87207384Y-119853288D01*
X87287730Y-119933634D01*
X87321756Y-119995946D01*
X87316691Y-120066761D01*
X87274144Y-120123597D01*
X87262776Y-120131182D01*
X87238637Y-120145458D01*
X87224313Y-120159782D01*
X87209281Y-120172621D01*
X87192893Y-120184528D01*
X87165265Y-120217924D01*
X87164712Y-120218593D01*
X87156722Y-120227373D01*
X85967747Y-121416348D01*
X85959461Y-121423888D01*
X85952982Y-121428000D01*
X85947557Y-121433777D01*
X85906357Y-121477651D01*
X85903602Y-121480493D01*
X85883865Y-121500230D01*
X85881385Y-121503427D01*
X85873682Y-121512447D01*
X85843414Y-121544679D01*
X85839595Y-121551625D01*
X85839593Y-121551628D01*
X85833652Y-121562434D01*
X85822801Y-121578953D01*
X85810386Y-121594959D01*
X85807241Y-121602228D01*
X85807238Y-121602232D01*
X85792826Y-121635537D01*
X85787609Y-121646187D01*
X85766305Y-121684940D01*
X85764334Y-121692615D01*
X85764334Y-121692616D01*
X85761267Y-121704562D01*
X85754863Y-121723266D01*
X85746819Y-121741855D01*
X85745580Y-121749678D01*
X85745577Y-121749688D01*
X85739901Y-121785524D01*
X85737495Y-121797144D01*
X85728883Y-121830689D01*
X85726500Y-121839970D01*
X85726500Y-121860224D01*
X85724949Y-121879934D01*
X85721780Y-121899943D01*
X85722526Y-121907835D01*
X85725941Y-121943961D01*
X85726500Y-121955819D01*
X85726500Y-128826233D01*
X85725973Y-128837416D01*
X85724298Y-128844909D01*
X85724547Y-128852835D01*
X85724547Y-128852836D01*
X85726438Y-128912986D01*
X85726500Y-128916945D01*
X85726500Y-128944856D01*
X85726997Y-128948790D01*
X85726997Y-128948791D01*
X85727005Y-128948856D01*
X85727938Y-128960693D01*
X85729327Y-129004889D01*
X85734978Y-129024339D01*
X85738987Y-129043700D01*
X85741526Y-129063797D01*
X85744445Y-129071168D01*
X85744445Y-129071170D01*
X85757804Y-129104912D01*
X85761649Y-129116142D01*
X85773982Y-129158593D01*
X85778015Y-129165412D01*
X85778017Y-129165417D01*
X85784293Y-129176028D01*
X85792988Y-129193776D01*
X85800448Y-129212617D01*
X85805110Y-129219033D01*
X85805110Y-129219034D01*
X85826436Y-129248387D01*
X85832952Y-129258307D01*
X85855458Y-129296362D01*
X85869779Y-129310683D01*
X85882619Y-129325716D01*
X85894528Y-129342107D01*
X85928605Y-129370298D01*
X85937384Y-129378288D01*
X88396343Y-131837247D01*
X88403887Y-131845537D01*
X88408000Y-131852018D01*
X88413777Y-131857443D01*
X88457667Y-131898658D01*
X88460509Y-131901413D01*
X88480230Y-131921134D01*
X88483425Y-131923612D01*
X88492447Y-131931318D01*
X88524679Y-131961586D01*
X88531628Y-131965406D01*
X88542432Y-131971346D01*
X88558956Y-131982199D01*
X88574959Y-131994613D01*
X88615543Y-132012176D01*
X88626173Y-132017383D01*
X88664940Y-132038695D01*
X88672617Y-132040666D01*
X88672622Y-132040668D01*
X88684558Y-132043732D01*
X88703266Y-132050137D01*
X88721855Y-132058181D01*
X88729680Y-132059420D01*
X88729682Y-132059421D01*
X88765519Y-132065097D01*
X88777140Y-132067504D01*
X88812289Y-132076528D01*
X88819970Y-132078500D01*
X88840231Y-132078500D01*
X88859940Y-132080051D01*
X88879943Y-132083219D01*
X88887835Y-132082473D01*
X88893062Y-132081979D01*
X88923954Y-132079059D01*
X88935811Y-132078500D01*
X103431800Y-132078500D01*
X103499921Y-132098502D01*
X103519147Y-132114843D01*
X103519420Y-132114540D01*
X103524332Y-132118963D01*
X103528747Y-132123866D01*
X103683248Y-132236118D01*
X103689276Y-132238802D01*
X103689278Y-132238803D01*
X103851681Y-132311109D01*
X103857712Y-132313794D01*
X103951113Y-132333647D01*
X104038056Y-132352128D01*
X104038061Y-132352128D01*
X104044513Y-132353500D01*
X104235487Y-132353500D01*
X104241939Y-132352128D01*
X104241944Y-132352128D01*
X104328887Y-132333647D01*
X104422288Y-132313794D01*
X104428319Y-132311109D01*
X104590722Y-132238803D01*
X104590724Y-132238802D01*
X104596752Y-132236118D01*
X104751253Y-132123866D01*
X104787852Y-132083219D01*
X104874621Y-131986852D01*
X104874622Y-131986851D01*
X104879040Y-131981944D01*
X104954053Y-131852018D01*
X104971223Y-131822279D01*
X104971224Y-131822278D01*
X104974527Y-131816556D01*
X105033542Y-131634928D01*
X105034781Y-131623145D01*
X105052814Y-131451565D01*
X105053504Y-131445000D01*
X105033542Y-131255072D01*
X104974527Y-131073444D01*
X104945858Y-131023787D01*
X104925538Y-130988593D01*
X104879040Y-130908056D01*
X104820011Y-130842497D01*
X104755675Y-130771045D01*
X104755674Y-130771044D01*
X104751253Y-130766134D01*
X104615589Y-130667568D01*
X104602094Y-130657763D01*
X104602093Y-130657762D01*
X104596752Y-130653882D01*
X104590724Y-130651198D01*
X104590722Y-130651197D01*
X104428319Y-130578891D01*
X104428318Y-130578891D01*
X104422288Y-130576206D01*
X104328887Y-130556353D01*
X104241944Y-130537872D01*
X104241939Y-130537872D01*
X104235487Y-130536500D01*
X104044513Y-130536500D01*
X104038061Y-130537872D01*
X104038056Y-130537872D01*
X103951113Y-130556353D01*
X103857712Y-130576206D01*
X103851682Y-130578891D01*
X103851681Y-130578891D01*
X103689278Y-130651197D01*
X103689276Y-130651198D01*
X103683248Y-130653882D01*
X103677907Y-130657762D01*
X103677906Y-130657763D01*
X103582445Y-130727120D01*
X103528747Y-130766134D01*
X103524332Y-130771037D01*
X103519420Y-130775460D01*
X103518295Y-130774211D01*
X103464986Y-130807051D01*
X103431800Y-130811500D01*
X92217858Y-130811500D01*
X92149737Y-130791498D01*
X92103244Y-130737842D01*
X92093140Y-130667568D01*
X92122634Y-130602988D01*
X92145587Y-130582287D01*
X92247527Y-130510908D01*
X92247529Y-130510906D01*
X92252038Y-130507749D01*
X92407749Y-130352038D01*
X92419878Y-130334717D01*
X92530899Y-130176162D01*
X92530900Y-130176160D01*
X92534056Y-130171653D01*
X92536379Y-130166671D01*
X92536382Y-130166666D01*
X92624795Y-129977061D01*
X92627120Y-129972076D01*
X92684115Y-129759371D01*
X92703307Y-129540000D01*
X92684115Y-129320629D01*
X92627120Y-129107924D01*
X92576927Y-129000285D01*
X92536382Y-128913334D01*
X92536379Y-128913329D01*
X92534056Y-128908347D01*
X92508857Y-128872359D01*
X92410908Y-128732473D01*
X92410906Y-128732470D01*
X92407749Y-128727962D01*
X92252038Y-128572251D01*
X92071654Y-128445944D01*
X92066672Y-128443621D01*
X92066667Y-128443618D01*
X91939232Y-128384195D01*
X91885947Y-128337278D01*
X91866486Y-128269001D01*
X91887028Y-128201041D01*
X91939232Y-128155805D01*
X92066667Y-128096382D01*
X92066672Y-128096379D01*
X92071654Y-128094056D01*
X92252038Y-127967749D01*
X92407749Y-127812038D01*
X92420518Y-127793803D01*
X92495141Y-127687229D01*
X92550598Y-127642901D01*
X92598354Y-127633500D01*
X99621800Y-127633500D01*
X99689921Y-127653502D01*
X99709147Y-127669843D01*
X99709420Y-127669540D01*
X99714332Y-127673963D01*
X99718747Y-127678866D01*
X99873248Y-127791118D01*
X99879276Y-127793802D01*
X99879278Y-127793803D01*
X99990305Y-127843235D01*
X100047712Y-127868794D01*
X100141112Y-127888647D01*
X100228056Y-127907128D01*
X100228061Y-127907128D01*
X100234513Y-127908500D01*
X100425487Y-127908500D01*
X100431939Y-127907128D01*
X100431944Y-127907128D01*
X100518888Y-127888647D01*
X100612288Y-127868794D01*
X100669695Y-127843235D01*
X100780722Y-127793803D01*
X100780724Y-127793802D01*
X100786752Y-127791118D01*
X100941253Y-127678866D01*
X100973636Y-127642901D01*
X101064621Y-127541852D01*
X101064622Y-127541851D01*
X101069040Y-127536944D01*
X101164527Y-127371556D01*
X101223542Y-127189928D01*
X101243504Y-127000000D01*
X101223542Y-126810072D01*
X101164527Y-126628444D01*
X101069040Y-126463056D01*
X100979509Y-126363621D01*
X100945675Y-126326045D01*
X100945674Y-126326044D01*
X100941253Y-126321134D01*
X100786752Y-126208882D01*
X100780724Y-126206198D01*
X100780722Y-126206197D01*
X100618319Y-126133891D01*
X100618318Y-126133891D01*
X100612288Y-126131206D01*
X100518887Y-126111353D01*
X100431944Y-126092872D01*
X100431939Y-126092872D01*
X100425487Y-126091500D01*
X100234513Y-126091500D01*
X100228061Y-126092872D01*
X100228056Y-126092872D01*
X100141113Y-126111353D01*
X100047712Y-126131206D01*
X100041682Y-126133891D01*
X100041681Y-126133891D01*
X99879278Y-126206197D01*
X99879276Y-126206198D01*
X99873248Y-126208882D01*
X99718747Y-126321134D01*
X99714332Y-126326037D01*
X99709420Y-126330460D01*
X99708295Y-126329211D01*
X99654986Y-126362051D01*
X99621800Y-126366500D01*
X92598354Y-126366500D01*
X92530233Y-126346498D01*
X92495141Y-126312771D01*
X92410908Y-126192473D01*
X92410906Y-126192470D01*
X92407749Y-126187962D01*
X92252038Y-126032251D01*
X92071654Y-125905944D01*
X92066672Y-125903621D01*
X92066667Y-125903618D01*
X91939232Y-125844195D01*
X91885947Y-125797278D01*
X91866486Y-125729001D01*
X91887028Y-125661041D01*
X91939232Y-125615805D01*
X92066667Y-125556382D01*
X92066672Y-125556379D01*
X92071654Y-125554056D01*
X92252038Y-125427749D01*
X92407749Y-125272038D01*
X92420518Y-125253803D01*
X92530899Y-125096162D01*
X92530900Y-125096160D01*
X92534056Y-125091653D01*
X92536379Y-125086671D01*
X92536382Y-125086666D01*
X92583585Y-124985438D01*
X92627120Y-124892076D01*
X92684115Y-124679371D01*
X92703307Y-124460000D01*
X92684115Y-124240629D01*
X92682692Y-124235319D01*
X92682691Y-124235312D01*
X92675716Y-124209281D01*
X92677406Y-124138304D01*
X92708328Y-124087576D01*
X96145904Y-120650000D01*
X98146496Y-120650000D01*
X98166458Y-120839928D01*
X98225473Y-121021556D01*
X98320960Y-121186944D01*
X98325378Y-121191851D01*
X98325379Y-121191852D01*
X98416754Y-121293334D01*
X98448747Y-121328866D01*
X98460258Y-121337229D01*
X98585193Y-121428000D01*
X98603248Y-121441118D01*
X98609276Y-121443802D01*
X98609278Y-121443803D01*
X98771681Y-121516109D01*
X98777712Y-121518794D01*
X98871113Y-121538647D01*
X98958056Y-121557128D01*
X98958061Y-121557128D01*
X98964513Y-121558500D01*
X99155487Y-121558500D01*
X99161939Y-121557128D01*
X99161944Y-121557128D01*
X99248887Y-121538647D01*
X99342288Y-121518794D01*
X99348319Y-121516109D01*
X99510722Y-121443803D01*
X99510724Y-121443802D01*
X99516752Y-121441118D01*
X99534808Y-121428000D01*
X99659742Y-121337229D01*
X99671253Y-121328866D01*
X99675668Y-121323963D01*
X99680580Y-121319540D01*
X99681705Y-121320789D01*
X99735014Y-121287949D01*
X99768200Y-121283500D01*
X105446646Y-121283500D01*
X105514767Y-121303502D01*
X105549859Y-121337229D01*
X105624483Y-121443803D01*
X105637251Y-121462038D01*
X105792962Y-121617749D01*
X105797471Y-121620906D01*
X105797473Y-121620908D01*
X105826152Y-121640989D01*
X105973346Y-121744056D01*
X105978328Y-121746379D01*
X105978333Y-121746382D01*
X106105768Y-121805805D01*
X106159053Y-121852722D01*
X106178514Y-121920999D01*
X106157972Y-121988959D01*
X106105768Y-122034195D01*
X105978334Y-122093618D01*
X105978329Y-122093621D01*
X105973347Y-122095944D01*
X105968840Y-122099100D01*
X105968838Y-122099101D01*
X105797473Y-122219092D01*
X105797470Y-122219094D01*
X105792962Y-122222251D01*
X105637251Y-122377962D01*
X105634094Y-122382470D01*
X105634092Y-122382473D01*
X105534201Y-122525132D01*
X105510944Y-122558347D01*
X105508621Y-122563329D01*
X105508618Y-122563334D01*
X105461415Y-122664562D01*
X105417880Y-122757924D01*
X105360885Y-122970629D01*
X105341693Y-123190000D01*
X105360885Y-123409371D01*
X105417880Y-123622076D01*
X105438454Y-123666197D01*
X105508618Y-123816666D01*
X105508621Y-123816671D01*
X105510944Y-123821653D01*
X105514100Y-123826160D01*
X105514101Y-123826162D01*
X105578511Y-123918148D01*
X105637251Y-124002038D01*
X105792962Y-124157749D01*
X105973346Y-124284056D01*
X105978328Y-124286379D01*
X105978333Y-124286382D01*
X106105768Y-124345805D01*
X106159053Y-124392722D01*
X106178514Y-124460999D01*
X106157972Y-124528959D01*
X106105768Y-124574195D01*
X105978334Y-124633618D01*
X105978329Y-124633621D01*
X105973347Y-124635944D01*
X105968840Y-124639100D01*
X105968838Y-124639101D01*
X105797473Y-124759092D01*
X105797470Y-124759094D01*
X105792962Y-124762251D01*
X105637251Y-124917962D01*
X105634094Y-124922470D01*
X105634092Y-124922473D01*
X105542214Y-125053689D01*
X105510944Y-125098347D01*
X105508621Y-125103329D01*
X105508618Y-125103334D01*
X105488906Y-125145607D01*
X105417880Y-125297924D01*
X105360885Y-125510629D01*
X105341693Y-125730000D01*
X105360885Y-125949371D01*
X105417880Y-126162076D01*
X105438454Y-126206197D01*
X105508618Y-126356666D01*
X105508621Y-126356671D01*
X105510944Y-126361653D01*
X105514100Y-126366160D01*
X105514101Y-126366162D01*
X105578511Y-126458148D01*
X105637251Y-126542038D01*
X105792962Y-126697749D01*
X105973346Y-126824056D01*
X105978328Y-126826379D01*
X105978333Y-126826382D01*
X106105768Y-126885805D01*
X106159053Y-126932722D01*
X106178514Y-127000999D01*
X106157972Y-127068959D01*
X106105768Y-127114195D01*
X105978334Y-127173618D01*
X105978329Y-127173621D01*
X105973347Y-127175944D01*
X105968840Y-127179100D01*
X105968838Y-127179101D01*
X105797473Y-127299092D01*
X105797470Y-127299094D01*
X105792962Y-127302251D01*
X105637251Y-127457962D01*
X105634094Y-127462470D01*
X105634092Y-127462473D01*
X105514686Y-127633003D01*
X105510944Y-127638347D01*
X105508621Y-127643329D01*
X105508618Y-127643334D01*
X105490241Y-127682745D01*
X105417880Y-127837924D01*
X105360885Y-128050629D01*
X105341693Y-128270000D01*
X105360885Y-128489371D01*
X105417880Y-128702076D01*
X105455132Y-128781964D01*
X105508618Y-128896666D01*
X105508621Y-128896671D01*
X105510944Y-128901653D01*
X105514100Y-128906160D01*
X105514101Y-128906162D01*
X105624479Y-129063797D01*
X105637251Y-129082038D01*
X105792962Y-129237749D01*
X105797470Y-129240906D01*
X105797473Y-129240908D01*
X105822322Y-129258307D01*
X105917772Y-129325142D01*
X105962099Y-129380598D01*
X105971500Y-129428354D01*
X105971500Y-130656233D01*
X105970973Y-130667416D01*
X105969298Y-130674909D01*
X105969547Y-130682835D01*
X105969547Y-130682836D01*
X105971438Y-130742986D01*
X105971500Y-130746945D01*
X105971500Y-130774856D01*
X105971997Y-130778790D01*
X105971997Y-130778791D01*
X105972005Y-130778856D01*
X105972938Y-130790693D01*
X105974327Y-130834889D01*
X105979978Y-130854339D01*
X105983987Y-130873700D01*
X105986526Y-130893797D01*
X105989445Y-130901168D01*
X105989445Y-130901170D01*
X106002804Y-130934912D01*
X106006649Y-130946142D01*
X106018982Y-130988593D01*
X106023015Y-130995412D01*
X106023017Y-130995417D01*
X106029293Y-131006028D01*
X106037988Y-131023776D01*
X106045448Y-131042617D01*
X106050110Y-131049033D01*
X106050110Y-131049034D01*
X106071436Y-131078387D01*
X106077952Y-131088307D01*
X106100458Y-131126362D01*
X106114779Y-131140683D01*
X106127619Y-131155716D01*
X106139528Y-131172107D01*
X106145634Y-131177158D01*
X106173605Y-131200298D01*
X106182384Y-131208288D01*
X107446343Y-132472247D01*
X107453887Y-132480537D01*
X107458000Y-132487018D01*
X107463777Y-132492443D01*
X107507667Y-132533658D01*
X107510509Y-132536413D01*
X107530230Y-132556134D01*
X107533425Y-132558612D01*
X107542447Y-132566318D01*
X107574679Y-132596586D01*
X107581628Y-132600406D01*
X107592432Y-132606346D01*
X107608956Y-132617199D01*
X107624959Y-132629613D01*
X107665543Y-132647176D01*
X107676173Y-132652383D01*
X107714940Y-132673695D01*
X107722617Y-132675666D01*
X107722622Y-132675668D01*
X107734558Y-132678732D01*
X107753266Y-132685137D01*
X107771855Y-132693181D01*
X107779683Y-132694421D01*
X107779690Y-132694423D01*
X107815524Y-132700099D01*
X107827144Y-132702505D01*
X107858959Y-132710673D01*
X107869970Y-132713500D01*
X107890224Y-132713500D01*
X107909934Y-132715051D01*
X107929943Y-132718220D01*
X107937835Y-132717474D01*
X107956580Y-132715702D01*
X107973962Y-132714059D01*
X107985819Y-132713500D01*
X110411233Y-132713500D01*
X110422416Y-132714027D01*
X110429909Y-132715702D01*
X110437835Y-132715453D01*
X110437836Y-132715453D01*
X110497986Y-132713562D01*
X110501945Y-132713500D01*
X110529856Y-132713500D01*
X110533791Y-132713003D01*
X110533856Y-132712995D01*
X110545693Y-132712062D01*
X110577951Y-132711048D01*
X110581970Y-132710922D01*
X110589889Y-132710673D01*
X110609343Y-132705021D01*
X110628700Y-132701013D01*
X110640930Y-132699468D01*
X110640931Y-132699468D01*
X110648797Y-132698474D01*
X110656168Y-132695555D01*
X110656170Y-132695555D01*
X110689912Y-132682196D01*
X110701142Y-132678351D01*
X110735983Y-132668229D01*
X110735984Y-132668229D01*
X110743593Y-132666018D01*
X110750412Y-132661985D01*
X110750417Y-132661983D01*
X110761028Y-132655707D01*
X110778776Y-132647012D01*
X110797617Y-132639552D01*
X110817987Y-132624753D01*
X110833387Y-132613564D01*
X110843307Y-132607048D01*
X110874535Y-132588580D01*
X110874538Y-132588578D01*
X110881362Y-132584542D01*
X110895683Y-132570221D01*
X110910717Y-132557380D01*
X110912432Y-132556134D01*
X110927107Y-132545472D01*
X110955298Y-132511395D01*
X110963288Y-132502616D01*
X111517247Y-131948657D01*
X111525537Y-131941113D01*
X111532018Y-131937000D01*
X111578659Y-131887332D01*
X111581413Y-131884491D01*
X111601135Y-131864769D01*
X111603612Y-131861576D01*
X111611317Y-131852555D01*
X111636159Y-131826100D01*
X111641586Y-131820321D01*
X111647111Y-131810271D01*
X111651346Y-131802568D01*
X111662202Y-131786041D01*
X111669757Y-131776302D01*
X111669758Y-131776300D01*
X111674614Y-131770040D01*
X111692174Y-131729460D01*
X111697391Y-131718812D01*
X111714875Y-131687009D01*
X111714876Y-131687007D01*
X111718695Y-131680060D01*
X111723733Y-131660437D01*
X111730137Y-131641734D01*
X111735033Y-131630420D01*
X111735033Y-131630419D01*
X111738181Y-131623145D01*
X111739420Y-131615322D01*
X111739423Y-131615312D01*
X111745099Y-131579476D01*
X111747505Y-131567856D01*
X111756528Y-131532711D01*
X111756528Y-131532710D01*
X111758500Y-131525030D01*
X111758500Y-131504776D01*
X111760051Y-131485065D01*
X111761980Y-131472886D01*
X111763220Y-131465057D01*
X111759059Y-131421038D01*
X111758500Y-131409181D01*
X111758500Y-130942703D01*
X113385743Y-130942703D01*
X113386302Y-130946947D01*
X113386302Y-130946951D01*
X113398897Y-131042617D01*
X113423268Y-131227734D01*
X113499129Y-131505036D01*
X113500813Y-131508984D01*
X113609063Y-131762770D01*
X113611923Y-131769476D01*
X113661645Y-131852555D01*
X113748549Y-131997761D01*
X113759561Y-132016161D01*
X113939313Y-132240528D01*
X114147851Y-132438423D01*
X114381317Y-132606186D01*
X114385112Y-132608195D01*
X114385113Y-132608196D01*
X114406869Y-132619715D01*
X114635392Y-132740712D01*
X114905373Y-132839511D01*
X115186264Y-132900755D01*
X115214841Y-132903004D01*
X115409282Y-132918307D01*
X115409291Y-132918307D01*
X115411739Y-132918500D01*
X115567271Y-132918500D01*
X115569407Y-132918354D01*
X115569418Y-132918354D01*
X115777548Y-132904165D01*
X115777554Y-132904164D01*
X115781825Y-132903873D01*
X115786020Y-132903004D01*
X115786022Y-132903004D01*
X115922584Y-132874723D01*
X116063342Y-132845574D01*
X116334343Y-132749607D01*
X116504112Y-132661983D01*
X116586005Y-132619715D01*
X116586006Y-132619715D01*
X116589812Y-132617750D01*
X116593313Y-132615289D01*
X116593317Y-132615287D01*
X116741140Y-132511395D01*
X116825023Y-132452441D01*
X116931496Y-132353500D01*
X117032479Y-132259661D01*
X117032481Y-132259658D01*
X117035622Y-132256740D01*
X117217713Y-132034268D01*
X117367927Y-131789142D01*
X117379504Y-131762770D01*
X117481757Y-131529830D01*
X117483483Y-131525898D01*
X117562244Y-131249406D01*
X117602751Y-130964784D01*
X117602845Y-130946951D01*
X117604235Y-130681583D01*
X117604235Y-130681576D01*
X117604257Y-130677297D01*
X117603046Y-130668093D01*
X117581936Y-130507749D01*
X117566732Y-130392266D01*
X117490871Y-130114964D01*
X117429924Y-129972076D01*
X117379763Y-129854476D01*
X117379761Y-129854472D01*
X117378077Y-129850524D01*
X117230439Y-129603839D01*
X117050687Y-129379472D01*
X116901342Y-129237749D01*
X116845258Y-129184527D01*
X116845255Y-129184525D01*
X116842149Y-129181577D01*
X116608683Y-129013814D01*
X116586843Y-129002250D01*
X116508366Y-128960699D01*
X116354608Y-128879288D01*
X116084627Y-128780489D01*
X115803736Y-128719245D01*
X115772685Y-128716801D01*
X115580718Y-128701693D01*
X115580709Y-128701693D01*
X115578261Y-128701500D01*
X115422729Y-128701500D01*
X115420593Y-128701646D01*
X115420582Y-128701646D01*
X115212452Y-128715835D01*
X115212446Y-128715836D01*
X115208175Y-128716127D01*
X115203980Y-128716996D01*
X115203978Y-128716996D01*
X115100289Y-128738469D01*
X114926658Y-128774426D01*
X114655657Y-128870393D01*
X114400188Y-129002250D01*
X114396687Y-129004711D01*
X114396683Y-129004713D01*
X114323809Y-129055930D01*
X114164977Y-129167559D01*
X114124421Y-129205246D01*
X113971706Y-129347158D01*
X113954378Y-129363260D01*
X113772287Y-129585732D01*
X113622073Y-129830858D01*
X113620347Y-129834791D01*
X113620346Y-129834792D01*
X113508243Y-130090170D01*
X113506517Y-130094102D01*
X113505342Y-130098229D01*
X113505341Y-130098230D01*
X113474962Y-130204875D01*
X113427756Y-130370594D01*
X113404115Y-130536705D01*
X113388891Y-130643682D01*
X113387249Y-130655216D01*
X113387227Y-130659505D01*
X113387226Y-130659512D01*
X113385765Y-130938417D01*
X113385743Y-130942703D01*
X111758500Y-130942703D01*
X111758500Y-130489594D01*
X111778502Y-130421473D01*
X111795405Y-130400499D01*
X119137247Y-123058657D01*
X119145537Y-123051113D01*
X119152018Y-123047000D01*
X119198659Y-122997332D01*
X119201413Y-122994491D01*
X119221134Y-122974770D01*
X119223612Y-122971575D01*
X119231318Y-122962553D01*
X119256158Y-122936101D01*
X119261586Y-122930321D01*
X119271346Y-122912568D01*
X119282199Y-122896045D01*
X119283356Y-122894553D01*
X119294613Y-122880041D01*
X119312176Y-122839457D01*
X119317383Y-122828827D01*
X119338695Y-122790060D01*
X119340666Y-122782383D01*
X119340668Y-122782378D01*
X119343732Y-122770442D01*
X119350138Y-122751730D01*
X119355034Y-122740417D01*
X119358181Y-122733145D01*
X119365097Y-122689481D01*
X119367504Y-122677860D01*
X119376528Y-122642711D01*
X119376528Y-122642710D01*
X119378500Y-122635030D01*
X119378500Y-122614769D01*
X119380051Y-122595058D01*
X119381979Y-122582885D01*
X119383219Y-122575057D01*
X119379059Y-122531046D01*
X119378500Y-122519189D01*
X119378500Y-118177524D01*
X119398502Y-118109403D01*
X119410858Y-118093221D01*
X119484040Y-118011944D01*
X119579527Y-117846556D01*
X119638542Y-117664928D01*
X119658504Y-117475000D01*
X119645418Y-117350489D01*
X119639232Y-117291635D01*
X119639232Y-117291633D01*
X119638542Y-117285072D01*
X119579527Y-117103444D01*
X119484040Y-116938056D01*
X119356253Y-116796134D01*
X119201752Y-116683882D01*
X119195724Y-116681198D01*
X119195722Y-116681197D01*
X119033319Y-116608891D01*
X119033318Y-116608891D01*
X119027288Y-116606206D01*
X118933888Y-116586353D01*
X118846944Y-116567872D01*
X118846939Y-116567872D01*
X118840487Y-116566500D01*
X118649513Y-116566500D01*
X118643061Y-116567872D01*
X118643056Y-116567872D01*
X118556112Y-116586353D01*
X118462712Y-116606206D01*
X118456682Y-116608891D01*
X118456681Y-116608891D01*
X118294278Y-116681197D01*
X118294276Y-116681198D01*
X118288248Y-116683882D01*
X118133747Y-116796134D01*
X118005960Y-116938056D01*
X117910473Y-117103444D01*
X117851458Y-117285072D01*
X117850768Y-117291633D01*
X117850768Y-117291635D01*
X117844582Y-117350489D01*
X117831496Y-117475000D01*
X117851458Y-117664928D01*
X117910473Y-117846556D01*
X118005960Y-118011944D01*
X118079137Y-118093215D01*
X118109853Y-118157221D01*
X118111500Y-118177524D01*
X118111500Y-122240405D01*
X118091498Y-122308526D01*
X118074595Y-122329500D01*
X115113511Y-125290584D01*
X115090147Y-125303342D01*
X115084322Y-125318304D01*
X115073637Y-125330458D01*
X110732747Y-129671348D01*
X110724461Y-129678888D01*
X110717982Y-129683000D01*
X110712557Y-129688777D01*
X110671357Y-129732651D01*
X110668602Y-129735493D01*
X110648865Y-129755230D01*
X110646385Y-129758427D01*
X110638679Y-129767450D01*
X110621349Y-129785904D01*
X110560135Y-129821869D01*
X110489196Y-129819030D01*
X110431052Y-129778289D01*
X110404165Y-129712580D01*
X110403500Y-129699650D01*
X110403500Y-128741866D01*
X110396745Y-128679684D01*
X110345615Y-128543295D01*
X110258261Y-128426739D01*
X110141705Y-128339385D01*
X110005316Y-128288255D01*
X109943134Y-128281500D01*
X109908577Y-128281500D01*
X109840456Y-128261498D01*
X109793963Y-128207842D01*
X109783859Y-128137568D01*
X109813353Y-128072988D01*
X109836306Y-128052287D01*
X109952527Y-127970908D01*
X109952529Y-127970906D01*
X109957038Y-127967749D01*
X110112749Y-127812038D01*
X110125518Y-127793803D01*
X110200141Y-127687229D01*
X110255598Y-127642901D01*
X110303354Y-127633500D01*
X111681233Y-127633500D01*
X111692416Y-127634027D01*
X111699909Y-127635702D01*
X111707835Y-127635453D01*
X111707836Y-127635453D01*
X111767986Y-127633562D01*
X111771945Y-127633500D01*
X111799856Y-127633500D01*
X111803791Y-127633003D01*
X111803856Y-127632995D01*
X111815693Y-127632062D01*
X111847951Y-127631048D01*
X111851970Y-127630922D01*
X111859889Y-127630673D01*
X111879343Y-127625021D01*
X111898700Y-127621013D01*
X111910930Y-127619468D01*
X111910931Y-127619468D01*
X111918797Y-127618474D01*
X111926168Y-127615555D01*
X111926170Y-127615555D01*
X111959912Y-127602196D01*
X111971142Y-127598351D01*
X112005983Y-127588229D01*
X112005984Y-127588229D01*
X112013593Y-127586018D01*
X112020412Y-127581985D01*
X112020417Y-127581983D01*
X112031028Y-127575707D01*
X112048776Y-127567012D01*
X112067617Y-127559552D01*
X112103387Y-127533564D01*
X112113307Y-127527048D01*
X112144535Y-127508580D01*
X112144538Y-127508578D01*
X112151362Y-127504542D01*
X112165683Y-127490221D01*
X112180717Y-127477380D01*
X112190694Y-127470131D01*
X112197107Y-127465472D01*
X112225298Y-127431395D01*
X112233288Y-127422616D01*
X114250499Y-125405405D01*
X114312811Y-125371379D01*
X114339594Y-125368500D01*
X114395487Y-125368500D01*
X114401939Y-125367128D01*
X114401944Y-125367128D01*
X114488887Y-125348647D01*
X114582288Y-125328794D01*
X114639313Y-125303405D01*
X114750722Y-125253803D01*
X114750724Y-125253802D01*
X114756752Y-125251118D01*
X114902091Y-125145523D01*
X114910481Y-125139427D01*
X114916551Y-125137261D01*
X114930780Y-125117179D01*
X115034621Y-125001852D01*
X115034622Y-125001851D01*
X115039040Y-124996944D01*
X115134527Y-124831556D01*
X115193542Y-124649928D01*
X115194635Y-124639534D01*
X115212814Y-124466565D01*
X115213504Y-124460000D01*
X115193542Y-124270072D01*
X115134527Y-124088444D01*
X115039040Y-123923056D01*
X114949934Y-123824093D01*
X114915675Y-123786045D01*
X114915674Y-123786044D01*
X114911253Y-123781134D01*
X114756752Y-123668882D01*
X114750724Y-123666198D01*
X114750722Y-123666197D01*
X114588319Y-123593891D01*
X114588318Y-123593891D01*
X114582288Y-123591206D01*
X114488888Y-123571353D01*
X114401944Y-123552872D01*
X114401939Y-123552872D01*
X114395487Y-123551500D01*
X114204513Y-123551500D01*
X114198061Y-123552872D01*
X114198056Y-123552872D01*
X114111112Y-123571353D01*
X114017712Y-123591206D01*
X114011682Y-123593891D01*
X114011681Y-123593891D01*
X113849278Y-123666197D01*
X113849276Y-123666198D01*
X113843248Y-123668882D01*
X113688747Y-123781134D01*
X113684326Y-123786044D01*
X113684325Y-123786045D01*
X113650067Y-123824093D01*
X113560960Y-123923056D01*
X113465473Y-124088444D01*
X113406458Y-124270072D01*
X113405768Y-124276633D01*
X113405768Y-124276635D01*
X113389093Y-124435292D01*
X113362080Y-124500949D01*
X113352878Y-124511217D01*
X111534500Y-126329595D01*
X111472188Y-126363621D01*
X111445405Y-126366500D01*
X110303354Y-126366500D01*
X110235233Y-126346498D01*
X110200141Y-126312771D01*
X110115908Y-126192473D01*
X110115906Y-126192470D01*
X110112749Y-126187962D01*
X109957038Y-126032251D01*
X109776654Y-125905944D01*
X109771672Y-125903621D01*
X109771667Y-125903618D01*
X109643641Y-125843919D01*
X109590356Y-125797002D01*
X109570895Y-125728724D01*
X109591437Y-125660764D01*
X109643641Y-125615529D01*
X109771416Y-125555947D01*
X109780912Y-125550464D01*
X109822148Y-125521590D01*
X109830523Y-125511112D01*
X109823457Y-125497668D01*
X109157811Y-124832021D01*
X109143868Y-124824408D01*
X109142034Y-124824539D01*
X109135420Y-124828790D01*
X108465820Y-125498391D01*
X108459393Y-125510161D01*
X108468687Y-125522175D01*
X108509088Y-125550464D01*
X108518584Y-125555947D01*
X108646359Y-125615529D01*
X108699644Y-125662446D01*
X108719105Y-125730724D01*
X108698563Y-125798684D01*
X108646359Y-125843919D01*
X108518334Y-125903618D01*
X108518329Y-125903621D01*
X108513347Y-125905944D01*
X108508840Y-125909100D01*
X108508838Y-125909101D01*
X108337473Y-126029092D01*
X108337470Y-126029094D01*
X108332962Y-126032251D01*
X108177251Y-126187962D01*
X108174094Y-126192470D01*
X108174092Y-126192473D01*
X108054253Y-126363621D01*
X108050944Y-126368347D01*
X108048621Y-126373329D01*
X108048618Y-126373334D01*
X108028906Y-126415607D01*
X107957880Y-126567924D01*
X107900885Y-126780629D01*
X107881693Y-127000000D01*
X107900885Y-127219371D01*
X107957880Y-127432076D01*
X107989055Y-127498931D01*
X108048618Y-127626666D01*
X108048621Y-127626671D01*
X108050944Y-127631653D01*
X108054100Y-127636160D01*
X108054101Y-127636162D01*
X108164483Y-127793803D01*
X108177251Y-127812038D01*
X108332962Y-127967749D01*
X108337471Y-127970906D01*
X108337473Y-127970908D01*
X108453694Y-128052287D01*
X108498022Y-128107744D01*
X108505331Y-128178364D01*
X108473300Y-128241724D01*
X108412099Y-128277709D01*
X108381423Y-128281500D01*
X108346866Y-128281500D01*
X108284684Y-128288255D01*
X108148295Y-128339385D01*
X108067828Y-128399692D01*
X108001321Y-128424539D01*
X107931939Y-128409486D01*
X107881709Y-128359311D01*
X107866743Y-128287881D01*
X107867828Y-128275482D01*
X107867828Y-128275475D01*
X107868307Y-128270000D01*
X107849115Y-128050629D01*
X107792120Y-127837924D01*
X107719759Y-127682745D01*
X107701382Y-127643334D01*
X107701379Y-127643329D01*
X107699056Y-127638347D01*
X107695314Y-127633003D01*
X107575908Y-127462473D01*
X107575906Y-127462470D01*
X107572749Y-127457962D01*
X107417038Y-127302251D01*
X107236654Y-127175944D01*
X107231672Y-127173621D01*
X107231667Y-127173618D01*
X107104232Y-127114195D01*
X107050947Y-127067278D01*
X107031486Y-126999001D01*
X107052028Y-126931041D01*
X107104232Y-126885805D01*
X107231667Y-126826382D01*
X107231672Y-126826379D01*
X107236654Y-126824056D01*
X107417038Y-126697749D01*
X107572749Y-126542038D01*
X107631490Y-126458148D01*
X107695899Y-126366162D01*
X107695900Y-126366160D01*
X107699056Y-126361653D01*
X107701379Y-126356671D01*
X107701382Y-126356666D01*
X107771546Y-126206197D01*
X107792120Y-126162076D01*
X107849115Y-125949371D01*
X107868307Y-125730000D01*
X107849115Y-125510629D01*
X107792120Y-125297924D01*
X107721094Y-125145607D01*
X107701382Y-125103334D01*
X107701379Y-125103329D01*
X107699056Y-125098347D01*
X107667786Y-125053689D01*
X107575908Y-124922473D01*
X107575906Y-124922470D01*
X107572749Y-124917962D01*
X107417038Y-124762251D01*
X107236654Y-124635944D01*
X107231672Y-124633621D01*
X107231667Y-124633618D01*
X107104232Y-124574195D01*
X107050947Y-124527278D01*
X107033331Y-124465475D01*
X107882674Y-124465475D01*
X107900901Y-124673804D01*
X107902804Y-124684599D01*
X107956928Y-124886595D01*
X107960674Y-124896887D01*
X108049054Y-125086417D01*
X108054534Y-125095907D01*
X108083411Y-125137149D01*
X108093887Y-125145523D01*
X108107334Y-125138455D01*
X108772979Y-124472811D01*
X108779356Y-124461132D01*
X109509408Y-124461132D01*
X109509539Y-124462966D01*
X109513790Y-124469580D01*
X110183391Y-125139180D01*
X110195161Y-125145607D01*
X110207176Y-125136311D01*
X110235466Y-125095907D01*
X110240946Y-125086417D01*
X110329326Y-124896887D01*
X110333072Y-124886595D01*
X110387196Y-124684599D01*
X110389099Y-124673804D01*
X110407326Y-124465475D01*
X110407326Y-124454525D01*
X110389099Y-124246196D01*
X110387196Y-124235401D01*
X110333072Y-124033405D01*
X110329326Y-124023113D01*
X110240946Y-123833583D01*
X110235466Y-123824093D01*
X110206589Y-123782851D01*
X110196113Y-123774477D01*
X110182666Y-123781545D01*
X109517021Y-124447189D01*
X109509408Y-124461132D01*
X108779356Y-124461132D01*
X108780592Y-124458868D01*
X108780461Y-124457034D01*
X108776210Y-124450420D01*
X108106609Y-123780820D01*
X108094839Y-123774393D01*
X108082824Y-123783689D01*
X108054534Y-123824093D01*
X108049054Y-123833583D01*
X107960674Y-124023113D01*
X107956928Y-124033405D01*
X107902804Y-124235401D01*
X107900901Y-124246196D01*
X107882674Y-124454525D01*
X107882674Y-124465475D01*
X107033331Y-124465475D01*
X107031486Y-124459001D01*
X107052028Y-124391041D01*
X107104232Y-124345805D01*
X107231667Y-124286382D01*
X107231672Y-124286379D01*
X107236654Y-124284056D01*
X107417038Y-124157749D01*
X107572749Y-124002038D01*
X107631490Y-123918148D01*
X107695899Y-123826162D01*
X107695900Y-123826160D01*
X107699056Y-123821653D01*
X107701379Y-123816671D01*
X107701382Y-123816666D01*
X107771546Y-123666197D01*
X107792120Y-123622076D01*
X107849115Y-123409371D01*
X107868307Y-123190000D01*
X107849115Y-122970629D01*
X107792120Y-122757924D01*
X107748585Y-122664562D01*
X107701382Y-122563334D01*
X107701379Y-122563329D01*
X107699056Y-122558347D01*
X107675799Y-122525132D01*
X107575908Y-122382473D01*
X107575906Y-122382470D01*
X107572749Y-122377962D01*
X107417038Y-122222251D01*
X107236654Y-122095944D01*
X107231672Y-122093621D01*
X107231667Y-122093618D01*
X107104232Y-122034195D01*
X107050947Y-121987278D01*
X107031771Y-121920000D01*
X107881693Y-121920000D01*
X107900885Y-122139371D01*
X107957880Y-122352076D01*
X107979635Y-122398730D01*
X108048618Y-122546666D01*
X108048621Y-122546671D01*
X108050944Y-122551653D01*
X108054100Y-122556160D01*
X108054101Y-122556162D01*
X108114704Y-122642711D01*
X108177251Y-122732038D01*
X108332962Y-122887749D01*
X108337471Y-122890906D01*
X108337473Y-122890908D01*
X108393761Y-122930321D01*
X108513346Y-123014056D01*
X108518328Y-123016379D01*
X108518333Y-123016382D01*
X108646359Y-123076081D01*
X108699644Y-123122998D01*
X108719105Y-123191276D01*
X108698563Y-123259236D01*
X108646359Y-123304471D01*
X108518583Y-123364054D01*
X108509093Y-123369534D01*
X108467851Y-123398411D01*
X108459477Y-123408887D01*
X108466545Y-123422334D01*
X109132189Y-124087979D01*
X109146132Y-124095592D01*
X109147966Y-124095461D01*
X109154580Y-124091210D01*
X109824180Y-123421609D01*
X109830607Y-123409839D01*
X109821313Y-123397825D01*
X109780912Y-123369536D01*
X109771416Y-123364053D01*
X109643641Y-123304471D01*
X109590356Y-123257554D01*
X109570895Y-123189276D01*
X109591437Y-123121316D01*
X109643641Y-123076081D01*
X109771667Y-123016382D01*
X109771672Y-123016379D01*
X109776654Y-123014056D01*
X109896239Y-122930321D01*
X109952527Y-122890908D01*
X109952529Y-122890906D01*
X109957038Y-122887749D01*
X110112749Y-122732038D01*
X110175297Y-122642711D01*
X110235899Y-122556162D01*
X110235900Y-122556160D01*
X110239056Y-122551653D01*
X110241379Y-122546671D01*
X110241382Y-122546666D01*
X110310365Y-122398730D01*
X110332120Y-122352076D01*
X110389115Y-122139371D01*
X110408307Y-121920000D01*
X110389115Y-121700629D01*
X110332120Y-121487924D01*
X110259759Y-121332745D01*
X110241382Y-121293334D01*
X110241379Y-121293329D01*
X110239056Y-121288347D01*
X110228326Y-121273023D01*
X110115908Y-121112473D01*
X110115906Y-121112470D01*
X110112749Y-121107962D01*
X109957038Y-120952251D01*
X109776654Y-120825944D01*
X109577076Y-120732880D01*
X109364371Y-120675885D01*
X109145000Y-120656693D01*
X108925629Y-120675885D01*
X108712924Y-120732880D01*
X108619562Y-120776415D01*
X108518334Y-120823618D01*
X108518329Y-120823621D01*
X108513347Y-120825944D01*
X108508840Y-120829100D01*
X108508838Y-120829101D01*
X108337473Y-120949092D01*
X108337470Y-120949094D01*
X108332962Y-120952251D01*
X108177251Y-121107962D01*
X108174094Y-121112470D01*
X108174092Y-121112473D01*
X108061674Y-121273023D01*
X108050944Y-121288347D01*
X108048621Y-121293329D01*
X108048618Y-121293334D01*
X108030241Y-121332745D01*
X107957880Y-121487924D01*
X107900885Y-121700629D01*
X107881693Y-121920000D01*
X107031771Y-121920000D01*
X107031486Y-121919001D01*
X107052028Y-121851041D01*
X107104232Y-121805805D01*
X107231667Y-121746382D01*
X107231672Y-121746379D01*
X107236654Y-121744056D01*
X107383848Y-121640989D01*
X107412527Y-121620908D01*
X107412529Y-121620906D01*
X107417038Y-121617749D01*
X107572749Y-121462038D01*
X107585518Y-121443803D01*
X107695899Y-121286162D01*
X107695900Y-121286160D01*
X107699056Y-121281653D01*
X107701379Y-121276671D01*
X107701382Y-121276666D01*
X107757451Y-121156424D01*
X107792120Y-121082076D01*
X107849115Y-120869371D01*
X107868307Y-120650000D01*
X107849115Y-120430629D01*
X107792120Y-120217924D01*
X107727498Y-120079341D01*
X107701382Y-120023334D01*
X107701379Y-120023329D01*
X107699056Y-120018347D01*
X107663278Y-119967251D01*
X107575908Y-119842473D01*
X107575906Y-119842470D01*
X107572749Y-119837962D01*
X107417038Y-119682251D01*
X107384637Y-119659563D01*
X107336679Y-119625983D01*
X107236654Y-119555944D01*
X107143923Y-119512703D01*
X113385743Y-119512703D01*
X113386302Y-119516947D01*
X113386302Y-119516951D01*
X113391130Y-119553619D01*
X113423268Y-119797734D01*
X113499129Y-120075036D01*
X113500813Y-120078984D01*
X113562313Y-120223167D01*
X113611923Y-120339476D01*
X113759561Y-120586161D01*
X113939313Y-120810528D01*
X113976910Y-120846206D01*
X114092765Y-120956148D01*
X114147851Y-121008423D01*
X114381317Y-121176186D01*
X114385112Y-121178195D01*
X114385113Y-121178196D01*
X114406869Y-121189715D01*
X114635392Y-121310712D01*
X114905373Y-121409511D01*
X115186264Y-121470755D01*
X115214841Y-121473004D01*
X115409282Y-121488307D01*
X115409291Y-121488307D01*
X115411739Y-121488500D01*
X115567271Y-121488500D01*
X115569407Y-121488354D01*
X115569418Y-121488354D01*
X115777548Y-121474165D01*
X115777554Y-121474164D01*
X115781825Y-121473873D01*
X115786020Y-121473004D01*
X115786022Y-121473004D01*
X115939994Y-121441118D01*
X116063342Y-121415574D01*
X116334343Y-121319607D01*
X116510482Y-121228695D01*
X116586005Y-121189715D01*
X116586006Y-121189715D01*
X116589812Y-121187750D01*
X116593313Y-121185289D01*
X116593317Y-121185287D01*
X116818139Y-121027279D01*
X116825023Y-121022441D01*
X116903956Y-120949092D01*
X117032479Y-120829661D01*
X117032481Y-120829658D01*
X117035622Y-120826740D01*
X117217713Y-120604268D01*
X117367927Y-120359142D01*
X117441896Y-120190637D01*
X117481757Y-120099830D01*
X117483483Y-120095898D01*
X117485036Y-120090448D01*
X117552592Y-119853288D01*
X117562244Y-119819406D01*
X117595543Y-119585431D01*
X117602146Y-119539036D01*
X117602146Y-119539034D01*
X117602751Y-119534784D01*
X117602836Y-119518700D01*
X117604235Y-119251583D01*
X117604235Y-119251576D01*
X117604257Y-119247297D01*
X117566732Y-118962266D01*
X117490871Y-118684964D01*
X117378077Y-118420524D01*
X117303527Y-118295960D01*
X117232643Y-118177521D01*
X117232640Y-118177517D01*
X117230439Y-118173839D01*
X117050687Y-117949472D01*
X116842149Y-117751577D01*
X116608683Y-117583814D01*
X116586843Y-117572250D01*
X116563654Y-117559972D01*
X116354608Y-117449288D01*
X116084627Y-117350489D01*
X115803736Y-117289245D01*
X115772685Y-117286801D01*
X115580718Y-117271693D01*
X115580709Y-117271693D01*
X115578261Y-117271500D01*
X115422729Y-117271500D01*
X115420593Y-117271646D01*
X115420582Y-117271646D01*
X115212452Y-117285835D01*
X115212446Y-117285836D01*
X115208175Y-117286127D01*
X115203980Y-117286996D01*
X115203978Y-117286996D01*
X115067417Y-117315276D01*
X114926658Y-117344426D01*
X114655657Y-117440393D01*
X114400188Y-117572250D01*
X114396687Y-117574711D01*
X114396683Y-117574713D01*
X114386594Y-117581804D01*
X114164977Y-117737559D01*
X113954378Y-117933260D01*
X113772287Y-118155732D01*
X113622073Y-118400858D01*
X113506517Y-118664102D01*
X113427756Y-118940594D01*
X113387249Y-119225216D01*
X113387227Y-119229505D01*
X113387226Y-119229512D01*
X113385875Y-119487497D01*
X113385743Y-119512703D01*
X107143923Y-119512703D01*
X107037076Y-119462880D01*
X106824371Y-119405885D01*
X106605000Y-119386693D01*
X106385629Y-119405885D01*
X106172924Y-119462880D01*
X106120133Y-119487497D01*
X105978334Y-119553618D01*
X105978329Y-119553621D01*
X105973347Y-119555944D01*
X105968840Y-119559100D01*
X105968838Y-119559101D01*
X105797473Y-119679092D01*
X105797470Y-119679094D01*
X105792962Y-119682251D01*
X105637251Y-119837962D01*
X105634094Y-119842470D01*
X105634092Y-119842473D01*
X105549859Y-119962771D01*
X105494402Y-120007099D01*
X105446646Y-120016500D01*
X99768200Y-120016500D01*
X99700079Y-119996498D01*
X99680853Y-119980157D01*
X99680580Y-119980460D01*
X99675668Y-119976037D01*
X99671253Y-119971134D01*
X99516752Y-119858882D01*
X99510724Y-119856198D01*
X99510722Y-119856197D01*
X99348319Y-119783891D01*
X99348318Y-119783891D01*
X99342288Y-119781206D01*
X99248888Y-119761353D01*
X99161944Y-119742872D01*
X99161939Y-119742872D01*
X99155487Y-119741500D01*
X98964513Y-119741500D01*
X98958061Y-119742872D01*
X98958056Y-119742872D01*
X98871112Y-119761353D01*
X98777712Y-119781206D01*
X98771682Y-119783891D01*
X98771681Y-119783891D01*
X98609278Y-119856197D01*
X98609276Y-119856198D01*
X98603248Y-119858882D01*
X98448747Y-119971134D01*
X98444326Y-119976044D01*
X98444325Y-119976045D01*
X98351639Y-120078984D01*
X98320960Y-120113056D01*
X98225473Y-120278444D01*
X98166458Y-120460072D01*
X98146496Y-120650000D01*
X96145904Y-120650000D01*
X105635499Y-111160405D01*
X105697811Y-111126379D01*
X105724594Y-111123500D01*
X106955606Y-111123500D01*
X107023727Y-111143502D01*
X107058819Y-111177229D01*
X107165643Y-111329789D01*
X107168802Y-111334300D01*
X107330700Y-111496198D01*
X107335208Y-111499355D01*
X107335211Y-111499357D01*
X107367202Y-111521757D01*
X107518251Y-111627523D01*
X107523233Y-111629846D01*
X107523238Y-111629849D01*
X107720775Y-111721961D01*
X107725757Y-111724284D01*
X107731065Y-111725706D01*
X107731067Y-111725707D01*
X107941598Y-111782119D01*
X107941600Y-111782119D01*
X107946913Y-111783543D01*
X108175000Y-111803498D01*
X108403087Y-111783543D01*
X108408400Y-111782119D01*
X108408402Y-111782119D01*
X108618933Y-111725707D01*
X108618935Y-111725706D01*
X108624243Y-111724284D01*
X108629225Y-111721961D01*
X108826762Y-111629849D01*
X108826767Y-111629846D01*
X108831749Y-111627523D01*
X108982798Y-111521757D01*
X109014789Y-111499357D01*
X109014792Y-111499355D01*
X109019300Y-111496198D01*
X109181198Y-111334300D01*
X109210739Y-111292112D01*
X109248751Y-111237825D01*
X109312523Y-111146749D01*
X109314846Y-111141767D01*
X109314849Y-111141762D01*
X109406961Y-110944225D01*
X109406961Y-110944224D01*
X109409284Y-110939243D01*
X109468543Y-110718087D01*
X109488498Y-110490000D01*
X109468543Y-110261913D01*
X109409284Y-110040757D01*
X109399544Y-110019870D01*
X109314849Y-109838238D01*
X109314846Y-109838233D01*
X109312523Y-109833251D01*
X109181198Y-109645700D01*
X109168839Y-109633341D01*
X116875888Y-109633341D01*
X116875983Y-109636971D01*
X116875983Y-109636972D01*
X116882652Y-109891648D01*
X116884970Y-109980171D01*
X116933856Y-110323660D01*
X117021897Y-110659253D01*
X117147927Y-110982503D01*
X117149624Y-110985708D01*
X117283113Y-111237825D01*
X117310275Y-111289126D01*
X117312325Y-111292109D01*
X117312327Y-111292112D01*
X117504733Y-111572064D01*
X117504739Y-111572071D01*
X117506790Y-111575056D01*
X117734866Y-111836505D01*
X117737551Y-111838948D01*
X117947268Y-112029775D01*
X117991481Y-112070006D01*
X118273233Y-112272466D01*
X118576388Y-112441200D01*
X118896928Y-112573972D01*
X118900422Y-112574967D01*
X118900424Y-112574968D01*
X119227103Y-112668025D01*
X119227108Y-112668026D01*
X119230604Y-112669022D01*
X119427304Y-112701233D01*
X119569412Y-112724504D01*
X119569419Y-112724505D01*
X119572993Y-112725090D01*
X119746275Y-112733262D01*
X119915931Y-112741263D01*
X119915932Y-112741263D01*
X119919558Y-112741434D01*
X119928415Y-112740830D01*
X120262073Y-112718084D01*
X120262081Y-112718083D01*
X120265704Y-112717836D01*
X120269279Y-112717173D01*
X120269282Y-112717173D01*
X120603279Y-112655270D01*
X120603283Y-112655269D01*
X120606844Y-112654609D01*
X120938456Y-112552592D01*
X121256145Y-112413136D01*
X121500511Y-112270341D01*
X121552560Y-112239926D01*
X121552562Y-112239925D01*
X121555700Y-112238091D01*
X121558609Y-112235907D01*
X121830244Y-112031958D01*
X121830248Y-112031955D01*
X121833151Y-112029775D01*
X122084819Y-111790950D01*
X122307370Y-111524783D01*
X122497853Y-111234799D01*
X122626446Y-110979121D01*
X122652117Y-110928080D01*
X122652120Y-110928072D01*
X122653744Y-110924844D01*
X122772977Y-110599026D01*
X122773822Y-110595504D01*
X122773825Y-110595496D01*
X122853124Y-110265191D01*
X122853125Y-110265187D01*
X122853971Y-110261662D01*
X122854584Y-110256598D01*
X122895316Y-109920004D01*
X122895316Y-109919997D01*
X122895652Y-109917225D01*
X122895942Y-109908017D01*
X122901511Y-109730797D01*
X122901599Y-109728000D01*
X122896629Y-109641803D01*
X122881836Y-109385246D01*
X122881835Y-109385241D01*
X122881627Y-109381626D01*
X122841677Y-109152722D01*
X122822600Y-109043415D01*
X122822598Y-109043408D01*
X122821976Y-109039842D01*
X122723437Y-108707180D01*
X122684263Y-108615337D01*
X122588740Y-108391386D01*
X122588738Y-108391383D01*
X122587316Y-108388048D01*
X122537569Y-108300831D01*
X122417208Y-108089816D01*
X122415417Y-108086676D01*
X122210018Y-107807060D01*
X121973842Y-107552904D01*
X121710019Y-107327578D01*
X121422047Y-107134069D01*
X121113741Y-106974940D01*
X120789189Y-106852302D01*
X120785668Y-106851418D01*
X120785663Y-106851416D01*
X120624378Y-106810904D01*
X120452692Y-106767780D01*
X120430476Y-106764855D01*
X120112315Y-106722968D01*
X120112307Y-106722967D01*
X120108711Y-106722494D01*
X119964045Y-106720221D01*
X119765446Y-106717101D01*
X119765442Y-106717101D01*
X119761804Y-106717044D01*
X119758190Y-106717405D01*
X119758184Y-106717405D01*
X119514843Y-106741694D01*
X119416569Y-106751503D01*
X119077583Y-106825414D01*
X119074156Y-106826587D01*
X119074150Y-106826589D01*
X118844322Y-106905277D01*
X118749339Y-106937797D01*
X118436188Y-107087163D01*
X118433109Y-107089094D01*
X118433108Y-107089095D01*
X118399446Y-107110211D01*
X118142279Y-107271532D01*
X118139443Y-107273804D01*
X118139436Y-107273809D01*
X117895384Y-107469332D01*
X117871509Y-107488459D01*
X117810066Y-107550549D01*
X117645747Y-107716598D01*
X117627466Y-107735071D01*
X117625225Y-107737929D01*
X117454648Y-107955475D01*
X117413386Y-108008098D01*
X117411493Y-108011187D01*
X117411491Y-108011190D01*
X117365233Y-108086676D01*
X117232105Y-108303921D01*
X117230580Y-108307206D01*
X117230578Y-108307210D01*
X117119433Y-108546653D01*
X117086027Y-108618620D01*
X116977087Y-108948023D01*
X116906730Y-109287764D01*
X116875888Y-109633341D01*
X109168839Y-109633341D01*
X109019300Y-109483802D01*
X109014792Y-109480645D01*
X109014789Y-109480643D01*
X108936611Y-109425902D01*
X108831749Y-109352477D01*
X108826767Y-109350154D01*
X108826762Y-109350151D01*
X108792543Y-109334195D01*
X108739258Y-109287278D01*
X108719797Y-109219001D01*
X108740339Y-109151041D01*
X108792543Y-109105805D01*
X108826762Y-109089849D01*
X108826767Y-109089846D01*
X108831749Y-109087523D01*
X108936611Y-109014098D01*
X109014789Y-108959357D01*
X109014792Y-108959355D01*
X109019300Y-108956198D01*
X109181198Y-108794300D01*
X109312523Y-108606749D01*
X109314846Y-108601767D01*
X109314849Y-108601762D01*
X109406961Y-108404225D01*
X109406961Y-108404224D01*
X109409284Y-108399243D01*
X109433945Y-108307210D01*
X109467119Y-108183402D01*
X109467119Y-108183400D01*
X109468543Y-108178087D01*
X109488498Y-107950000D01*
X109468543Y-107721913D01*
X109409284Y-107500757D01*
X109404752Y-107491037D01*
X109314849Y-107298238D01*
X109314846Y-107298233D01*
X109312523Y-107293251D01*
X109181198Y-107105700D01*
X109019300Y-106943802D01*
X109014792Y-106940645D01*
X109014789Y-106940643D01*
X108964281Y-106905277D01*
X108919953Y-106849820D01*
X108912644Y-106779200D01*
X108944675Y-106715840D01*
X108998873Y-106681830D01*
X109061243Y-106662285D01*
X109074988Y-106656079D01*
X109208574Y-106575176D01*
X109220443Y-106565869D01*
X109330869Y-106455443D01*
X109340176Y-106443574D01*
X109421079Y-106309988D01*
X109427285Y-106296243D01*
X109474256Y-106146356D01*
X109476869Y-106133306D01*
X109482734Y-106069479D01*
X109483000Y-106063691D01*
X109483000Y-105682115D01*
X109478525Y-105666876D01*
X109477135Y-105665671D01*
X109469452Y-105664000D01*
X106885116Y-105664000D01*
X106869877Y-105668475D01*
X106868672Y-105669865D01*
X106867001Y-105677548D01*
X106867001Y-106063705D01*
X106867264Y-106069454D01*
X106873132Y-106133315D01*
X106875743Y-106146351D01*
X106922715Y-106296243D01*
X106928921Y-106309988D01*
X107009824Y-106443574D01*
X107019131Y-106455443D01*
X107129557Y-106565869D01*
X107141426Y-106575176D01*
X107275012Y-106656079D01*
X107288757Y-106662285D01*
X107351127Y-106681830D01*
X107410149Y-106721287D01*
X107438469Y-106786391D01*
X107427096Y-106856470D01*
X107385719Y-106905277D01*
X107335211Y-106940643D01*
X107335208Y-106940645D01*
X107330700Y-106943802D01*
X107168802Y-107105700D01*
X107037477Y-107293251D01*
X107035154Y-107298233D01*
X107035151Y-107298238D01*
X106945248Y-107491037D01*
X106940716Y-107500757D01*
X106881457Y-107721913D01*
X106861502Y-107950000D01*
X106881457Y-108178087D01*
X106882881Y-108183400D01*
X106882881Y-108183402D01*
X106916056Y-108307210D01*
X106940716Y-108399243D01*
X106943039Y-108404224D01*
X106943039Y-108404225D01*
X107035151Y-108601762D01*
X107035154Y-108601767D01*
X107037477Y-108606749D01*
X107168802Y-108794300D01*
X107330700Y-108956198D01*
X107335208Y-108959355D01*
X107335211Y-108959357D01*
X107413389Y-109014098D01*
X107518251Y-109087523D01*
X107523233Y-109089846D01*
X107523238Y-109089849D01*
X107557457Y-109105805D01*
X107610742Y-109152722D01*
X107630203Y-109220999D01*
X107609661Y-109288959D01*
X107557457Y-109334195D01*
X107523238Y-109350151D01*
X107523233Y-109350154D01*
X107518251Y-109352477D01*
X107413389Y-109425902D01*
X107335211Y-109480643D01*
X107335208Y-109480645D01*
X107330700Y-109483802D01*
X107168802Y-109645700D01*
X107165645Y-109650208D01*
X107165643Y-109650211D01*
X107058819Y-109802771D01*
X107003362Y-109847099D01*
X106955606Y-109856500D01*
X105488763Y-109856500D01*
X105477579Y-109855973D01*
X105470091Y-109854299D01*
X105462168Y-109854548D01*
X105402033Y-109856438D01*
X105398075Y-109856500D01*
X105370144Y-109856500D01*
X105366229Y-109856995D01*
X105366225Y-109856995D01*
X105366167Y-109857003D01*
X105366138Y-109857006D01*
X105354296Y-109857939D01*
X105310110Y-109859327D01*
X105292744Y-109864372D01*
X105290658Y-109864978D01*
X105271306Y-109868986D01*
X105259068Y-109870532D01*
X105259066Y-109870533D01*
X105251203Y-109871526D01*
X105210086Y-109887806D01*
X105198885Y-109891641D01*
X105156406Y-109903982D01*
X105149587Y-109908015D01*
X105149582Y-109908017D01*
X105138971Y-109914293D01*
X105121221Y-109922990D01*
X105102383Y-109930448D01*
X105095967Y-109935109D01*
X105095966Y-109935110D01*
X105066625Y-109956428D01*
X105056701Y-109962947D01*
X105025460Y-109981422D01*
X105025455Y-109981426D01*
X105018637Y-109985458D01*
X105004313Y-109999782D01*
X104989281Y-110012621D01*
X104972893Y-110024528D01*
X104944712Y-110058593D01*
X104936722Y-110067373D01*
X92911586Y-122092509D01*
X92849274Y-122126535D01*
X92778459Y-122121470D01*
X92721623Y-122078923D01*
X92696812Y-122012403D01*
X92696970Y-121992432D01*
X92702828Y-121925474D01*
X92703307Y-121920000D01*
X92684115Y-121700629D01*
X92627120Y-121487924D01*
X92554759Y-121332745D01*
X92536382Y-121293334D01*
X92536379Y-121293329D01*
X92534056Y-121288347D01*
X92523326Y-121273023D01*
X92410908Y-121112473D01*
X92410906Y-121112470D01*
X92407749Y-121107962D01*
X92252038Y-120952251D01*
X92071654Y-120825944D01*
X91872076Y-120732880D01*
X91659371Y-120675885D01*
X91440000Y-120656693D01*
X91220629Y-120675885D01*
X91007924Y-120732880D01*
X90914562Y-120776415D01*
X90813334Y-120823618D01*
X90813329Y-120823621D01*
X90808347Y-120825944D01*
X90803840Y-120829100D01*
X90803838Y-120829101D01*
X90632473Y-120949092D01*
X90632470Y-120949094D01*
X90627962Y-120952251D01*
X90472251Y-121107962D01*
X90469094Y-121112470D01*
X90469092Y-121112473D01*
X90387713Y-121228695D01*
X90332256Y-121273023D01*
X90261637Y-121280332D01*
X90198276Y-121248301D01*
X90162291Y-121187100D01*
X90158500Y-121156424D01*
X90158500Y-119851866D01*
X90151745Y-119789684D01*
X90100615Y-119653295D01*
X90013261Y-119536739D01*
X89896705Y-119449385D01*
X89760316Y-119398255D01*
X89704440Y-119392185D01*
X89701531Y-119391869D01*
X89698134Y-119391500D01*
X88589595Y-119391500D01*
X88521474Y-119371498D01*
X88500500Y-119354595D01*
X88300405Y-119154500D01*
X88266379Y-119092188D01*
X88263500Y-119065405D01*
X88263500Y-110490000D01*
X89081502Y-110490000D01*
X89101457Y-110718087D01*
X89160716Y-110939243D01*
X89163039Y-110944224D01*
X89163039Y-110944225D01*
X89255151Y-111141762D01*
X89255154Y-111141767D01*
X89257477Y-111146749D01*
X89321249Y-111237825D01*
X89359262Y-111292112D01*
X89388802Y-111334300D01*
X89550700Y-111496198D01*
X89555208Y-111499355D01*
X89555211Y-111499357D01*
X89587202Y-111521757D01*
X89738251Y-111627523D01*
X89743233Y-111629846D01*
X89743238Y-111629849D01*
X89940775Y-111721961D01*
X89945757Y-111724284D01*
X89951065Y-111725706D01*
X89951067Y-111725707D01*
X90161598Y-111782119D01*
X90161600Y-111782119D01*
X90166913Y-111783543D01*
X90395000Y-111803498D01*
X90623087Y-111783543D01*
X90628400Y-111782119D01*
X90628402Y-111782119D01*
X90838933Y-111725707D01*
X90838935Y-111725706D01*
X90844243Y-111724284D01*
X90849225Y-111721961D01*
X91046762Y-111629849D01*
X91046767Y-111629846D01*
X91051749Y-111627523D01*
X91202798Y-111521757D01*
X91234789Y-111499357D01*
X91234792Y-111499355D01*
X91239300Y-111496198D01*
X91401198Y-111334300D01*
X91430739Y-111292112D01*
X91468751Y-111237825D01*
X91532523Y-111146749D01*
X91534846Y-111141767D01*
X91534849Y-111141762D01*
X91626961Y-110944225D01*
X91626961Y-110944224D01*
X91629284Y-110939243D01*
X91688543Y-110718087D01*
X91708498Y-110490000D01*
X91688543Y-110261913D01*
X91629284Y-110040757D01*
X91619544Y-110019870D01*
X91534849Y-109838238D01*
X91534846Y-109838233D01*
X91532523Y-109833251D01*
X91401198Y-109645700D01*
X91239300Y-109483802D01*
X91234792Y-109480645D01*
X91234789Y-109480643D01*
X91156611Y-109425902D01*
X91051749Y-109352477D01*
X91046767Y-109350154D01*
X91046762Y-109350151D01*
X91012543Y-109334195D01*
X90959258Y-109287278D01*
X90939797Y-109219001D01*
X90960339Y-109151041D01*
X91012543Y-109105805D01*
X91046762Y-109089849D01*
X91046767Y-109089846D01*
X91051749Y-109087523D01*
X91156611Y-109014098D01*
X91234789Y-108959357D01*
X91234792Y-108959355D01*
X91239300Y-108956198D01*
X91401198Y-108794300D01*
X91532523Y-108606749D01*
X91534846Y-108601767D01*
X91534849Y-108601762D01*
X91626961Y-108404225D01*
X91626961Y-108404224D01*
X91629284Y-108399243D01*
X91653945Y-108307210D01*
X91687119Y-108183402D01*
X91687119Y-108183400D01*
X91688543Y-108178087D01*
X91708498Y-107950000D01*
X91688543Y-107721913D01*
X91629284Y-107500757D01*
X91624752Y-107491037D01*
X91534849Y-107298238D01*
X91534846Y-107298233D01*
X91532523Y-107293251D01*
X91401198Y-107105700D01*
X91239300Y-106943802D01*
X91234792Y-106940645D01*
X91234789Y-106940643D01*
X91184281Y-106905277D01*
X91139953Y-106849820D01*
X91132644Y-106779200D01*
X91164675Y-106715840D01*
X91218873Y-106681830D01*
X91281243Y-106662285D01*
X91294988Y-106656079D01*
X91428574Y-106575176D01*
X91440443Y-106565869D01*
X91550869Y-106455443D01*
X91560176Y-106443574D01*
X91641079Y-106309988D01*
X91647285Y-106296243D01*
X91694256Y-106146356D01*
X91696869Y-106133306D01*
X91702734Y-106069479D01*
X91703000Y-106063691D01*
X91703000Y-105682115D01*
X91698525Y-105666876D01*
X91697135Y-105665671D01*
X91689452Y-105664000D01*
X89105116Y-105664000D01*
X89089877Y-105668475D01*
X89088672Y-105669865D01*
X89087001Y-105677548D01*
X89087001Y-106063705D01*
X89087264Y-106069454D01*
X89093132Y-106133315D01*
X89095743Y-106146351D01*
X89142715Y-106296243D01*
X89148921Y-106309988D01*
X89229824Y-106443574D01*
X89239131Y-106455443D01*
X89349557Y-106565869D01*
X89361426Y-106575176D01*
X89495012Y-106656079D01*
X89508757Y-106662285D01*
X89571127Y-106681830D01*
X89630149Y-106721287D01*
X89658469Y-106786391D01*
X89647096Y-106856470D01*
X89605719Y-106905277D01*
X89555211Y-106940643D01*
X89555208Y-106940645D01*
X89550700Y-106943802D01*
X89388802Y-107105700D01*
X89257477Y-107293251D01*
X89255154Y-107298233D01*
X89255151Y-107298238D01*
X89165248Y-107491037D01*
X89160716Y-107500757D01*
X89101457Y-107721913D01*
X89081502Y-107950000D01*
X89101457Y-108178087D01*
X89102881Y-108183400D01*
X89102881Y-108183402D01*
X89136056Y-108307210D01*
X89160716Y-108399243D01*
X89163039Y-108404224D01*
X89163039Y-108404225D01*
X89255151Y-108601762D01*
X89255154Y-108601767D01*
X89257477Y-108606749D01*
X89388802Y-108794300D01*
X89550700Y-108956198D01*
X89555208Y-108959355D01*
X89555211Y-108959357D01*
X89633389Y-109014098D01*
X89738251Y-109087523D01*
X89743233Y-109089846D01*
X89743238Y-109089849D01*
X89777457Y-109105805D01*
X89830742Y-109152722D01*
X89850203Y-109220999D01*
X89829661Y-109288959D01*
X89777457Y-109334195D01*
X89743238Y-109350151D01*
X89743233Y-109350154D01*
X89738251Y-109352477D01*
X89633389Y-109425902D01*
X89555211Y-109480643D01*
X89555208Y-109480645D01*
X89550700Y-109483802D01*
X89388802Y-109645700D01*
X89257477Y-109833251D01*
X89255154Y-109838233D01*
X89255151Y-109838238D01*
X89170456Y-110019870D01*
X89160716Y-110040757D01*
X89101457Y-110261913D01*
X89081502Y-110490000D01*
X88263500Y-110490000D01*
X88263500Y-102870000D01*
X89081502Y-102870000D01*
X89101457Y-103098087D01*
X89160716Y-103319243D01*
X89163039Y-103324224D01*
X89163039Y-103324225D01*
X89255151Y-103521762D01*
X89255154Y-103521767D01*
X89257477Y-103526749D01*
X89388802Y-103714300D01*
X89550700Y-103876198D01*
X89555208Y-103879355D01*
X89555211Y-103879357D01*
X89605719Y-103914723D01*
X89650047Y-103970180D01*
X89657356Y-104040800D01*
X89625325Y-104104160D01*
X89571127Y-104138170D01*
X89508757Y-104157715D01*
X89495012Y-104163921D01*
X89361426Y-104244824D01*
X89349557Y-104254131D01*
X89239131Y-104364557D01*
X89229824Y-104376426D01*
X89148921Y-104510012D01*
X89142715Y-104523757D01*
X89095744Y-104673644D01*
X89093131Y-104686694D01*
X89087266Y-104750521D01*
X89087000Y-104756309D01*
X89087000Y-105137885D01*
X89091475Y-105153124D01*
X89092865Y-105154329D01*
X89100548Y-105156000D01*
X91684884Y-105156000D01*
X91700123Y-105151525D01*
X91701328Y-105150135D01*
X91702999Y-105142452D01*
X91702999Y-104756295D01*
X91702736Y-104750546D01*
X91696868Y-104686685D01*
X91694257Y-104673649D01*
X91647285Y-104523757D01*
X91641079Y-104510012D01*
X91560176Y-104376426D01*
X91550869Y-104364557D01*
X91440443Y-104254131D01*
X91428574Y-104244824D01*
X91294988Y-104163921D01*
X91281243Y-104157715D01*
X91218873Y-104138170D01*
X91159851Y-104098713D01*
X91131531Y-104033609D01*
X91142904Y-103963530D01*
X91184281Y-103914723D01*
X91234789Y-103879357D01*
X91234792Y-103879355D01*
X91239300Y-103876198D01*
X91401198Y-103714300D01*
X91532523Y-103526749D01*
X91534846Y-103521767D01*
X91534849Y-103521762D01*
X91626961Y-103324225D01*
X91626961Y-103324224D01*
X91629284Y-103319243D01*
X91688543Y-103098087D01*
X91708498Y-102870000D01*
X106861502Y-102870000D01*
X106881457Y-103098087D01*
X106940716Y-103319243D01*
X106943039Y-103324224D01*
X106943039Y-103324225D01*
X107035151Y-103521762D01*
X107035154Y-103521767D01*
X107037477Y-103526749D01*
X107168802Y-103714300D01*
X107330700Y-103876198D01*
X107335208Y-103879355D01*
X107335211Y-103879357D01*
X107385719Y-103914723D01*
X107430047Y-103970180D01*
X107437356Y-104040800D01*
X107405325Y-104104160D01*
X107351127Y-104138170D01*
X107288757Y-104157715D01*
X107275012Y-104163921D01*
X107141426Y-104244824D01*
X107129557Y-104254131D01*
X107019131Y-104364557D01*
X107009824Y-104376426D01*
X106928921Y-104510012D01*
X106922715Y-104523757D01*
X106875744Y-104673644D01*
X106873131Y-104686694D01*
X106867266Y-104750521D01*
X106867000Y-104756309D01*
X106867000Y-105137885D01*
X106871475Y-105153124D01*
X106872865Y-105154329D01*
X106880548Y-105156000D01*
X109464884Y-105156000D01*
X109480123Y-105151525D01*
X109481328Y-105150135D01*
X109482999Y-105142452D01*
X109482999Y-104756295D01*
X109482736Y-104750546D01*
X109476868Y-104686685D01*
X109474257Y-104673649D01*
X109427285Y-104523757D01*
X109421079Y-104510012D01*
X109340176Y-104376426D01*
X109330869Y-104364557D01*
X109220443Y-104254131D01*
X109208574Y-104244824D01*
X109074988Y-104163921D01*
X109061243Y-104157715D01*
X108998873Y-104138170D01*
X108939851Y-104098713D01*
X108911531Y-104033609D01*
X108922904Y-103963530D01*
X108964281Y-103914723D01*
X109014789Y-103879357D01*
X109014792Y-103879355D01*
X109019300Y-103876198D01*
X109181198Y-103714300D01*
X109312523Y-103526749D01*
X109314846Y-103521767D01*
X109314849Y-103521762D01*
X109406961Y-103324225D01*
X109406961Y-103324224D01*
X109409284Y-103319243D01*
X109468543Y-103098087D01*
X109488498Y-102870000D01*
X109468543Y-102641913D01*
X109409284Y-102420757D01*
X109406961Y-102415775D01*
X109314849Y-102218238D01*
X109314846Y-102218233D01*
X109312523Y-102213251D01*
X109181198Y-102025700D01*
X109019300Y-101863802D01*
X109014792Y-101860645D01*
X109014789Y-101860643D01*
X108936611Y-101805902D01*
X108831749Y-101732477D01*
X108826767Y-101730154D01*
X108826762Y-101730151D01*
X108792543Y-101714195D01*
X108739258Y-101667278D01*
X108719797Y-101599001D01*
X108740339Y-101531041D01*
X108792543Y-101485805D01*
X108826762Y-101469849D01*
X108826767Y-101469846D01*
X108831749Y-101467523D01*
X108936611Y-101394098D01*
X109014789Y-101339357D01*
X109014792Y-101339355D01*
X109019300Y-101336198D01*
X109181198Y-101174300D01*
X109312523Y-100986749D01*
X109314846Y-100981767D01*
X109314849Y-100981762D01*
X109406961Y-100784225D01*
X109406961Y-100784224D01*
X109409284Y-100779243D01*
X109468543Y-100558087D01*
X109488498Y-100330000D01*
X109468543Y-100101913D01*
X109409284Y-99880757D01*
X109406961Y-99875775D01*
X109314849Y-99678238D01*
X109314846Y-99678233D01*
X109312523Y-99673251D01*
X109181198Y-99485700D01*
X109019300Y-99323802D01*
X109014792Y-99320645D01*
X109014789Y-99320643D01*
X108936611Y-99265902D01*
X108831749Y-99192477D01*
X108826767Y-99190154D01*
X108826762Y-99190151D01*
X108792543Y-99174195D01*
X108739258Y-99127278D01*
X108719797Y-99059001D01*
X108740339Y-98991041D01*
X108792543Y-98945805D01*
X108826762Y-98929849D01*
X108826767Y-98929846D01*
X108831749Y-98927523D01*
X108936611Y-98854098D01*
X109014789Y-98799357D01*
X109014792Y-98799355D01*
X109019300Y-98796198D01*
X109181198Y-98634300D01*
X109312523Y-98446749D01*
X109314846Y-98441767D01*
X109314849Y-98441762D01*
X109406961Y-98244225D01*
X109406961Y-98244224D01*
X109409284Y-98239243D01*
X109468543Y-98018087D01*
X109488498Y-97790000D01*
X109468543Y-97561913D01*
X109409284Y-97340757D01*
X109406961Y-97335775D01*
X109314849Y-97138238D01*
X109314846Y-97138233D01*
X109312523Y-97133251D01*
X109181198Y-96945700D01*
X109019300Y-96783802D01*
X109014792Y-96780645D01*
X109014789Y-96780643D01*
X108936611Y-96725902D01*
X108831749Y-96652477D01*
X108826767Y-96650154D01*
X108826762Y-96650151D01*
X108792543Y-96634195D01*
X108739258Y-96587278D01*
X108719797Y-96519001D01*
X108740339Y-96451041D01*
X108792543Y-96405805D01*
X108826762Y-96389849D01*
X108826767Y-96389846D01*
X108831749Y-96387523D01*
X108936611Y-96314098D01*
X109014789Y-96259357D01*
X109014792Y-96259355D01*
X109019300Y-96256198D01*
X109181198Y-96094300D01*
X109312523Y-95906749D01*
X109314846Y-95901767D01*
X109314849Y-95901762D01*
X109406961Y-95704225D01*
X109406961Y-95704224D01*
X109409284Y-95699243D01*
X109468543Y-95478087D01*
X109488498Y-95250000D01*
X109468543Y-95021913D01*
X109409284Y-94800757D01*
X109406961Y-94795775D01*
X109314849Y-94598238D01*
X109314846Y-94598233D01*
X109312523Y-94593251D01*
X109181198Y-94405700D01*
X109019300Y-94243802D01*
X109014792Y-94240645D01*
X109014789Y-94240643D01*
X108964281Y-94205277D01*
X108919953Y-94149820D01*
X108912644Y-94079200D01*
X108944675Y-94015840D01*
X108998873Y-93981830D01*
X109061243Y-93962285D01*
X109074988Y-93956079D01*
X109208574Y-93875176D01*
X109220443Y-93865869D01*
X109330869Y-93755443D01*
X109340176Y-93743574D01*
X109421079Y-93609988D01*
X109427285Y-93596243D01*
X109474256Y-93446356D01*
X109476869Y-93433306D01*
X109482734Y-93369479D01*
X109483000Y-93363691D01*
X109483000Y-92982115D01*
X109478525Y-92966876D01*
X109477135Y-92965671D01*
X109469452Y-92964000D01*
X106885116Y-92964000D01*
X106869877Y-92968475D01*
X106868672Y-92969865D01*
X106867001Y-92977548D01*
X106867001Y-93363705D01*
X106867264Y-93369454D01*
X106873132Y-93433315D01*
X106875743Y-93446351D01*
X106922715Y-93596243D01*
X106928921Y-93609988D01*
X107009824Y-93743574D01*
X107019131Y-93755443D01*
X107129557Y-93865869D01*
X107141426Y-93875176D01*
X107275012Y-93956079D01*
X107288757Y-93962285D01*
X107351127Y-93981830D01*
X107410149Y-94021287D01*
X107438469Y-94086391D01*
X107427096Y-94156470D01*
X107385719Y-94205277D01*
X107335211Y-94240643D01*
X107335208Y-94240645D01*
X107330700Y-94243802D01*
X107168802Y-94405700D01*
X107037477Y-94593251D01*
X107035154Y-94598233D01*
X107035151Y-94598238D01*
X106943039Y-94795775D01*
X106940716Y-94800757D01*
X106881457Y-95021913D01*
X106861502Y-95250000D01*
X106881457Y-95478087D01*
X106940716Y-95699243D01*
X106943039Y-95704224D01*
X106943039Y-95704225D01*
X107035151Y-95901762D01*
X107035154Y-95901767D01*
X107037477Y-95906749D01*
X107168802Y-96094300D01*
X107330700Y-96256198D01*
X107335208Y-96259355D01*
X107335211Y-96259357D01*
X107413389Y-96314098D01*
X107518251Y-96387523D01*
X107523233Y-96389846D01*
X107523238Y-96389849D01*
X107557457Y-96405805D01*
X107610742Y-96452722D01*
X107630203Y-96520999D01*
X107609661Y-96588959D01*
X107557457Y-96634195D01*
X107523238Y-96650151D01*
X107523233Y-96650154D01*
X107518251Y-96652477D01*
X107413389Y-96725902D01*
X107335211Y-96780643D01*
X107335208Y-96780645D01*
X107330700Y-96783802D01*
X107168802Y-96945700D01*
X107037477Y-97133251D01*
X107035154Y-97138233D01*
X107035151Y-97138238D01*
X106943039Y-97335775D01*
X106940716Y-97340757D01*
X106881457Y-97561913D01*
X106861502Y-97790000D01*
X106881457Y-98018087D01*
X106940716Y-98239243D01*
X106943039Y-98244224D01*
X106943039Y-98244225D01*
X107035151Y-98441762D01*
X107035154Y-98441767D01*
X107037477Y-98446749D01*
X107168802Y-98634300D01*
X107330700Y-98796198D01*
X107335208Y-98799355D01*
X107335211Y-98799357D01*
X107413389Y-98854098D01*
X107518251Y-98927523D01*
X107523233Y-98929846D01*
X107523238Y-98929849D01*
X107557457Y-98945805D01*
X107610742Y-98992722D01*
X107630203Y-99060999D01*
X107609661Y-99128959D01*
X107557457Y-99174195D01*
X107523238Y-99190151D01*
X107523233Y-99190154D01*
X107518251Y-99192477D01*
X107413389Y-99265902D01*
X107335211Y-99320643D01*
X107335208Y-99320645D01*
X107330700Y-99323802D01*
X107168802Y-99485700D01*
X107037477Y-99673251D01*
X107035154Y-99678233D01*
X107035151Y-99678238D01*
X106943039Y-99875775D01*
X106940716Y-99880757D01*
X106881457Y-100101913D01*
X106861502Y-100330000D01*
X106881457Y-100558087D01*
X106940716Y-100779243D01*
X106943039Y-100784224D01*
X106943039Y-100784225D01*
X107035151Y-100981762D01*
X107035154Y-100981767D01*
X107037477Y-100986749D01*
X107168802Y-101174300D01*
X107330700Y-101336198D01*
X107335208Y-101339355D01*
X107335211Y-101339357D01*
X107413389Y-101394098D01*
X107518251Y-101467523D01*
X107523233Y-101469846D01*
X107523238Y-101469849D01*
X107557457Y-101485805D01*
X107610742Y-101532722D01*
X107630203Y-101600999D01*
X107609661Y-101668959D01*
X107557457Y-101714195D01*
X107523238Y-101730151D01*
X107523233Y-101730154D01*
X107518251Y-101732477D01*
X107413389Y-101805902D01*
X107335211Y-101860643D01*
X107335208Y-101860645D01*
X107330700Y-101863802D01*
X107168802Y-102025700D01*
X107037477Y-102213251D01*
X107035154Y-102218233D01*
X107035151Y-102218238D01*
X106943039Y-102415775D01*
X106940716Y-102420757D01*
X106881457Y-102641913D01*
X106861502Y-102870000D01*
X91708498Y-102870000D01*
X91688543Y-102641913D01*
X91629284Y-102420757D01*
X91626961Y-102415775D01*
X91534849Y-102218238D01*
X91534846Y-102218233D01*
X91532523Y-102213251D01*
X91401198Y-102025700D01*
X91239300Y-101863802D01*
X91234792Y-101860645D01*
X91234789Y-101860643D01*
X91156611Y-101805902D01*
X91051749Y-101732477D01*
X91046765Y-101730153D01*
X91046760Y-101730150D01*
X91033486Y-101723961D01*
X90980200Y-101677045D01*
X90960737Y-101608769D01*
X90981277Y-101540808D01*
X91033483Y-101495570D01*
X91088643Y-101469849D01*
X91088648Y-101469846D01*
X91093630Y-101467523D01*
X91198492Y-101394098D01*
X91276670Y-101339357D01*
X91276673Y-101339355D01*
X91281181Y-101336198D01*
X91443079Y-101174300D01*
X91574404Y-100986749D01*
X91576727Y-100981767D01*
X91576730Y-100981762D01*
X91668842Y-100784225D01*
X91668842Y-100784224D01*
X91671165Y-100779243D01*
X91730424Y-100558087D01*
X91750379Y-100330000D01*
X91730424Y-100101913D01*
X91671165Y-99880757D01*
X91668842Y-99875775D01*
X91576730Y-99678238D01*
X91576727Y-99678233D01*
X91574404Y-99673251D01*
X91443079Y-99485700D01*
X91281181Y-99323802D01*
X91276673Y-99320645D01*
X91276670Y-99320643D01*
X91198492Y-99265902D01*
X91093630Y-99192477D01*
X91088648Y-99190154D01*
X91088643Y-99190151D01*
X91033483Y-99164430D01*
X90980198Y-99117513D01*
X90960737Y-99049235D01*
X90981279Y-98981276D01*
X91033486Y-98936039D01*
X91046760Y-98929850D01*
X91046765Y-98929847D01*
X91051749Y-98927523D01*
X91156611Y-98854098D01*
X91234789Y-98799357D01*
X91234792Y-98799355D01*
X91239300Y-98796198D01*
X91401198Y-98634300D01*
X91532523Y-98446749D01*
X91534846Y-98441767D01*
X91534849Y-98441762D01*
X91626961Y-98244225D01*
X91626961Y-98244224D01*
X91629284Y-98239243D01*
X91688543Y-98018087D01*
X91708498Y-97790000D01*
X91688543Y-97561913D01*
X91629284Y-97340757D01*
X91626961Y-97335775D01*
X91534849Y-97138238D01*
X91534846Y-97138233D01*
X91532523Y-97133251D01*
X91401198Y-96945700D01*
X91239300Y-96783802D01*
X91234792Y-96780645D01*
X91234789Y-96780643D01*
X91156611Y-96725902D01*
X91051749Y-96652477D01*
X91046767Y-96650154D01*
X91046762Y-96650151D01*
X91012543Y-96634195D01*
X90959258Y-96587278D01*
X90939797Y-96519001D01*
X90960339Y-96451041D01*
X91012543Y-96405805D01*
X91046762Y-96389849D01*
X91046767Y-96389846D01*
X91051749Y-96387523D01*
X91156611Y-96314098D01*
X91234789Y-96259357D01*
X91234792Y-96259355D01*
X91239300Y-96256198D01*
X91401198Y-96094300D01*
X91532523Y-95906749D01*
X91534846Y-95901767D01*
X91534849Y-95901762D01*
X91626961Y-95704225D01*
X91626961Y-95704224D01*
X91629284Y-95699243D01*
X91688543Y-95478087D01*
X91708498Y-95250000D01*
X91688543Y-95021913D01*
X91629284Y-94800757D01*
X91626961Y-94795775D01*
X91534849Y-94598238D01*
X91534846Y-94598233D01*
X91532523Y-94593251D01*
X91401198Y-94405700D01*
X91239300Y-94243802D01*
X91234792Y-94240645D01*
X91234789Y-94240643D01*
X91184281Y-94205277D01*
X91139953Y-94149820D01*
X91132644Y-94079200D01*
X91164675Y-94015840D01*
X91218873Y-93981830D01*
X91281243Y-93962285D01*
X91294988Y-93956079D01*
X91428574Y-93875176D01*
X91440443Y-93865869D01*
X91550869Y-93755443D01*
X91560176Y-93743574D01*
X91641079Y-93609988D01*
X91647285Y-93596243D01*
X91694256Y-93446356D01*
X91696869Y-93433306D01*
X91702734Y-93369479D01*
X91703000Y-93363691D01*
X91703000Y-92982115D01*
X91698525Y-92966876D01*
X91697135Y-92965671D01*
X91689452Y-92964000D01*
X89105116Y-92964000D01*
X89089877Y-92968475D01*
X89088672Y-92969865D01*
X89087001Y-92977548D01*
X89087001Y-93363705D01*
X89087264Y-93369454D01*
X89093132Y-93433315D01*
X89095743Y-93446351D01*
X89142715Y-93596243D01*
X89148921Y-93609988D01*
X89229824Y-93743574D01*
X89239131Y-93755443D01*
X89349557Y-93865869D01*
X89361426Y-93875176D01*
X89495012Y-93956079D01*
X89508757Y-93962285D01*
X89571127Y-93981830D01*
X89630149Y-94021287D01*
X89658469Y-94086391D01*
X89647096Y-94156470D01*
X89605719Y-94205277D01*
X89555211Y-94240643D01*
X89555208Y-94240645D01*
X89550700Y-94243802D01*
X89388802Y-94405700D01*
X89257477Y-94593251D01*
X89255154Y-94598233D01*
X89255151Y-94598238D01*
X89163039Y-94795775D01*
X89160716Y-94800757D01*
X89101457Y-95021913D01*
X89081502Y-95250000D01*
X89101457Y-95478087D01*
X89160716Y-95699243D01*
X89163039Y-95704224D01*
X89163039Y-95704225D01*
X89255151Y-95901762D01*
X89255154Y-95901767D01*
X89257477Y-95906749D01*
X89388802Y-96094300D01*
X89550700Y-96256198D01*
X89555208Y-96259355D01*
X89555211Y-96259357D01*
X89633389Y-96314098D01*
X89738251Y-96387523D01*
X89743233Y-96389846D01*
X89743238Y-96389849D01*
X89777457Y-96405805D01*
X89830742Y-96452722D01*
X89850203Y-96520999D01*
X89829661Y-96588959D01*
X89777457Y-96634195D01*
X89743238Y-96650151D01*
X89743233Y-96650154D01*
X89738251Y-96652477D01*
X89633389Y-96725902D01*
X89555211Y-96780643D01*
X89555208Y-96780645D01*
X89550700Y-96783802D01*
X89388802Y-96945700D01*
X89257477Y-97133251D01*
X89255154Y-97138233D01*
X89255151Y-97138238D01*
X89163039Y-97335775D01*
X89160716Y-97340757D01*
X89101457Y-97561913D01*
X89081502Y-97790000D01*
X89101457Y-98018087D01*
X89160716Y-98239243D01*
X89163039Y-98244224D01*
X89163039Y-98244225D01*
X89255151Y-98441762D01*
X89255154Y-98441767D01*
X89257477Y-98446749D01*
X89388802Y-98634300D01*
X89550700Y-98796198D01*
X89555208Y-98799355D01*
X89555211Y-98799357D01*
X89633389Y-98854098D01*
X89738251Y-98927523D01*
X89743233Y-98929846D01*
X89743238Y-98929849D01*
X89798398Y-98955570D01*
X89851683Y-99002487D01*
X89871144Y-99070765D01*
X89850602Y-99138724D01*
X89798395Y-99183961D01*
X89785121Y-99190150D01*
X89785116Y-99190153D01*
X89780132Y-99192477D01*
X89675270Y-99265902D01*
X89597092Y-99320643D01*
X89597089Y-99320645D01*
X89592581Y-99323802D01*
X89430683Y-99485700D01*
X89299358Y-99673251D01*
X89297035Y-99678233D01*
X89297032Y-99678238D01*
X89204920Y-99875775D01*
X89202597Y-99880757D01*
X89143338Y-100101913D01*
X89123383Y-100330000D01*
X89143338Y-100558087D01*
X89202597Y-100779243D01*
X89204920Y-100784224D01*
X89204920Y-100784225D01*
X89297032Y-100981762D01*
X89297035Y-100981767D01*
X89299358Y-100986749D01*
X89430683Y-101174300D01*
X89592581Y-101336198D01*
X89597089Y-101339355D01*
X89597092Y-101339357D01*
X89675270Y-101394098D01*
X89780132Y-101467523D01*
X89785116Y-101469847D01*
X89785121Y-101469850D01*
X89798395Y-101476039D01*
X89851681Y-101522955D01*
X89871144Y-101591231D01*
X89850604Y-101659192D01*
X89798398Y-101704430D01*
X89743238Y-101730151D01*
X89743233Y-101730154D01*
X89738251Y-101732477D01*
X89633389Y-101805902D01*
X89555211Y-101860643D01*
X89555208Y-101860645D01*
X89550700Y-101863802D01*
X89388802Y-102025700D01*
X89257477Y-102213251D01*
X89255154Y-102218233D01*
X89255151Y-102218238D01*
X89163039Y-102415775D01*
X89160716Y-102420757D01*
X89101457Y-102641913D01*
X89081502Y-102870000D01*
X88263500Y-102870000D01*
X88263500Y-91754594D01*
X88283502Y-91686473D01*
X88300405Y-91665499D01*
X89102568Y-90863336D01*
X89164880Y-90829310D01*
X89235695Y-90834375D01*
X89294876Y-90880160D01*
X89388802Y-91014300D01*
X89550700Y-91176198D01*
X89555208Y-91179355D01*
X89555211Y-91179357D01*
X89605719Y-91214723D01*
X89650047Y-91270180D01*
X89657356Y-91340800D01*
X89625325Y-91404160D01*
X89571127Y-91438170D01*
X89508757Y-91457715D01*
X89495012Y-91463921D01*
X89361426Y-91544824D01*
X89349557Y-91554131D01*
X89239131Y-91664557D01*
X89229824Y-91676426D01*
X89148921Y-91810012D01*
X89142715Y-91823757D01*
X89095744Y-91973644D01*
X89093131Y-91986694D01*
X89087266Y-92050521D01*
X89087000Y-92056309D01*
X89087000Y-92437885D01*
X89091475Y-92453124D01*
X89092865Y-92454329D01*
X89100548Y-92456000D01*
X91684884Y-92456000D01*
X91700123Y-92451525D01*
X91701328Y-92450135D01*
X91702999Y-92442452D01*
X91702999Y-92056295D01*
X91702736Y-92050546D01*
X91696868Y-91986685D01*
X91694257Y-91973649D01*
X91647285Y-91823757D01*
X91641079Y-91810012D01*
X91560176Y-91676426D01*
X91550869Y-91664557D01*
X91440443Y-91554131D01*
X91428574Y-91544824D01*
X91294988Y-91463921D01*
X91281243Y-91457715D01*
X91218873Y-91438170D01*
X91159851Y-91398713D01*
X91131531Y-91333609D01*
X91142904Y-91263530D01*
X91184281Y-91214723D01*
X91234789Y-91179357D01*
X91234792Y-91179355D01*
X91239300Y-91176198D01*
X91401198Y-91014300D01*
X91532523Y-90826749D01*
X91534846Y-90821767D01*
X91534849Y-90821762D01*
X91626961Y-90624225D01*
X91626961Y-90624224D01*
X91629284Y-90619243D01*
X91665364Y-90484594D01*
X91687119Y-90403402D01*
X91687119Y-90403400D01*
X91688543Y-90398087D01*
X91708498Y-90170000D01*
X106861502Y-90170000D01*
X106881457Y-90398087D01*
X106882881Y-90403400D01*
X106882881Y-90403402D01*
X106904637Y-90484594D01*
X106940716Y-90619243D01*
X106943039Y-90624224D01*
X106943039Y-90624225D01*
X107035151Y-90821762D01*
X107035154Y-90821767D01*
X107037477Y-90826749D01*
X107168802Y-91014300D01*
X107330700Y-91176198D01*
X107335208Y-91179355D01*
X107335211Y-91179357D01*
X107385719Y-91214723D01*
X107430047Y-91270180D01*
X107437356Y-91340800D01*
X107405325Y-91404160D01*
X107351127Y-91438170D01*
X107288757Y-91457715D01*
X107275012Y-91463921D01*
X107141426Y-91544824D01*
X107129557Y-91554131D01*
X107019131Y-91664557D01*
X107009824Y-91676426D01*
X106928921Y-91810012D01*
X106922715Y-91823757D01*
X106875744Y-91973644D01*
X106873131Y-91986694D01*
X106867266Y-92050521D01*
X106867000Y-92056309D01*
X106867000Y-92437885D01*
X106871475Y-92453124D01*
X106872865Y-92454329D01*
X106880548Y-92456000D01*
X109464884Y-92456000D01*
X109480123Y-92451525D01*
X109481328Y-92450135D01*
X109482999Y-92442452D01*
X109482999Y-92056295D01*
X109482736Y-92050546D01*
X109476868Y-91986685D01*
X109474257Y-91973649D01*
X109427285Y-91823757D01*
X109421079Y-91810012D01*
X109340176Y-91676426D01*
X109330869Y-91664557D01*
X109220443Y-91554131D01*
X109208574Y-91544824D01*
X109074988Y-91463921D01*
X109061243Y-91457715D01*
X108998873Y-91438170D01*
X108939851Y-91398713D01*
X108911531Y-91333609D01*
X108922904Y-91263530D01*
X108964281Y-91214723D01*
X109014789Y-91179357D01*
X109014792Y-91179355D01*
X109019300Y-91176198D01*
X109181198Y-91014300D01*
X109312523Y-90826749D01*
X109314846Y-90821767D01*
X109314849Y-90821762D01*
X109406961Y-90624225D01*
X109406961Y-90624224D01*
X109409284Y-90619243D01*
X109445364Y-90484594D01*
X109467119Y-90403402D01*
X109467119Y-90403400D01*
X109468543Y-90398087D01*
X109488498Y-90170000D01*
X109468543Y-89941913D01*
X109433849Y-89812434D01*
X109410707Y-89726067D01*
X109410706Y-89726065D01*
X109409284Y-89720757D01*
X109399544Y-89699870D01*
X109314849Y-89518238D01*
X109314846Y-89518233D01*
X109312523Y-89513251D01*
X109181198Y-89325700D01*
X109019300Y-89163802D01*
X109014792Y-89160645D01*
X109014789Y-89160643D01*
X108936611Y-89105902D01*
X108831749Y-89032477D01*
X108826767Y-89030154D01*
X108826762Y-89030151D01*
X108792543Y-89014195D01*
X108739258Y-88967278D01*
X108719797Y-88899001D01*
X108740339Y-88831041D01*
X108792543Y-88785805D01*
X108826762Y-88769849D01*
X108826767Y-88769846D01*
X108831749Y-88767523D01*
X108936611Y-88694098D01*
X109014789Y-88639357D01*
X109014792Y-88639355D01*
X109019300Y-88636198D01*
X109181198Y-88474300D01*
X109312523Y-88286749D01*
X109314846Y-88281767D01*
X109314849Y-88281762D01*
X109406961Y-88084225D01*
X109406961Y-88084224D01*
X109409284Y-88079243D01*
X109468543Y-87858087D01*
X109488498Y-87630000D01*
X109468543Y-87401913D01*
X109409284Y-87180757D01*
X109399544Y-87159870D01*
X109314849Y-86978238D01*
X109314846Y-86978233D01*
X109312523Y-86973251D01*
X109181198Y-86785700D01*
X109019300Y-86623802D01*
X109014792Y-86620645D01*
X109014789Y-86620643D01*
X108936611Y-86565902D01*
X108831749Y-86492477D01*
X108826767Y-86490154D01*
X108826762Y-86490151D01*
X108792543Y-86474195D01*
X108739258Y-86427278D01*
X108719797Y-86359001D01*
X108740339Y-86291041D01*
X108792543Y-86245805D01*
X108826762Y-86229849D01*
X108826767Y-86229846D01*
X108831749Y-86227523D01*
X108936611Y-86154098D01*
X109014789Y-86099357D01*
X109014792Y-86099355D01*
X109019300Y-86096198D01*
X109181198Y-85934300D01*
X109312523Y-85746749D01*
X109314846Y-85741767D01*
X109314849Y-85741762D01*
X109406961Y-85544225D01*
X109406961Y-85544224D01*
X109409284Y-85539243D01*
X109468543Y-85318087D01*
X109488498Y-85090000D01*
X109468543Y-84861913D01*
X109409284Y-84640757D01*
X109406961Y-84635775D01*
X109314849Y-84438238D01*
X109314846Y-84438233D01*
X109312523Y-84433251D01*
X109181198Y-84245700D01*
X109019300Y-84083802D01*
X109014792Y-84080645D01*
X109014789Y-84080643D01*
X108936611Y-84025902D01*
X108831749Y-83952477D01*
X108826767Y-83950154D01*
X108826762Y-83950151D01*
X108792543Y-83934195D01*
X108739258Y-83887278D01*
X108719797Y-83819001D01*
X108740339Y-83751041D01*
X108792543Y-83705805D01*
X108826762Y-83689849D01*
X108826767Y-83689846D01*
X108831749Y-83687523D01*
X108936611Y-83614098D01*
X109014789Y-83559357D01*
X109014792Y-83559355D01*
X109019300Y-83556198D01*
X109181198Y-83394300D01*
X109312523Y-83206749D01*
X109314846Y-83201767D01*
X109314849Y-83201762D01*
X109406961Y-83004225D01*
X109406961Y-83004224D01*
X109409284Y-82999243D01*
X109468543Y-82778087D01*
X109488498Y-82550000D01*
X109468543Y-82321913D01*
X109409284Y-82100757D01*
X109406961Y-82095775D01*
X109314849Y-81898238D01*
X109314846Y-81898233D01*
X109312523Y-81893251D01*
X109181198Y-81705700D01*
X109019300Y-81543802D01*
X109014792Y-81540645D01*
X109014789Y-81540643D01*
X108964798Y-81505639D01*
X108920470Y-81450182D01*
X108913161Y-81379562D01*
X108945192Y-81316202D01*
X108999389Y-81282192D01*
X109027512Y-81273379D01*
X109061450Y-81262744D01*
X109061452Y-81262743D01*
X109068699Y-81260472D01*
X109215381Y-81171639D01*
X109336639Y-81050381D01*
X109425472Y-80903699D01*
X109476753Y-80740062D01*
X109483500Y-80666635D01*
X109483499Y-79353366D01*
X109483234Y-79350474D01*
X109479974Y-79314996D01*
X109476753Y-79279938D01*
X109425472Y-79116301D01*
X109336639Y-78969619D01*
X109215381Y-78848361D01*
X109068699Y-78759528D01*
X109061452Y-78757257D01*
X109061450Y-78757256D01*
X109027512Y-78746621D01*
X108999389Y-78737808D01*
X108940368Y-78698351D01*
X108912048Y-78633247D01*
X108923421Y-78563167D01*
X108964798Y-78514361D01*
X109014789Y-78479357D01*
X109014792Y-78479355D01*
X109019300Y-78476198D01*
X109181198Y-78314300D01*
X109312523Y-78126749D01*
X109314846Y-78121767D01*
X109314849Y-78121762D01*
X109406961Y-77924225D01*
X109406961Y-77924224D01*
X109409284Y-77919243D01*
X109468543Y-77698087D01*
X109488498Y-77470000D01*
X109468543Y-77241913D01*
X109409284Y-77020757D01*
X109406961Y-77015775D01*
X109314849Y-76818238D01*
X109314846Y-76818233D01*
X109312523Y-76813251D01*
X109181198Y-76625700D01*
X109019300Y-76463802D01*
X109014792Y-76460645D01*
X109014789Y-76460643D01*
X108936611Y-76405902D01*
X108831749Y-76332477D01*
X108826767Y-76330154D01*
X108826762Y-76330151D01*
X108792543Y-76314195D01*
X108739258Y-76267278D01*
X108719797Y-76199001D01*
X108740339Y-76131041D01*
X108792543Y-76085805D01*
X108826762Y-76069849D01*
X108826767Y-76069846D01*
X108831749Y-76067523D01*
X108936611Y-75994098D01*
X109014789Y-75939357D01*
X109014792Y-75939355D01*
X109019300Y-75936198D01*
X109181198Y-75774300D01*
X109312523Y-75586749D01*
X109314846Y-75581767D01*
X109314849Y-75581762D01*
X109406961Y-75384225D01*
X109406961Y-75384224D01*
X109409284Y-75379243D01*
X109468543Y-75158087D01*
X109488498Y-74930000D01*
X109468543Y-74701913D01*
X109409284Y-74480757D01*
X109406961Y-74475775D01*
X109314849Y-74278238D01*
X109314846Y-74278233D01*
X109312523Y-74273251D01*
X109181198Y-74085700D01*
X109019300Y-73923802D01*
X109014792Y-73920645D01*
X109014789Y-73920643D01*
X108936611Y-73865902D01*
X108831749Y-73792477D01*
X108826767Y-73790154D01*
X108826762Y-73790151D01*
X108792543Y-73774195D01*
X108739258Y-73727278D01*
X108719797Y-73659001D01*
X108740339Y-73591041D01*
X108792543Y-73545805D01*
X108826762Y-73529849D01*
X108826767Y-73529846D01*
X108831749Y-73527523D01*
X108936611Y-73454098D01*
X109014789Y-73399357D01*
X109014792Y-73399355D01*
X109019300Y-73396198D01*
X109181198Y-73234300D01*
X109312523Y-73046749D01*
X109314846Y-73041767D01*
X109314849Y-73041762D01*
X109406961Y-72844225D01*
X109406961Y-72844224D01*
X109409284Y-72839243D01*
X109468543Y-72618087D01*
X109488498Y-72390000D01*
X109468543Y-72161913D01*
X109409284Y-71940757D01*
X109406961Y-71935775D01*
X109314849Y-71738238D01*
X109314846Y-71738233D01*
X109312523Y-71733251D01*
X109181198Y-71545700D01*
X109019300Y-71383802D01*
X109014792Y-71380645D01*
X109014789Y-71380643D01*
X108936611Y-71325902D01*
X108831749Y-71252477D01*
X108826767Y-71250154D01*
X108826762Y-71250151D01*
X108792543Y-71234195D01*
X108739258Y-71187278D01*
X108719797Y-71119001D01*
X108740339Y-71051041D01*
X108792543Y-71005805D01*
X108826762Y-70989849D01*
X108826767Y-70989846D01*
X108831749Y-70987523D01*
X108936611Y-70914098D01*
X109014789Y-70859357D01*
X109014792Y-70859355D01*
X109019300Y-70856198D01*
X109181198Y-70694300D01*
X109312523Y-70506749D01*
X109314846Y-70501767D01*
X109314849Y-70501762D01*
X109406961Y-70304225D01*
X109406961Y-70304224D01*
X109409284Y-70299243D01*
X109468543Y-70078087D01*
X109488498Y-69850000D01*
X109468543Y-69621913D01*
X109409284Y-69400757D01*
X109406961Y-69395775D01*
X109314849Y-69198238D01*
X109314846Y-69198233D01*
X109312523Y-69193251D01*
X109181198Y-69005700D01*
X109019300Y-68843802D01*
X109014792Y-68840645D01*
X109014789Y-68840643D01*
X108964281Y-68805277D01*
X108919953Y-68749820D01*
X108912644Y-68679200D01*
X108944675Y-68615840D01*
X108998873Y-68581830D01*
X109061243Y-68562285D01*
X109074988Y-68556079D01*
X109208574Y-68475176D01*
X109220443Y-68465869D01*
X109330869Y-68355443D01*
X109340176Y-68343574D01*
X109421079Y-68209988D01*
X109427285Y-68196243D01*
X109474256Y-68046356D01*
X109476869Y-68033306D01*
X109482734Y-67969479D01*
X109483000Y-67963691D01*
X109483000Y-67582115D01*
X109478525Y-67566876D01*
X109477135Y-67565671D01*
X109469452Y-67564000D01*
X106885116Y-67564000D01*
X106869877Y-67568475D01*
X106868672Y-67569865D01*
X106867001Y-67577548D01*
X106867001Y-67963705D01*
X106867264Y-67969454D01*
X106873132Y-68033315D01*
X106875743Y-68046351D01*
X106922715Y-68196243D01*
X106928921Y-68209988D01*
X107009824Y-68343574D01*
X107019131Y-68355443D01*
X107129557Y-68465869D01*
X107141426Y-68475176D01*
X107275012Y-68556079D01*
X107288757Y-68562285D01*
X107351127Y-68581830D01*
X107410149Y-68621287D01*
X107438469Y-68686391D01*
X107427096Y-68756470D01*
X107385719Y-68805277D01*
X107335211Y-68840643D01*
X107335208Y-68840645D01*
X107330700Y-68843802D01*
X107168802Y-69005700D01*
X107037477Y-69193251D01*
X107035154Y-69198233D01*
X107035151Y-69198238D01*
X106943039Y-69395775D01*
X106940716Y-69400757D01*
X106881457Y-69621913D01*
X106861502Y-69850000D01*
X106881457Y-70078087D01*
X106940716Y-70299243D01*
X106943039Y-70304224D01*
X106943039Y-70304225D01*
X107035151Y-70501762D01*
X107035154Y-70501767D01*
X107037477Y-70506749D01*
X107168802Y-70694300D01*
X107330700Y-70856198D01*
X107335208Y-70859355D01*
X107335211Y-70859357D01*
X107413389Y-70914098D01*
X107518251Y-70987523D01*
X107523233Y-70989846D01*
X107523238Y-70989849D01*
X107557457Y-71005805D01*
X107610742Y-71052722D01*
X107630203Y-71120999D01*
X107609661Y-71188959D01*
X107557457Y-71234195D01*
X107523238Y-71250151D01*
X107523233Y-71250154D01*
X107518251Y-71252477D01*
X107413389Y-71325902D01*
X107335211Y-71380643D01*
X107335208Y-71380645D01*
X107330700Y-71383802D01*
X107168802Y-71545700D01*
X107037477Y-71733251D01*
X107035154Y-71738233D01*
X107035151Y-71738238D01*
X106943039Y-71935775D01*
X106940716Y-71940757D01*
X106881457Y-72161913D01*
X106861502Y-72390000D01*
X106881457Y-72618087D01*
X106940716Y-72839243D01*
X106943039Y-72844224D01*
X106943039Y-72844225D01*
X107035151Y-73041762D01*
X107035154Y-73041767D01*
X107037477Y-73046749D01*
X107168802Y-73234300D01*
X107330700Y-73396198D01*
X107335208Y-73399355D01*
X107335211Y-73399357D01*
X107413389Y-73454098D01*
X107518251Y-73527523D01*
X107523233Y-73529846D01*
X107523238Y-73529849D01*
X107557457Y-73545805D01*
X107610742Y-73592722D01*
X107630203Y-73660999D01*
X107609661Y-73728959D01*
X107557457Y-73774195D01*
X107523238Y-73790151D01*
X107523233Y-73790154D01*
X107518251Y-73792477D01*
X107413389Y-73865902D01*
X107335211Y-73920643D01*
X107335208Y-73920645D01*
X107330700Y-73923802D01*
X107168802Y-74085700D01*
X107037477Y-74273251D01*
X107035154Y-74278233D01*
X107035151Y-74278238D01*
X106943039Y-74475775D01*
X106940716Y-74480757D01*
X106881457Y-74701913D01*
X106861502Y-74930000D01*
X106881457Y-75158087D01*
X106940716Y-75379243D01*
X106943039Y-75384224D01*
X106943039Y-75384225D01*
X107035151Y-75581762D01*
X107035154Y-75581767D01*
X107037477Y-75586749D01*
X107168802Y-75774300D01*
X107330700Y-75936198D01*
X107335208Y-75939355D01*
X107335211Y-75939357D01*
X107413389Y-75994098D01*
X107518251Y-76067523D01*
X107523233Y-76069846D01*
X107523238Y-76069849D01*
X107557457Y-76085805D01*
X107610742Y-76132722D01*
X107630203Y-76200999D01*
X107609661Y-76268959D01*
X107557457Y-76314195D01*
X107523238Y-76330151D01*
X107523233Y-76330154D01*
X107518251Y-76332477D01*
X107413389Y-76405902D01*
X107335211Y-76460643D01*
X107335208Y-76460645D01*
X107330700Y-76463802D01*
X107168802Y-76625700D01*
X107037477Y-76813251D01*
X107035154Y-76818233D01*
X107035151Y-76818238D01*
X106943039Y-77015775D01*
X106940716Y-77020757D01*
X106881457Y-77241913D01*
X106861502Y-77470000D01*
X106881457Y-77698087D01*
X106940716Y-77919243D01*
X106943039Y-77924224D01*
X106943039Y-77924225D01*
X107035151Y-78121762D01*
X107035154Y-78121767D01*
X107037477Y-78126749D01*
X107168802Y-78314300D01*
X107330700Y-78476198D01*
X107335208Y-78479355D01*
X107335211Y-78479357D01*
X107385202Y-78514361D01*
X107429530Y-78569818D01*
X107436839Y-78640438D01*
X107404808Y-78703798D01*
X107350611Y-78737808D01*
X107322488Y-78746621D01*
X107288550Y-78757256D01*
X107288548Y-78757257D01*
X107281301Y-78759528D01*
X107134619Y-78848361D01*
X107013361Y-78969619D01*
X106924528Y-79116301D01*
X106873247Y-79279938D01*
X106866500Y-79353365D01*
X106866501Y-80666634D01*
X106866764Y-80669492D01*
X106866764Y-80669501D01*
X106870026Y-80705004D01*
X106873247Y-80740062D01*
X106924528Y-80903699D01*
X107013361Y-81050381D01*
X107134619Y-81171639D01*
X107281301Y-81260472D01*
X107288548Y-81262743D01*
X107288550Y-81262744D01*
X107322488Y-81273379D01*
X107350611Y-81282192D01*
X107409632Y-81321649D01*
X107437952Y-81386753D01*
X107426579Y-81456833D01*
X107385202Y-81505639D01*
X107335211Y-81540643D01*
X107335208Y-81540645D01*
X107330700Y-81543802D01*
X107168802Y-81705700D01*
X107037477Y-81893251D01*
X107035154Y-81898233D01*
X107035151Y-81898238D01*
X106943039Y-82095775D01*
X106940716Y-82100757D01*
X106881457Y-82321913D01*
X106861502Y-82550000D01*
X106881457Y-82778087D01*
X106940716Y-82999243D01*
X106943039Y-83004224D01*
X106943039Y-83004225D01*
X107035151Y-83201762D01*
X107035154Y-83201767D01*
X107037477Y-83206749D01*
X107168802Y-83394300D01*
X107330700Y-83556198D01*
X107335208Y-83559355D01*
X107335211Y-83559357D01*
X107413389Y-83614098D01*
X107518251Y-83687523D01*
X107523233Y-83689846D01*
X107523238Y-83689849D01*
X107557457Y-83705805D01*
X107610742Y-83752722D01*
X107630203Y-83820999D01*
X107609661Y-83888959D01*
X107557457Y-83934195D01*
X107523238Y-83950151D01*
X107523233Y-83950154D01*
X107518251Y-83952477D01*
X107413389Y-84025902D01*
X107335211Y-84080643D01*
X107335208Y-84080645D01*
X107330700Y-84083802D01*
X107168802Y-84245700D01*
X107037477Y-84433251D01*
X107035154Y-84438233D01*
X107035151Y-84438238D01*
X106943039Y-84635775D01*
X106940716Y-84640757D01*
X106881457Y-84861913D01*
X106861502Y-85090000D01*
X106881457Y-85318087D01*
X106940716Y-85539243D01*
X106943039Y-85544224D01*
X106943039Y-85544225D01*
X107035151Y-85741762D01*
X107035154Y-85741767D01*
X107037477Y-85746749D01*
X107168802Y-85934300D01*
X107330700Y-86096198D01*
X107335208Y-86099355D01*
X107335211Y-86099357D01*
X107413389Y-86154098D01*
X107518251Y-86227523D01*
X107523233Y-86229846D01*
X107523238Y-86229849D01*
X107557457Y-86245805D01*
X107610742Y-86292722D01*
X107630203Y-86360999D01*
X107609661Y-86428959D01*
X107557457Y-86474195D01*
X107523238Y-86490151D01*
X107523233Y-86490154D01*
X107518251Y-86492477D01*
X107413389Y-86565902D01*
X107335211Y-86620643D01*
X107335208Y-86620645D01*
X107330700Y-86623802D01*
X107168802Y-86785700D01*
X107037477Y-86973251D01*
X107035154Y-86978233D01*
X107035151Y-86978238D01*
X106950456Y-87159870D01*
X106940716Y-87180757D01*
X106881457Y-87401913D01*
X106861502Y-87630000D01*
X106881457Y-87858087D01*
X106940716Y-88079243D01*
X106943039Y-88084224D01*
X106943039Y-88084225D01*
X107035151Y-88281762D01*
X107035154Y-88281767D01*
X107037477Y-88286749D01*
X107168802Y-88474300D01*
X107330700Y-88636198D01*
X107335208Y-88639355D01*
X107335211Y-88639357D01*
X107413389Y-88694098D01*
X107518251Y-88767523D01*
X107523233Y-88769846D01*
X107523238Y-88769849D01*
X107557457Y-88785805D01*
X107610742Y-88832722D01*
X107630203Y-88900999D01*
X107609661Y-88968959D01*
X107557457Y-89014195D01*
X107523238Y-89030151D01*
X107523233Y-89030154D01*
X107518251Y-89032477D01*
X107413389Y-89105902D01*
X107335211Y-89160643D01*
X107335208Y-89160645D01*
X107330700Y-89163802D01*
X107168802Y-89325700D01*
X107037477Y-89513251D01*
X107035154Y-89518233D01*
X107035151Y-89518238D01*
X106950456Y-89699870D01*
X106940716Y-89720757D01*
X106939294Y-89726065D01*
X106939293Y-89726067D01*
X106916151Y-89812434D01*
X106881457Y-89941913D01*
X106861502Y-90170000D01*
X91708498Y-90170000D01*
X91688543Y-89941913D01*
X91653849Y-89812434D01*
X91630707Y-89726067D01*
X91630706Y-89726065D01*
X91629284Y-89720757D01*
X91619544Y-89699870D01*
X91534849Y-89518238D01*
X91534846Y-89518233D01*
X91532523Y-89513251D01*
X91401198Y-89325700D01*
X91239300Y-89163802D01*
X91234792Y-89160645D01*
X91234789Y-89160643D01*
X91156611Y-89105902D01*
X91051749Y-89032477D01*
X91046767Y-89030154D01*
X91046762Y-89030151D01*
X91012543Y-89014195D01*
X90959258Y-88967278D01*
X90939797Y-88899001D01*
X90960339Y-88831041D01*
X91012543Y-88785805D01*
X91046762Y-88769849D01*
X91046767Y-88769846D01*
X91051749Y-88767523D01*
X91156611Y-88694098D01*
X91234789Y-88639357D01*
X91234792Y-88639355D01*
X91239300Y-88636198D01*
X91401198Y-88474300D01*
X91532523Y-88286749D01*
X91534846Y-88281767D01*
X91534849Y-88281762D01*
X91626961Y-88084225D01*
X91626961Y-88084224D01*
X91629284Y-88079243D01*
X91688543Y-87858087D01*
X91708498Y-87630000D01*
X91688543Y-87401913D01*
X91629284Y-87180757D01*
X91619544Y-87159870D01*
X91534849Y-86978238D01*
X91534846Y-86978233D01*
X91532523Y-86973251D01*
X91401198Y-86785700D01*
X91239300Y-86623802D01*
X91234792Y-86620645D01*
X91234789Y-86620643D01*
X91156611Y-86565902D01*
X91051749Y-86492477D01*
X91046767Y-86490154D01*
X91046762Y-86490151D01*
X91012543Y-86474195D01*
X90959258Y-86427278D01*
X90939797Y-86359001D01*
X90960339Y-86291041D01*
X91012543Y-86245805D01*
X91046762Y-86229849D01*
X91046767Y-86229846D01*
X91051749Y-86227523D01*
X91156611Y-86154098D01*
X91234789Y-86099357D01*
X91234792Y-86099355D01*
X91239300Y-86096198D01*
X91401198Y-85934300D01*
X91532523Y-85746749D01*
X91534846Y-85741767D01*
X91534849Y-85741762D01*
X91626961Y-85544225D01*
X91626961Y-85544224D01*
X91629284Y-85539243D01*
X91688543Y-85318087D01*
X91708498Y-85090000D01*
X91688543Y-84861913D01*
X91629284Y-84640757D01*
X91626961Y-84635775D01*
X91534849Y-84438238D01*
X91534846Y-84438233D01*
X91532523Y-84433251D01*
X91401198Y-84245700D01*
X91239300Y-84083802D01*
X91234792Y-84080645D01*
X91234789Y-84080643D01*
X91156611Y-84025902D01*
X91051749Y-83952477D01*
X91046767Y-83950154D01*
X91046762Y-83950151D01*
X91012543Y-83934195D01*
X90959258Y-83887278D01*
X90939797Y-83819001D01*
X90960339Y-83751041D01*
X91012543Y-83705805D01*
X91046762Y-83689849D01*
X91046767Y-83689846D01*
X91051749Y-83687523D01*
X91156611Y-83614098D01*
X91234789Y-83559357D01*
X91234792Y-83559355D01*
X91239300Y-83556198D01*
X91401198Y-83394300D01*
X91532523Y-83206749D01*
X91534846Y-83201767D01*
X91534849Y-83201762D01*
X91626961Y-83004225D01*
X91626961Y-83004224D01*
X91629284Y-82999243D01*
X91688543Y-82778087D01*
X91708498Y-82550000D01*
X91688543Y-82321913D01*
X91629284Y-82100757D01*
X91626961Y-82095775D01*
X91534849Y-81898238D01*
X91534846Y-81898233D01*
X91532523Y-81893251D01*
X91401198Y-81705700D01*
X91239300Y-81543802D01*
X91234792Y-81540645D01*
X91234789Y-81540643D01*
X91184281Y-81505277D01*
X91139953Y-81449820D01*
X91132644Y-81379200D01*
X91164675Y-81315840D01*
X91218873Y-81281830D01*
X91281243Y-81262285D01*
X91294988Y-81256079D01*
X91428574Y-81175176D01*
X91440443Y-81165869D01*
X91550869Y-81055443D01*
X91560176Y-81043574D01*
X91641079Y-80909988D01*
X91647285Y-80896243D01*
X91694256Y-80746356D01*
X91696869Y-80733306D01*
X91702734Y-80669479D01*
X91703000Y-80663691D01*
X91703000Y-80282115D01*
X91698525Y-80266876D01*
X91697135Y-80265671D01*
X91689452Y-80264000D01*
X89105116Y-80264000D01*
X89089877Y-80268475D01*
X89088672Y-80269865D01*
X89087001Y-80277548D01*
X89087001Y-80663705D01*
X89087264Y-80669454D01*
X89093132Y-80733315D01*
X89095743Y-80746351D01*
X89142715Y-80896243D01*
X89148921Y-80909988D01*
X89229824Y-81043574D01*
X89239131Y-81055443D01*
X89349557Y-81165869D01*
X89361426Y-81175176D01*
X89495012Y-81256079D01*
X89508757Y-81262285D01*
X89571127Y-81281830D01*
X89630149Y-81321287D01*
X89658469Y-81386391D01*
X89647096Y-81456470D01*
X89605719Y-81505277D01*
X89555211Y-81540643D01*
X89555208Y-81540645D01*
X89550700Y-81543802D01*
X89388802Y-81705700D01*
X89257477Y-81893251D01*
X89255154Y-81898233D01*
X89255151Y-81898238D01*
X89163039Y-82095775D01*
X89160716Y-82100757D01*
X89101457Y-82321913D01*
X89081502Y-82550000D01*
X89101457Y-82778087D01*
X89160716Y-82999243D01*
X89163039Y-83004224D01*
X89163039Y-83004225D01*
X89255151Y-83201762D01*
X89255154Y-83201767D01*
X89257477Y-83206749D01*
X89388802Y-83394300D01*
X89550700Y-83556198D01*
X89555208Y-83559355D01*
X89555211Y-83559357D01*
X89633389Y-83614098D01*
X89738251Y-83687523D01*
X89743233Y-83689846D01*
X89743238Y-83689849D01*
X89777457Y-83705805D01*
X89830742Y-83752722D01*
X89850203Y-83820999D01*
X89829661Y-83888959D01*
X89777457Y-83934195D01*
X89743238Y-83950151D01*
X89743233Y-83950154D01*
X89738251Y-83952477D01*
X89633389Y-84025902D01*
X89555211Y-84080643D01*
X89555208Y-84080645D01*
X89550700Y-84083802D01*
X89388802Y-84245700D01*
X89257477Y-84433251D01*
X89255154Y-84438233D01*
X89255151Y-84438238D01*
X89163039Y-84635775D01*
X89160716Y-84640757D01*
X89101457Y-84861913D01*
X89081502Y-85090000D01*
X89101457Y-85318087D01*
X89160716Y-85539243D01*
X89163039Y-85544224D01*
X89163039Y-85544225D01*
X89255151Y-85741762D01*
X89255154Y-85741767D01*
X89257477Y-85746749D01*
X89388802Y-85934300D01*
X89550700Y-86096198D01*
X89555208Y-86099355D01*
X89555211Y-86099357D01*
X89633389Y-86154098D01*
X89738251Y-86227523D01*
X89743233Y-86229846D01*
X89743238Y-86229849D01*
X89777457Y-86245805D01*
X89830742Y-86292722D01*
X89850203Y-86360999D01*
X89829661Y-86428959D01*
X89777457Y-86474195D01*
X89743238Y-86490151D01*
X89743233Y-86490154D01*
X89738251Y-86492477D01*
X89633389Y-86565902D01*
X89555211Y-86620643D01*
X89555208Y-86620645D01*
X89550700Y-86623802D01*
X89388802Y-86785700D01*
X89385645Y-86790208D01*
X89385643Y-86790211D01*
X89278819Y-86942771D01*
X89223362Y-86987099D01*
X89175606Y-86996500D01*
X87708763Y-86996500D01*
X87697579Y-86995973D01*
X87690091Y-86994299D01*
X87682168Y-86994548D01*
X87622033Y-86996438D01*
X87618075Y-86996500D01*
X87590144Y-86996500D01*
X87586229Y-86996995D01*
X87586225Y-86996995D01*
X87586167Y-86997003D01*
X87586138Y-86997006D01*
X87574296Y-86997939D01*
X87530110Y-86999327D01*
X87512744Y-87004372D01*
X87510658Y-87004978D01*
X87491306Y-87008986D01*
X87479068Y-87010532D01*
X87479066Y-87010533D01*
X87471203Y-87011526D01*
X87430086Y-87027806D01*
X87418885Y-87031641D01*
X87376406Y-87043982D01*
X87369587Y-87048015D01*
X87369582Y-87048017D01*
X87358971Y-87054293D01*
X87341221Y-87062990D01*
X87322383Y-87070448D01*
X87315967Y-87075109D01*
X87315966Y-87075110D01*
X87286625Y-87096428D01*
X87276701Y-87102947D01*
X87245460Y-87121422D01*
X87245455Y-87121426D01*
X87238637Y-87125458D01*
X87224313Y-87139782D01*
X87209281Y-87152621D01*
X87192893Y-87164528D01*
X87164712Y-87198593D01*
X87156722Y-87207373D01*
X84697747Y-89666348D01*
X84689461Y-89673888D01*
X84682982Y-89678000D01*
X84677557Y-89683777D01*
X84636357Y-89727651D01*
X84633602Y-89730493D01*
X84613865Y-89750230D01*
X84611385Y-89753427D01*
X84603682Y-89762447D01*
X84573414Y-89794679D01*
X84569595Y-89801625D01*
X84569593Y-89801628D01*
X84563652Y-89812434D01*
X84552801Y-89828953D01*
X84540386Y-89844959D01*
X84537241Y-89852228D01*
X84537238Y-89852232D01*
X84522826Y-89885537D01*
X84517609Y-89896187D01*
X84496305Y-89934940D01*
X84494334Y-89942615D01*
X84494334Y-89942616D01*
X84491267Y-89954562D01*
X84484863Y-89973266D01*
X84476819Y-89991855D01*
X84475580Y-89999678D01*
X84475577Y-89999688D01*
X84469901Y-90035524D01*
X84467495Y-90047144D01*
X84456500Y-90089970D01*
X84456500Y-90110224D01*
X84454949Y-90129934D01*
X84451780Y-90149943D01*
X84452526Y-90157835D01*
X84455941Y-90193961D01*
X84456500Y-90205819D01*
X84456500Y-113597476D01*
X84436498Y-113665597D01*
X84424142Y-113681779D01*
X84350960Y-113763056D01*
X84255473Y-113928444D01*
X84196458Y-114110072D01*
X84176496Y-114300000D01*
X74168500Y-114300000D01*
X74168500Y-109633341D01*
X75219888Y-109633341D01*
X75219983Y-109636971D01*
X75219983Y-109636972D01*
X75226652Y-109891648D01*
X75228970Y-109980171D01*
X75277856Y-110323660D01*
X75365897Y-110659253D01*
X75491927Y-110982503D01*
X75493624Y-110985708D01*
X75627113Y-111237825D01*
X75654275Y-111289126D01*
X75656325Y-111292109D01*
X75656327Y-111292112D01*
X75848733Y-111572064D01*
X75848739Y-111572071D01*
X75850790Y-111575056D01*
X76078866Y-111836505D01*
X76081551Y-111838948D01*
X76291268Y-112029775D01*
X76335481Y-112070006D01*
X76617233Y-112272466D01*
X76920388Y-112441200D01*
X77240928Y-112573972D01*
X77244422Y-112574967D01*
X77244424Y-112574968D01*
X77571103Y-112668025D01*
X77571108Y-112668026D01*
X77574604Y-112669022D01*
X77771304Y-112701233D01*
X77913412Y-112724504D01*
X77913419Y-112724505D01*
X77916993Y-112725090D01*
X78090275Y-112733262D01*
X78259931Y-112741263D01*
X78259932Y-112741263D01*
X78263558Y-112741434D01*
X78272415Y-112740830D01*
X78606073Y-112718084D01*
X78606081Y-112718083D01*
X78609704Y-112717836D01*
X78613279Y-112717173D01*
X78613282Y-112717173D01*
X78947279Y-112655270D01*
X78947283Y-112655269D01*
X78950844Y-112654609D01*
X79282456Y-112552592D01*
X79600145Y-112413136D01*
X79844511Y-112270341D01*
X79896560Y-112239926D01*
X79896562Y-112239925D01*
X79899700Y-112238091D01*
X79902609Y-112235907D01*
X80174244Y-112031958D01*
X80174248Y-112031955D01*
X80177151Y-112029775D01*
X80428819Y-111790950D01*
X80651370Y-111524783D01*
X80841853Y-111234799D01*
X80970446Y-110979121D01*
X80996117Y-110928080D01*
X80996120Y-110928072D01*
X80997744Y-110924844D01*
X81116977Y-110599026D01*
X81117822Y-110595504D01*
X81117825Y-110595496D01*
X81197124Y-110265191D01*
X81197125Y-110265187D01*
X81197971Y-110261662D01*
X81198584Y-110256598D01*
X81239316Y-109920004D01*
X81239316Y-109919997D01*
X81239652Y-109917225D01*
X81239942Y-109908017D01*
X81245511Y-109730797D01*
X81245599Y-109728000D01*
X81240629Y-109641803D01*
X81225836Y-109385246D01*
X81225835Y-109385241D01*
X81225627Y-109381626D01*
X81185677Y-109152722D01*
X81166600Y-109043415D01*
X81166598Y-109043408D01*
X81165976Y-109039842D01*
X81067437Y-108707180D01*
X81028263Y-108615337D01*
X80932740Y-108391386D01*
X80932738Y-108391383D01*
X80931316Y-108388048D01*
X80881569Y-108300831D01*
X80761208Y-108089816D01*
X80759417Y-108086676D01*
X80554018Y-107807060D01*
X80317842Y-107552904D01*
X80054019Y-107327578D01*
X79766047Y-107134069D01*
X79457741Y-106974940D01*
X79133189Y-106852302D01*
X79129668Y-106851418D01*
X79129663Y-106851416D01*
X78968378Y-106810904D01*
X78796692Y-106767780D01*
X78774476Y-106764855D01*
X78456315Y-106722968D01*
X78456307Y-106722967D01*
X78452711Y-106722494D01*
X78308045Y-106720221D01*
X78109446Y-106717101D01*
X78109442Y-106717101D01*
X78105804Y-106717044D01*
X78102190Y-106717405D01*
X78102184Y-106717405D01*
X77858843Y-106741694D01*
X77760569Y-106751503D01*
X77421583Y-106825414D01*
X77418156Y-106826587D01*
X77418150Y-106826589D01*
X77188322Y-106905277D01*
X77093339Y-106937797D01*
X76780188Y-107087163D01*
X76777109Y-107089094D01*
X76777108Y-107089095D01*
X76743446Y-107110211D01*
X76486279Y-107271532D01*
X76483443Y-107273804D01*
X76483436Y-107273809D01*
X76239384Y-107469332D01*
X76215509Y-107488459D01*
X76154066Y-107550549D01*
X75989747Y-107716598D01*
X75971466Y-107735071D01*
X75969225Y-107737929D01*
X75798648Y-107955475D01*
X75757386Y-108008098D01*
X75755493Y-108011187D01*
X75755491Y-108011190D01*
X75709233Y-108086676D01*
X75576105Y-108303921D01*
X75574580Y-108307206D01*
X75574578Y-108307210D01*
X75463433Y-108546653D01*
X75430027Y-108618620D01*
X75321087Y-108948023D01*
X75250730Y-109287764D01*
X75219888Y-109633341D01*
X74168500Y-109633341D01*
X74168500Y-77470000D01*
X89081502Y-77470000D01*
X89101457Y-77698087D01*
X89160716Y-77919243D01*
X89163039Y-77924224D01*
X89163039Y-77924225D01*
X89255151Y-78121762D01*
X89255154Y-78121767D01*
X89257477Y-78126749D01*
X89388802Y-78314300D01*
X89550700Y-78476198D01*
X89555208Y-78479355D01*
X89555211Y-78479357D01*
X89605719Y-78514723D01*
X89650047Y-78570180D01*
X89657356Y-78640800D01*
X89625325Y-78704160D01*
X89571127Y-78738170D01*
X89508757Y-78757715D01*
X89495012Y-78763921D01*
X89361426Y-78844824D01*
X89349557Y-78854131D01*
X89239131Y-78964557D01*
X89229824Y-78976426D01*
X89148921Y-79110012D01*
X89142715Y-79123757D01*
X89095744Y-79273644D01*
X89093131Y-79286694D01*
X89087266Y-79350521D01*
X89087000Y-79356309D01*
X89087000Y-79737885D01*
X89091475Y-79753124D01*
X89092865Y-79754329D01*
X89100548Y-79756000D01*
X91684884Y-79756000D01*
X91700123Y-79751525D01*
X91701328Y-79750135D01*
X91702999Y-79742452D01*
X91702999Y-79356295D01*
X91702736Y-79350546D01*
X91696868Y-79286685D01*
X91694257Y-79273649D01*
X91647285Y-79123757D01*
X91641079Y-79110012D01*
X91560176Y-78976426D01*
X91550869Y-78964557D01*
X91440443Y-78854131D01*
X91428574Y-78844824D01*
X91294988Y-78763921D01*
X91281243Y-78757715D01*
X91218873Y-78738170D01*
X91159851Y-78698713D01*
X91131531Y-78633609D01*
X91142904Y-78563530D01*
X91184281Y-78514723D01*
X91234789Y-78479357D01*
X91234792Y-78479355D01*
X91239300Y-78476198D01*
X91401198Y-78314300D01*
X91532523Y-78126749D01*
X91534846Y-78121767D01*
X91534849Y-78121762D01*
X91626961Y-77924225D01*
X91626961Y-77924224D01*
X91629284Y-77919243D01*
X91688543Y-77698087D01*
X91708498Y-77470000D01*
X91688543Y-77241913D01*
X91629284Y-77020757D01*
X91626961Y-77015775D01*
X91534849Y-76818238D01*
X91534846Y-76818233D01*
X91532523Y-76813251D01*
X91401198Y-76625700D01*
X91239300Y-76463802D01*
X91234792Y-76460645D01*
X91234789Y-76460643D01*
X91156611Y-76405902D01*
X91051749Y-76332477D01*
X91046767Y-76330154D01*
X91046762Y-76330151D01*
X91012543Y-76314195D01*
X90959258Y-76267278D01*
X90939797Y-76199001D01*
X90960339Y-76131041D01*
X91012543Y-76085805D01*
X91046762Y-76069849D01*
X91046767Y-76069846D01*
X91051749Y-76067523D01*
X91156611Y-75994098D01*
X91234789Y-75939357D01*
X91234792Y-75939355D01*
X91239300Y-75936198D01*
X91401198Y-75774300D01*
X91532523Y-75586749D01*
X91534846Y-75581767D01*
X91534849Y-75581762D01*
X91626961Y-75384225D01*
X91626961Y-75384224D01*
X91629284Y-75379243D01*
X91688543Y-75158087D01*
X91708498Y-74930000D01*
X91688543Y-74701913D01*
X91629284Y-74480757D01*
X91626961Y-74475775D01*
X91534849Y-74278238D01*
X91534846Y-74278233D01*
X91532523Y-74273251D01*
X91401198Y-74085700D01*
X91239300Y-73923802D01*
X91234792Y-73920645D01*
X91234789Y-73920643D01*
X91156611Y-73865902D01*
X91051749Y-73792477D01*
X91046767Y-73790154D01*
X91046762Y-73790151D01*
X91012543Y-73774195D01*
X90959258Y-73727278D01*
X90939797Y-73659001D01*
X90960339Y-73591041D01*
X91012543Y-73545805D01*
X91046762Y-73529849D01*
X91046767Y-73529846D01*
X91051749Y-73527523D01*
X91156611Y-73454098D01*
X91234789Y-73399357D01*
X91234792Y-73399355D01*
X91239300Y-73396198D01*
X91401198Y-73234300D01*
X91532523Y-73046749D01*
X91534846Y-73041767D01*
X91534849Y-73041762D01*
X91626961Y-72844225D01*
X91626961Y-72844224D01*
X91629284Y-72839243D01*
X91688543Y-72618087D01*
X91708498Y-72390000D01*
X91688543Y-72161913D01*
X91629284Y-71940757D01*
X91626961Y-71935775D01*
X91534849Y-71738238D01*
X91534846Y-71738233D01*
X91532523Y-71733251D01*
X91401198Y-71545700D01*
X91239300Y-71383802D01*
X91234792Y-71380645D01*
X91234789Y-71380643D01*
X91156611Y-71325902D01*
X91051749Y-71252477D01*
X91046767Y-71250154D01*
X91046762Y-71250151D01*
X91012543Y-71234195D01*
X90959258Y-71187278D01*
X90939797Y-71119001D01*
X90960339Y-71051041D01*
X91012543Y-71005805D01*
X91046762Y-70989849D01*
X91046767Y-70989846D01*
X91051749Y-70987523D01*
X91156611Y-70914098D01*
X91234789Y-70859357D01*
X91234792Y-70859355D01*
X91239300Y-70856198D01*
X91401198Y-70694300D01*
X91532523Y-70506749D01*
X91534846Y-70501767D01*
X91534849Y-70501762D01*
X91626961Y-70304225D01*
X91626961Y-70304224D01*
X91629284Y-70299243D01*
X91688543Y-70078087D01*
X91708498Y-69850000D01*
X91688543Y-69621913D01*
X91629284Y-69400757D01*
X91626961Y-69395775D01*
X91534849Y-69198238D01*
X91534846Y-69198233D01*
X91532523Y-69193251D01*
X91401198Y-69005700D01*
X91239300Y-68843802D01*
X91234792Y-68840645D01*
X91234789Y-68840643D01*
X91184281Y-68805277D01*
X91139953Y-68749820D01*
X91132644Y-68679200D01*
X91164675Y-68615840D01*
X91218873Y-68581830D01*
X91281243Y-68562285D01*
X91294988Y-68556079D01*
X91428574Y-68475176D01*
X91440443Y-68465869D01*
X91550869Y-68355443D01*
X91560176Y-68343574D01*
X91641079Y-68209988D01*
X91647285Y-68196243D01*
X91694256Y-68046356D01*
X91696869Y-68033306D01*
X91702734Y-67969479D01*
X91703000Y-67963691D01*
X91703000Y-67582115D01*
X91698525Y-67566876D01*
X91697135Y-67565671D01*
X91689452Y-67564000D01*
X89105116Y-67564000D01*
X89089877Y-67568475D01*
X89088672Y-67569865D01*
X89087001Y-67577548D01*
X89087001Y-67963705D01*
X89087264Y-67969454D01*
X89093132Y-68033315D01*
X89095743Y-68046351D01*
X89142715Y-68196243D01*
X89148921Y-68209988D01*
X89229824Y-68343574D01*
X89239131Y-68355443D01*
X89349557Y-68465869D01*
X89361426Y-68475176D01*
X89495012Y-68556079D01*
X89508757Y-68562285D01*
X89571127Y-68581830D01*
X89630149Y-68621287D01*
X89658469Y-68686391D01*
X89647096Y-68756470D01*
X89605719Y-68805277D01*
X89555211Y-68840643D01*
X89555208Y-68840645D01*
X89550700Y-68843802D01*
X89388802Y-69005700D01*
X89257477Y-69193251D01*
X89255154Y-69198233D01*
X89255151Y-69198238D01*
X89163039Y-69395775D01*
X89160716Y-69400757D01*
X89101457Y-69621913D01*
X89081502Y-69850000D01*
X89101457Y-70078087D01*
X89160716Y-70299243D01*
X89163039Y-70304224D01*
X89163039Y-70304225D01*
X89255151Y-70501762D01*
X89255154Y-70501767D01*
X89257477Y-70506749D01*
X89388802Y-70694300D01*
X89550700Y-70856198D01*
X89555208Y-70859355D01*
X89555211Y-70859357D01*
X89633389Y-70914098D01*
X89738251Y-70987523D01*
X89743233Y-70989846D01*
X89743238Y-70989849D01*
X89777457Y-71005805D01*
X89830742Y-71052722D01*
X89850203Y-71120999D01*
X89829661Y-71188959D01*
X89777457Y-71234195D01*
X89743238Y-71250151D01*
X89743233Y-71250154D01*
X89738251Y-71252477D01*
X89633389Y-71325902D01*
X89555211Y-71380643D01*
X89555208Y-71380645D01*
X89550700Y-71383802D01*
X89388802Y-71545700D01*
X89257477Y-71733251D01*
X89255154Y-71738233D01*
X89255151Y-71738238D01*
X89163039Y-71935775D01*
X89160716Y-71940757D01*
X89101457Y-72161913D01*
X89081502Y-72390000D01*
X89101457Y-72618087D01*
X89160716Y-72839243D01*
X89163039Y-72844224D01*
X89163039Y-72844225D01*
X89255151Y-73041762D01*
X89255154Y-73041767D01*
X89257477Y-73046749D01*
X89388802Y-73234300D01*
X89550700Y-73396198D01*
X89555208Y-73399355D01*
X89555211Y-73399357D01*
X89633389Y-73454098D01*
X89738251Y-73527523D01*
X89743233Y-73529846D01*
X89743238Y-73529849D01*
X89777457Y-73545805D01*
X89830742Y-73592722D01*
X89850203Y-73660999D01*
X89829661Y-73728959D01*
X89777457Y-73774195D01*
X89743238Y-73790151D01*
X89743233Y-73790154D01*
X89738251Y-73792477D01*
X89633389Y-73865902D01*
X89555211Y-73920643D01*
X89555208Y-73920645D01*
X89550700Y-73923802D01*
X89388802Y-74085700D01*
X89257477Y-74273251D01*
X89255154Y-74278233D01*
X89255151Y-74278238D01*
X89163039Y-74475775D01*
X89160716Y-74480757D01*
X89101457Y-74701913D01*
X89081502Y-74930000D01*
X89101457Y-75158087D01*
X89160716Y-75379243D01*
X89163039Y-75384224D01*
X89163039Y-75384225D01*
X89255151Y-75581762D01*
X89255154Y-75581767D01*
X89257477Y-75586749D01*
X89388802Y-75774300D01*
X89550700Y-75936198D01*
X89555208Y-75939355D01*
X89555211Y-75939357D01*
X89633389Y-75994098D01*
X89738251Y-76067523D01*
X89743233Y-76069846D01*
X89743238Y-76069849D01*
X89777457Y-76085805D01*
X89830742Y-76132722D01*
X89850203Y-76200999D01*
X89829661Y-76268959D01*
X89777457Y-76314195D01*
X89743238Y-76330151D01*
X89743233Y-76330154D01*
X89738251Y-76332477D01*
X89633389Y-76405902D01*
X89555211Y-76460643D01*
X89555208Y-76460645D01*
X89550700Y-76463802D01*
X89388802Y-76625700D01*
X89257477Y-76813251D01*
X89255154Y-76818233D01*
X89255151Y-76818238D01*
X89163039Y-77015775D01*
X89160716Y-77020757D01*
X89101457Y-77241913D01*
X89081502Y-77470000D01*
X74168500Y-77470000D01*
X74168500Y-62897341D01*
X75219888Y-62897341D01*
X75219983Y-62900971D01*
X75219983Y-62900972D01*
X75222367Y-62992000D01*
X75228970Y-63244171D01*
X75277856Y-63587660D01*
X75365897Y-63923253D01*
X75491927Y-64246503D01*
X75493624Y-64249708D01*
X75651240Y-64547393D01*
X75654275Y-64553126D01*
X75656325Y-64556109D01*
X75656327Y-64556112D01*
X75848733Y-64836064D01*
X75848739Y-64836071D01*
X75850790Y-64839056D01*
X76078866Y-65100505D01*
X76081551Y-65102948D01*
X76291268Y-65293775D01*
X76335481Y-65334006D01*
X76617233Y-65536466D01*
X76920388Y-65705200D01*
X77240928Y-65837972D01*
X77244422Y-65838967D01*
X77244424Y-65838968D01*
X77571103Y-65932025D01*
X77571108Y-65932026D01*
X77574604Y-65933022D01*
X77771304Y-65965233D01*
X77913412Y-65988504D01*
X77913419Y-65988505D01*
X77916993Y-65989090D01*
X78090276Y-65997262D01*
X78259931Y-66005263D01*
X78259932Y-66005263D01*
X78263558Y-66005434D01*
X78282246Y-66004160D01*
X78606073Y-65982084D01*
X78606081Y-65982083D01*
X78609704Y-65981836D01*
X78613279Y-65981173D01*
X78613282Y-65981173D01*
X78947279Y-65919270D01*
X78947283Y-65919269D01*
X78950844Y-65918609D01*
X79282456Y-65816592D01*
X79600145Y-65677136D01*
X79701008Y-65618197D01*
X79896560Y-65503926D01*
X79896562Y-65503925D01*
X79899700Y-65502091D01*
X80000046Y-65426749D01*
X80174244Y-65295958D01*
X80174248Y-65295955D01*
X80177151Y-65293775D01*
X80428819Y-65054950D01*
X80651370Y-64788783D01*
X80663708Y-64770000D01*
X89081502Y-64770000D01*
X89101457Y-64998087D01*
X89102881Y-65003400D01*
X89102881Y-65003402D01*
X89129555Y-65102948D01*
X89160716Y-65219243D01*
X89163039Y-65224224D01*
X89163039Y-65224225D01*
X89255151Y-65421762D01*
X89255154Y-65421767D01*
X89257477Y-65426749D01*
X89388802Y-65614300D01*
X89550700Y-65776198D01*
X89555208Y-65779355D01*
X89555211Y-65779357D01*
X89605719Y-65814723D01*
X89650047Y-65870180D01*
X89657356Y-65940800D01*
X89625325Y-66004160D01*
X89571127Y-66038170D01*
X89508757Y-66057715D01*
X89495012Y-66063921D01*
X89361426Y-66144824D01*
X89349557Y-66154131D01*
X89239131Y-66264557D01*
X89229824Y-66276426D01*
X89148921Y-66410012D01*
X89142715Y-66423757D01*
X89095744Y-66573644D01*
X89093131Y-66586694D01*
X89087266Y-66650521D01*
X89087000Y-66656309D01*
X89087000Y-67037885D01*
X89091475Y-67053124D01*
X89092865Y-67054329D01*
X89100548Y-67056000D01*
X91684884Y-67056000D01*
X91700123Y-67051525D01*
X91701328Y-67050135D01*
X91702999Y-67042452D01*
X91702999Y-66656295D01*
X91702736Y-66650546D01*
X91696868Y-66586685D01*
X91694257Y-66573649D01*
X91647285Y-66423757D01*
X91641079Y-66410012D01*
X91560176Y-66276426D01*
X91550869Y-66264557D01*
X91440443Y-66154131D01*
X91428574Y-66144824D01*
X91294988Y-66063921D01*
X91281243Y-66057715D01*
X91218873Y-66038170D01*
X91159851Y-65998713D01*
X91131531Y-65933609D01*
X91142904Y-65863530D01*
X91184281Y-65814723D01*
X91234789Y-65779357D01*
X91234792Y-65779355D01*
X91239300Y-65776198D01*
X91401198Y-65614300D01*
X91532523Y-65426749D01*
X91534846Y-65421767D01*
X91534849Y-65421762D01*
X91626961Y-65224225D01*
X91626961Y-65224224D01*
X91629284Y-65219243D01*
X91660446Y-65102948D01*
X91687119Y-65003402D01*
X91687119Y-65003400D01*
X91688543Y-64998087D01*
X91708498Y-64770000D01*
X106861502Y-64770000D01*
X106881457Y-64998087D01*
X106882881Y-65003400D01*
X106882881Y-65003402D01*
X106909555Y-65102948D01*
X106940716Y-65219243D01*
X106943039Y-65224224D01*
X106943039Y-65224225D01*
X107035151Y-65421762D01*
X107035154Y-65421767D01*
X107037477Y-65426749D01*
X107168802Y-65614300D01*
X107330700Y-65776198D01*
X107335208Y-65779355D01*
X107335211Y-65779357D01*
X107385719Y-65814723D01*
X107430047Y-65870180D01*
X107437356Y-65940800D01*
X107405325Y-66004160D01*
X107351127Y-66038170D01*
X107288757Y-66057715D01*
X107275012Y-66063921D01*
X107141426Y-66144824D01*
X107129557Y-66154131D01*
X107019131Y-66264557D01*
X107009824Y-66276426D01*
X106928921Y-66410012D01*
X106922715Y-66423757D01*
X106875744Y-66573644D01*
X106873131Y-66586694D01*
X106867266Y-66650521D01*
X106867000Y-66656309D01*
X106867000Y-67037885D01*
X106871475Y-67053124D01*
X106872865Y-67054329D01*
X106880548Y-67056000D01*
X109464884Y-67056000D01*
X109480123Y-67051525D01*
X109481328Y-67050135D01*
X109482999Y-67042452D01*
X109482999Y-66656295D01*
X109482736Y-66650546D01*
X109476868Y-66586685D01*
X109474257Y-66573649D01*
X109427285Y-66423757D01*
X109421079Y-66410012D01*
X109340176Y-66276426D01*
X109330869Y-66264557D01*
X109220443Y-66154131D01*
X109208574Y-66144824D01*
X109074988Y-66063921D01*
X109061243Y-66057715D01*
X108998873Y-66038170D01*
X108939851Y-65998713D01*
X108911531Y-65933609D01*
X108922904Y-65863530D01*
X108964281Y-65814723D01*
X109014789Y-65779357D01*
X109014792Y-65779355D01*
X109019300Y-65776198D01*
X109181198Y-65614300D01*
X109312523Y-65426749D01*
X109314846Y-65421767D01*
X109314849Y-65421762D01*
X109406961Y-65224225D01*
X109406961Y-65224224D01*
X109409284Y-65219243D01*
X109440446Y-65102948D01*
X109467119Y-65003402D01*
X109467119Y-65003400D01*
X109468543Y-64998087D01*
X109488498Y-64770000D01*
X109468543Y-64541913D01*
X109467119Y-64536598D01*
X109410707Y-64326067D01*
X109410706Y-64326065D01*
X109409284Y-64320757D01*
X109373082Y-64243121D01*
X109314849Y-64118238D01*
X109314846Y-64118233D01*
X109312523Y-64113251D01*
X109181198Y-63925700D01*
X109019300Y-63763802D01*
X109014792Y-63760645D01*
X109014789Y-63760643D01*
X108936611Y-63705902D01*
X108831749Y-63632477D01*
X108826767Y-63630154D01*
X108826762Y-63630151D01*
X108792543Y-63614195D01*
X108739258Y-63567278D01*
X108719797Y-63499001D01*
X108740339Y-63431041D01*
X108792543Y-63385805D01*
X108826762Y-63369849D01*
X108826767Y-63369846D01*
X108831749Y-63367523D01*
X109002785Y-63247762D01*
X109014789Y-63239357D01*
X109014792Y-63239355D01*
X109019300Y-63236198D01*
X109181198Y-63074300D01*
X109305106Y-62897341D01*
X116875888Y-62897341D01*
X116875983Y-62900971D01*
X116875983Y-62900972D01*
X116878367Y-62992000D01*
X116884970Y-63244171D01*
X116933856Y-63587660D01*
X117021897Y-63923253D01*
X117147927Y-64246503D01*
X117149624Y-64249708D01*
X117307240Y-64547393D01*
X117310275Y-64553126D01*
X117312325Y-64556109D01*
X117312327Y-64556112D01*
X117504733Y-64836064D01*
X117504739Y-64836071D01*
X117506790Y-64839056D01*
X117734866Y-65100505D01*
X117737551Y-65102948D01*
X117947268Y-65293775D01*
X117991481Y-65334006D01*
X118273233Y-65536466D01*
X118576388Y-65705200D01*
X118896928Y-65837972D01*
X118900422Y-65838967D01*
X118900424Y-65838968D01*
X119227103Y-65932025D01*
X119227108Y-65932026D01*
X119230604Y-65933022D01*
X119427304Y-65965233D01*
X119569412Y-65988504D01*
X119569419Y-65988505D01*
X119572993Y-65989090D01*
X119746276Y-65997262D01*
X119915931Y-66005263D01*
X119915932Y-66005263D01*
X119919558Y-66005434D01*
X119938246Y-66004160D01*
X120262073Y-65982084D01*
X120262081Y-65982083D01*
X120265704Y-65981836D01*
X120269279Y-65981173D01*
X120269282Y-65981173D01*
X120603279Y-65919270D01*
X120603283Y-65919269D01*
X120606844Y-65918609D01*
X120938456Y-65816592D01*
X121256145Y-65677136D01*
X121357008Y-65618197D01*
X121552560Y-65503926D01*
X121552562Y-65503925D01*
X121555700Y-65502091D01*
X121656046Y-65426749D01*
X121830244Y-65295958D01*
X121830248Y-65295955D01*
X121833151Y-65293775D01*
X122084819Y-65054950D01*
X122307370Y-64788783D01*
X122323305Y-64764525D01*
X122402612Y-64643791D01*
X122497853Y-64498799D01*
X122587399Y-64320757D01*
X122652117Y-64192080D01*
X122652120Y-64192072D01*
X122653744Y-64188844D01*
X122749699Y-63926636D01*
X122771729Y-63866437D01*
X122771730Y-63866433D01*
X122772977Y-63863026D01*
X122773822Y-63859504D01*
X122773825Y-63859496D01*
X122853124Y-63529191D01*
X122853125Y-63529187D01*
X122853971Y-63525662D01*
X122856956Y-63500999D01*
X122895316Y-63184004D01*
X122895316Y-63183997D01*
X122895652Y-63181225D01*
X122899013Y-63074300D01*
X122901511Y-62994797D01*
X122901599Y-62992000D01*
X122901438Y-62989204D01*
X122881836Y-62649246D01*
X122881835Y-62649241D01*
X122881627Y-62645626D01*
X122821976Y-62303842D01*
X122723437Y-61971180D01*
X122587316Y-61652048D01*
X122537569Y-61564831D01*
X122417208Y-61353816D01*
X122415417Y-61350676D01*
X122210018Y-61071060D01*
X121973842Y-60816904D01*
X121710019Y-60591578D01*
X121422047Y-60398069D01*
X121113741Y-60238940D01*
X120789189Y-60116302D01*
X120785668Y-60115418D01*
X120785663Y-60115416D01*
X120624378Y-60074904D01*
X120452692Y-60031780D01*
X120430476Y-60028855D01*
X120112315Y-59986968D01*
X120112307Y-59986967D01*
X120108711Y-59986494D01*
X119964045Y-59984221D01*
X119765446Y-59981101D01*
X119765442Y-59981101D01*
X119761804Y-59981044D01*
X119758190Y-59981405D01*
X119758184Y-59981405D01*
X119514843Y-60005694D01*
X119416569Y-60015503D01*
X119077583Y-60089414D01*
X119074156Y-60090587D01*
X119074150Y-60090589D01*
X118995296Y-60117587D01*
X118749339Y-60201797D01*
X118436188Y-60351163D01*
X118142279Y-60535532D01*
X118139443Y-60537804D01*
X118139436Y-60537809D01*
X117895384Y-60733332D01*
X117871509Y-60752459D01*
X117868958Y-60755037D01*
X117688019Y-60937881D01*
X117627466Y-60999071D01*
X117625225Y-61001929D01*
X117554227Y-61092477D01*
X117413386Y-61272098D01*
X117411493Y-61275187D01*
X117411491Y-61275190D01*
X117365233Y-61350676D01*
X117232105Y-61567921D01*
X117230580Y-61571206D01*
X117230578Y-61571210D01*
X117191505Y-61655386D01*
X117086027Y-61882620D01*
X116977087Y-62212023D01*
X116976351Y-62215578D01*
X116976350Y-62215581D01*
X116925029Y-62463402D01*
X116906730Y-62551764D01*
X116875888Y-62897341D01*
X109305106Y-62897341D01*
X109312523Y-62886749D01*
X109314846Y-62881767D01*
X109314849Y-62881762D01*
X109406961Y-62684225D01*
X109406961Y-62684224D01*
X109409284Y-62679243D01*
X109444394Y-62548214D01*
X109467119Y-62463402D01*
X109467119Y-62463400D01*
X109468543Y-62458087D01*
X109488498Y-62230000D01*
X109468543Y-62001913D01*
X109460308Y-61971180D01*
X109410707Y-61786067D01*
X109410706Y-61786065D01*
X109409284Y-61780757D01*
X109350823Y-61655386D01*
X109314849Y-61578238D01*
X109314846Y-61578233D01*
X109312523Y-61573251D01*
X109181198Y-61385700D01*
X109019300Y-61223802D01*
X109014792Y-61220645D01*
X109014789Y-61220643D01*
X108936611Y-61165902D01*
X108831749Y-61092477D01*
X108826767Y-61090154D01*
X108826762Y-61090151D01*
X108629225Y-60998039D01*
X108629224Y-60998039D01*
X108624243Y-60995716D01*
X108618935Y-60994294D01*
X108618933Y-60994293D01*
X108408402Y-60937881D01*
X108408400Y-60937881D01*
X108403087Y-60936457D01*
X108175000Y-60916502D01*
X107946913Y-60936457D01*
X107941600Y-60937881D01*
X107941598Y-60937881D01*
X107731067Y-60994293D01*
X107731065Y-60994294D01*
X107725757Y-60995716D01*
X107720776Y-60998039D01*
X107720775Y-60998039D01*
X107523238Y-61090151D01*
X107523233Y-61090154D01*
X107518251Y-61092477D01*
X107413389Y-61165902D01*
X107335211Y-61220643D01*
X107335208Y-61220645D01*
X107330700Y-61223802D01*
X107168802Y-61385700D01*
X107037477Y-61573251D01*
X107035154Y-61578233D01*
X107035151Y-61578238D01*
X106999177Y-61655386D01*
X106940716Y-61780757D01*
X106939294Y-61786065D01*
X106939293Y-61786067D01*
X106889692Y-61971180D01*
X106881457Y-62001913D01*
X106861502Y-62230000D01*
X106881457Y-62458087D01*
X106882881Y-62463400D01*
X106882881Y-62463402D01*
X106905607Y-62548214D01*
X106940716Y-62679243D01*
X106943039Y-62684224D01*
X106943039Y-62684225D01*
X107035151Y-62881762D01*
X107035154Y-62881767D01*
X107037477Y-62886749D01*
X107168802Y-63074300D01*
X107330700Y-63236198D01*
X107335208Y-63239355D01*
X107335211Y-63239357D01*
X107347215Y-63247762D01*
X107518251Y-63367523D01*
X107523233Y-63369846D01*
X107523238Y-63369849D01*
X107557457Y-63385805D01*
X107610742Y-63432722D01*
X107630203Y-63500999D01*
X107609661Y-63568959D01*
X107557457Y-63614195D01*
X107523238Y-63630151D01*
X107523233Y-63630154D01*
X107518251Y-63632477D01*
X107413389Y-63705902D01*
X107335211Y-63760643D01*
X107335208Y-63760645D01*
X107330700Y-63763802D01*
X107168802Y-63925700D01*
X107037477Y-64113251D01*
X107035154Y-64118233D01*
X107035151Y-64118238D01*
X106976918Y-64243121D01*
X106940716Y-64320757D01*
X106939294Y-64326065D01*
X106939293Y-64326067D01*
X106882881Y-64536598D01*
X106881457Y-64541913D01*
X106861502Y-64770000D01*
X91708498Y-64770000D01*
X91688543Y-64541913D01*
X91687119Y-64536598D01*
X91630707Y-64326067D01*
X91630706Y-64326065D01*
X91629284Y-64320757D01*
X91593082Y-64243121D01*
X91534849Y-64118238D01*
X91534846Y-64118233D01*
X91532523Y-64113251D01*
X91401198Y-63925700D01*
X91239300Y-63763802D01*
X91234792Y-63760645D01*
X91234789Y-63760643D01*
X91156611Y-63705902D01*
X91051749Y-63632477D01*
X91046767Y-63630154D01*
X91046762Y-63630151D01*
X91012543Y-63614195D01*
X90959258Y-63567278D01*
X90939797Y-63499001D01*
X90960339Y-63431041D01*
X91012543Y-63385805D01*
X91046762Y-63369849D01*
X91046767Y-63369846D01*
X91051749Y-63367523D01*
X91222785Y-63247762D01*
X91234789Y-63239357D01*
X91234792Y-63239355D01*
X91239300Y-63236198D01*
X91401198Y-63074300D01*
X91532523Y-62886749D01*
X91534846Y-62881767D01*
X91534849Y-62881762D01*
X91626961Y-62684225D01*
X91626961Y-62684224D01*
X91629284Y-62679243D01*
X91664394Y-62548214D01*
X91687119Y-62463402D01*
X91687119Y-62463400D01*
X91688543Y-62458087D01*
X91708498Y-62230000D01*
X91688543Y-62001913D01*
X91680308Y-61971180D01*
X91630707Y-61786067D01*
X91630706Y-61786065D01*
X91629284Y-61780757D01*
X91570823Y-61655386D01*
X91534849Y-61578238D01*
X91534846Y-61578233D01*
X91532523Y-61573251D01*
X91401198Y-61385700D01*
X91239300Y-61223802D01*
X91234792Y-61220645D01*
X91234789Y-61220643D01*
X91156611Y-61165902D01*
X91051749Y-61092477D01*
X91046767Y-61090154D01*
X91046762Y-61090151D01*
X90849225Y-60998039D01*
X90849224Y-60998039D01*
X90844243Y-60995716D01*
X90838935Y-60994294D01*
X90838933Y-60994293D01*
X90628402Y-60937881D01*
X90628400Y-60937881D01*
X90623087Y-60936457D01*
X90395000Y-60916502D01*
X90166913Y-60936457D01*
X90161600Y-60937881D01*
X90161598Y-60937881D01*
X89951067Y-60994293D01*
X89951065Y-60994294D01*
X89945757Y-60995716D01*
X89940776Y-60998039D01*
X89940775Y-60998039D01*
X89743238Y-61090151D01*
X89743233Y-61090154D01*
X89738251Y-61092477D01*
X89633389Y-61165902D01*
X89555211Y-61220643D01*
X89555208Y-61220645D01*
X89550700Y-61223802D01*
X89388802Y-61385700D01*
X89257477Y-61573251D01*
X89255154Y-61578233D01*
X89255151Y-61578238D01*
X89219177Y-61655386D01*
X89160716Y-61780757D01*
X89159294Y-61786065D01*
X89159293Y-61786067D01*
X89109692Y-61971180D01*
X89101457Y-62001913D01*
X89081502Y-62230000D01*
X89101457Y-62458087D01*
X89102881Y-62463400D01*
X89102881Y-62463402D01*
X89125607Y-62548214D01*
X89160716Y-62679243D01*
X89163039Y-62684224D01*
X89163039Y-62684225D01*
X89255151Y-62881762D01*
X89255154Y-62881767D01*
X89257477Y-62886749D01*
X89388802Y-63074300D01*
X89550700Y-63236198D01*
X89555208Y-63239355D01*
X89555211Y-63239357D01*
X89567215Y-63247762D01*
X89738251Y-63367523D01*
X89743233Y-63369846D01*
X89743238Y-63369849D01*
X89777457Y-63385805D01*
X89830742Y-63432722D01*
X89850203Y-63500999D01*
X89829661Y-63568959D01*
X89777457Y-63614195D01*
X89743238Y-63630151D01*
X89743233Y-63630154D01*
X89738251Y-63632477D01*
X89633389Y-63705902D01*
X89555211Y-63760643D01*
X89555208Y-63760645D01*
X89550700Y-63763802D01*
X89388802Y-63925700D01*
X89257477Y-64113251D01*
X89255154Y-64118233D01*
X89255151Y-64118238D01*
X89196918Y-64243121D01*
X89160716Y-64320757D01*
X89159294Y-64326065D01*
X89159293Y-64326067D01*
X89102881Y-64536598D01*
X89101457Y-64541913D01*
X89081502Y-64770000D01*
X80663708Y-64770000D01*
X80667305Y-64764525D01*
X80746612Y-64643791D01*
X80841853Y-64498799D01*
X80931399Y-64320757D01*
X80996117Y-64192080D01*
X80996120Y-64192072D01*
X80997744Y-64188844D01*
X81093699Y-63926636D01*
X81115729Y-63866437D01*
X81115730Y-63866433D01*
X81116977Y-63863026D01*
X81117822Y-63859504D01*
X81117825Y-63859496D01*
X81197124Y-63529191D01*
X81197125Y-63529187D01*
X81197971Y-63525662D01*
X81200956Y-63500999D01*
X81239316Y-63184004D01*
X81239316Y-63183997D01*
X81239652Y-63181225D01*
X81243013Y-63074300D01*
X81245511Y-62994797D01*
X81245599Y-62992000D01*
X81245438Y-62989204D01*
X81225836Y-62649246D01*
X81225835Y-62649241D01*
X81225627Y-62645626D01*
X81165976Y-62303842D01*
X81067437Y-61971180D01*
X80931316Y-61652048D01*
X80881569Y-61564831D01*
X80761208Y-61353816D01*
X80759417Y-61350676D01*
X80554018Y-61071060D01*
X80317842Y-60816904D01*
X80054019Y-60591578D01*
X79766047Y-60398069D01*
X79457741Y-60238940D01*
X79133189Y-60116302D01*
X79129668Y-60115418D01*
X79129663Y-60115416D01*
X78968378Y-60074904D01*
X78796692Y-60031780D01*
X78774476Y-60028855D01*
X78456315Y-59986968D01*
X78456307Y-59986967D01*
X78452711Y-59986494D01*
X78308045Y-59984221D01*
X78109446Y-59981101D01*
X78109442Y-59981101D01*
X78105804Y-59981044D01*
X78102190Y-59981405D01*
X78102184Y-59981405D01*
X77858843Y-60005694D01*
X77760569Y-60015503D01*
X77421583Y-60089414D01*
X77418156Y-60090587D01*
X77418150Y-60090589D01*
X77339296Y-60117587D01*
X77093339Y-60201797D01*
X76780188Y-60351163D01*
X76486279Y-60535532D01*
X76483443Y-60537804D01*
X76483436Y-60537809D01*
X76239384Y-60733332D01*
X76215509Y-60752459D01*
X76212958Y-60755037D01*
X76032019Y-60937881D01*
X75971466Y-60999071D01*
X75969225Y-61001929D01*
X75898227Y-61092477D01*
X75757386Y-61272098D01*
X75755493Y-61275187D01*
X75755491Y-61275190D01*
X75709233Y-61350676D01*
X75576105Y-61567921D01*
X75574580Y-61571206D01*
X75574578Y-61571210D01*
X75535505Y-61655386D01*
X75430027Y-61882620D01*
X75321087Y-62212023D01*
X75320351Y-62215578D01*
X75320350Y-62215581D01*
X75269029Y-62463402D01*
X75250730Y-62551764D01*
X75219888Y-62897341D01*
X74168500Y-62897341D01*
X74168500Y-59054500D01*
X74188502Y-58986379D01*
X74242158Y-58939886D01*
X74294500Y-58928500D01*
X123825500Y-58928500D01*
X123893621Y-58948502D01*
G37*
%TD.AperFunction*%
%TA.AperFunction,Conductor*%
G36*
X87656842Y-121623228D02*
G01*
X87713633Y-121665716D01*
X87786739Y-121763261D01*
X87903295Y-121850615D01*
X88039684Y-121901745D01*
X88101866Y-121908500D01*
X88136424Y-121908500D01*
X88204545Y-121928502D01*
X88251038Y-121982158D01*
X88261142Y-122052432D01*
X88231648Y-122117012D01*
X88208696Y-122137712D01*
X88197575Y-122145499D01*
X88092473Y-122219092D01*
X88092470Y-122219094D01*
X88087962Y-122222251D01*
X87932251Y-122377962D01*
X87929094Y-122382470D01*
X87929092Y-122382473D01*
X87829201Y-122525132D01*
X87805944Y-122558347D01*
X87803621Y-122563329D01*
X87803618Y-122563334D01*
X87756415Y-122664562D01*
X87712880Y-122757924D01*
X87655885Y-122970629D01*
X87636693Y-123190000D01*
X87655885Y-123409371D01*
X87712880Y-123622076D01*
X87733454Y-123666197D01*
X87803618Y-123816666D01*
X87803621Y-123816671D01*
X87805944Y-123821653D01*
X87809100Y-123826160D01*
X87809101Y-123826162D01*
X87873511Y-123918148D01*
X87932251Y-124002038D01*
X88087962Y-124157749D01*
X88268346Y-124284056D01*
X88273328Y-124286379D01*
X88273333Y-124286382D01*
X88401359Y-124346081D01*
X88454644Y-124392998D01*
X88474105Y-124461276D01*
X88453563Y-124529236D01*
X88401359Y-124574471D01*
X88273583Y-124634054D01*
X88264093Y-124639534D01*
X88222851Y-124668411D01*
X88214477Y-124678887D01*
X88221545Y-124692334D01*
X88887189Y-125357979D01*
X88901132Y-125365592D01*
X88902966Y-125365461D01*
X88909580Y-125361210D01*
X89579180Y-124691609D01*
X89585607Y-124679839D01*
X89576313Y-124667825D01*
X89535912Y-124639536D01*
X89526416Y-124634053D01*
X89398641Y-124574471D01*
X89345356Y-124527554D01*
X89325895Y-124459276D01*
X89346437Y-124391316D01*
X89398641Y-124346081D01*
X89526667Y-124286382D01*
X89526672Y-124286379D01*
X89531654Y-124284056D01*
X89712038Y-124157749D01*
X89867749Y-124002038D01*
X89926490Y-123918148D01*
X89990899Y-123826162D01*
X89990900Y-123826160D01*
X89994056Y-123821653D01*
X89996379Y-123816671D01*
X89996382Y-123816666D01*
X90066546Y-123666197D01*
X90087120Y-123622076D01*
X90144115Y-123409371D01*
X90163307Y-123190000D01*
X90144115Y-122970629D01*
X90087120Y-122757924D01*
X90043585Y-122664562D01*
X89996382Y-122563334D01*
X89996379Y-122563329D01*
X89994056Y-122558347D01*
X89970799Y-122525132D01*
X89870908Y-122382473D01*
X89870906Y-122382470D01*
X89867749Y-122377962D01*
X89712038Y-122222251D01*
X89602426Y-122145499D01*
X89591306Y-122137713D01*
X89546978Y-122082256D01*
X89539669Y-122011636D01*
X89571700Y-121948276D01*
X89632901Y-121912291D01*
X89663577Y-121908500D01*
X89698134Y-121908500D01*
X89760316Y-121901745D01*
X89896705Y-121850615D01*
X89977173Y-121790308D01*
X90043679Y-121765461D01*
X90113061Y-121780514D01*
X90163291Y-121830689D01*
X90178257Y-121902119D01*
X90177172Y-121914518D01*
X90177172Y-121914525D01*
X90176693Y-121920000D01*
X90195885Y-122139371D01*
X90252880Y-122352076D01*
X90274635Y-122398730D01*
X90343618Y-122546666D01*
X90343621Y-122546671D01*
X90345944Y-122551653D01*
X90349100Y-122556160D01*
X90349101Y-122556162D01*
X90409704Y-122642711D01*
X90472251Y-122732038D01*
X90627962Y-122887749D01*
X90632471Y-122890906D01*
X90632473Y-122890908D01*
X90688761Y-122930321D01*
X90808346Y-123014056D01*
X90813328Y-123016379D01*
X90813333Y-123016382D01*
X90940768Y-123075805D01*
X90994053Y-123122722D01*
X91013514Y-123190999D01*
X90992972Y-123258959D01*
X90940768Y-123304195D01*
X90813334Y-123363618D01*
X90813329Y-123363621D01*
X90808347Y-123365944D01*
X90803840Y-123369100D01*
X90803838Y-123369101D01*
X90632473Y-123489092D01*
X90632470Y-123489094D01*
X90627962Y-123492251D01*
X90472251Y-123647962D01*
X90469094Y-123652470D01*
X90469092Y-123652473D01*
X90377214Y-123783689D01*
X90345944Y-123828347D01*
X90343621Y-123833329D01*
X90343618Y-123833334D01*
X90343502Y-123833583D01*
X90252880Y-124027924D01*
X90195885Y-124240629D01*
X90176693Y-124460000D01*
X90195885Y-124679371D01*
X90252880Y-124892076D01*
X90296415Y-124985438D01*
X90343618Y-125086666D01*
X90343621Y-125086671D01*
X90345944Y-125091653D01*
X90349100Y-125096160D01*
X90349101Y-125096162D01*
X90459483Y-125253803D01*
X90472251Y-125272038D01*
X90627962Y-125427749D01*
X90808346Y-125554056D01*
X90813328Y-125556379D01*
X90813333Y-125556382D01*
X90940768Y-125615805D01*
X90994053Y-125662722D01*
X91013514Y-125730999D01*
X90992972Y-125798959D01*
X90940768Y-125844195D01*
X90813334Y-125903618D01*
X90813329Y-125903621D01*
X90808347Y-125905944D01*
X90803840Y-125909100D01*
X90803838Y-125909101D01*
X90632473Y-126029092D01*
X90632470Y-126029094D01*
X90627962Y-126032251D01*
X90472251Y-126187962D01*
X90469094Y-126192470D01*
X90469092Y-126192473D01*
X90349253Y-126363621D01*
X90345944Y-126368347D01*
X90343621Y-126373329D01*
X90343618Y-126373334D01*
X90323906Y-126415607D01*
X90252880Y-126567924D01*
X90195885Y-126780629D01*
X90176693Y-127000000D01*
X90195885Y-127219371D01*
X90252880Y-127432076D01*
X90284055Y-127498931D01*
X90343618Y-127626666D01*
X90343621Y-127626671D01*
X90345944Y-127631653D01*
X90349100Y-127636160D01*
X90349101Y-127636162D01*
X90459483Y-127793803D01*
X90472251Y-127812038D01*
X90627962Y-127967749D01*
X90808346Y-128094056D01*
X90813328Y-128096379D01*
X90813333Y-128096382D01*
X90940768Y-128155805D01*
X90994053Y-128202722D01*
X91013514Y-128270999D01*
X90992972Y-128338959D01*
X90940768Y-128384195D01*
X90813334Y-128443618D01*
X90813329Y-128443621D01*
X90808347Y-128445944D01*
X90803840Y-128449100D01*
X90803838Y-128449101D01*
X90632473Y-128569092D01*
X90632470Y-128569094D01*
X90627962Y-128572251D01*
X90472251Y-128727962D01*
X90469094Y-128732470D01*
X90469092Y-128732473D01*
X90371143Y-128872359D01*
X90345944Y-128908347D01*
X90343621Y-128913329D01*
X90343618Y-128913334D01*
X90303073Y-129000285D01*
X90252880Y-129107924D01*
X90195885Y-129320629D01*
X90176693Y-129540000D01*
X90195885Y-129759371D01*
X90252880Y-129972076D01*
X90255205Y-129977061D01*
X90343618Y-130166666D01*
X90343621Y-130166671D01*
X90345944Y-130171653D01*
X90349100Y-130176160D01*
X90349101Y-130176162D01*
X90460123Y-130334717D01*
X90472251Y-130352038D01*
X90627962Y-130507749D01*
X90632471Y-130510906D01*
X90632473Y-130510908D01*
X90734413Y-130582287D01*
X90778741Y-130637744D01*
X90786050Y-130708364D01*
X90754019Y-130771724D01*
X90692818Y-130807709D01*
X90662142Y-130811500D01*
X89214595Y-130811500D01*
X89146474Y-130791498D01*
X89125500Y-130774595D01*
X87030405Y-128679500D01*
X86996379Y-128617188D01*
X86993500Y-128590405D01*
X86993500Y-128270000D01*
X87636693Y-128270000D01*
X87655885Y-128489371D01*
X87712880Y-128702076D01*
X87750132Y-128781964D01*
X87803618Y-128896666D01*
X87803621Y-128896671D01*
X87805944Y-128901653D01*
X87809100Y-128906160D01*
X87809101Y-128906162D01*
X87919479Y-129063797D01*
X87932251Y-129082038D01*
X88087962Y-129237749D01*
X88092471Y-129240906D01*
X88092473Y-129240908D01*
X88161920Y-129289535D01*
X88268346Y-129364056D01*
X88467924Y-129457120D01*
X88680629Y-129514115D01*
X88900000Y-129533307D01*
X89119371Y-129514115D01*
X89332076Y-129457120D01*
X89531654Y-129364056D01*
X89638080Y-129289535D01*
X89707527Y-129240908D01*
X89707529Y-129240906D01*
X89712038Y-129237749D01*
X89867749Y-129082038D01*
X89880522Y-129063797D01*
X89990899Y-128906162D01*
X89990900Y-128906160D01*
X89994056Y-128901653D01*
X89996379Y-128896671D01*
X89996382Y-128896666D01*
X90049868Y-128781964D01*
X90087120Y-128702076D01*
X90144115Y-128489371D01*
X90163307Y-128270000D01*
X90144115Y-128050629D01*
X90087120Y-127837924D01*
X90014759Y-127682745D01*
X89996382Y-127643334D01*
X89996379Y-127643329D01*
X89994056Y-127638347D01*
X89990314Y-127633003D01*
X89870908Y-127462473D01*
X89870906Y-127462470D01*
X89867749Y-127457962D01*
X89712038Y-127302251D01*
X89531654Y-127175944D01*
X89526672Y-127173621D01*
X89526667Y-127173618D01*
X89398641Y-127113919D01*
X89345356Y-127067002D01*
X89325895Y-126998724D01*
X89346437Y-126930764D01*
X89398641Y-126885529D01*
X89526416Y-126825947D01*
X89535912Y-126820464D01*
X89577148Y-126791590D01*
X89585523Y-126781112D01*
X89578457Y-126767668D01*
X88912811Y-126102021D01*
X88898868Y-126094408D01*
X88897034Y-126094539D01*
X88890420Y-126098790D01*
X88220820Y-126768391D01*
X88214393Y-126780161D01*
X88223687Y-126792175D01*
X88264088Y-126820464D01*
X88273584Y-126825947D01*
X88401359Y-126885529D01*
X88454644Y-126932446D01*
X88474105Y-127000724D01*
X88453563Y-127068684D01*
X88401359Y-127113919D01*
X88273334Y-127173618D01*
X88273329Y-127173621D01*
X88268347Y-127175944D01*
X88263840Y-127179100D01*
X88263838Y-127179101D01*
X88092473Y-127299092D01*
X88092470Y-127299094D01*
X88087962Y-127302251D01*
X87932251Y-127457962D01*
X87929094Y-127462470D01*
X87929092Y-127462473D01*
X87809686Y-127633003D01*
X87805944Y-127638347D01*
X87803621Y-127643329D01*
X87803618Y-127643334D01*
X87785241Y-127682745D01*
X87712880Y-127837924D01*
X87655885Y-128050629D01*
X87636693Y-128270000D01*
X86993500Y-128270000D01*
X86993500Y-125735475D01*
X87637674Y-125735475D01*
X87655901Y-125943804D01*
X87657804Y-125954599D01*
X87711928Y-126156595D01*
X87715674Y-126166887D01*
X87804054Y-126356417D01*
X87809534Y-126365907D01*
X87838411Y-126407149D01*
X87848887Y-126415523D01*
X87862334Y-126408455D01*
X88527979Y-125742811D01*
X88534356Y-125731132D01*
X89264408Y-125731132D01*
X89264539Y-125732966D01*
X89268790Y-125739580D01*
X89938391Y-126409180D01*
X89950161Y-126415607D01*
X89962176Y-126406311D01*
X89990466Y-126365907D01*
X89995946Y-126356417D01*
X90084326Y-126166887D01*
X90088072Y-126156595D01*
X90142196Y-125954599D01*
X90144099Y-125943804D01*
X90162326Y-125735475D01*
X90162326Y-125724525D01*
X90144099Y-125516196D01*
X90142196Y-125505401D01*
X90088072Y-125303405D01*
X90084326Y-125293113D01*
X89995946Y-125103583D01*
X89990466Y-125094093D01*
X89961589Y-125052851D01*
X89951113Y-125044477D01*
X89937666Y-125051545D01*
X89272021Y-125717189D01*
X89264408Y-125731132D01*
X88534356Y-125731132D01*
X88535592Y-125728868D01*
X88535461Y-125727034D01*
X88531210Y-125720420D01*
X87861609Y-125050820D01*
X87849839Y-125044393D01*
X87837824Y-125053689D01*
X87809534Y-125094093D01*
X87804054Y-125103583D01*
X87715674Y-125293113D01*
X87711928Y-125303405D01*
X87657804Y-125505401D01*
X87655901Y-125516196D01*
X87637674Y-125724525D01*
X87637674Y-125735475D01*
X86993500Y-125735475D01*
X86993500Y-122234594D01*
X87013502Y-122166473D01*
X87030405Y-122145499D01*
X87523715Y-121652189D01*
X87586027Y-121618163D01*
X87656842Y-121623228D01*
G37*
%TD.AperFunction*%
%TD*%
M02*
