%TF.GenerationSoftware,KiCad,Pcbnew,6.0.10-86aedd382b~118~ubuntu18.04.1*%
%TF.CreationDate,2025-01-01T16:08:03+10:30*%
%TF.ProjectId,pcb,7063622e-6b69-4636-9164-5f7063625858,1*%
%TF.SameCoordinates,Original*%
%TF.FileFunction,Legend,Top*%
%TF.FilePolarity,Positive*%
%FSLAX46Y46*%
G04 Gerber Fmt 4.6, Leading zero omitted, Abs format (unit mm)*
G04 Created by KiCad (PCBNEW 6.0.10-86aedd382b~118~ubuntu18.04.1) date 2025-01-01 16:08:03*
%MOMM*%
%LPD*%
G01*
G04 APERTURE LIST*
%ADD10C,0.300000*%
%ADD11C,0.150000*%
%ADD12C,0.127000*%
%ADD13C,0.120000*%
G04 APERTURE END LIST*
D10*
X109411190Y-136159761D02*
X109411190Y-134159761D01*
X109411190Y-135112142D02*
X110554047Y-135112142D01*
X110554047Y-136159761D02*
X110554047Y-134159761D01*
X112363571Y-136159761D02*
X112363571Y-135112142D01*
X112268333Y-134921666D01*
X112077857Y-134826428D01*
X111696904Y-134826428D01*
X111506428Y-134921666D01*
X112363571Y-136064523D02*
X112173095Y-136159761D01*
X111696904Y-136159761D01*
X111506428Y-136064523D01*
X111411190Y-135874047D01*
X111411190Y-135683571D01*
X111506428Y-135493095D01*
X111696904Y-135397857D01*
X112173095Y-135397857D01*
X112363571Y-135302619D01*
X113315952Y-134826428D02*
X113315952Y-136159761D01*
X113315952Y-135016904D02*
X113411190Y-134921666D01*
X113601666Y-134826428D01*
X113887380Y-134826428D01*
X114077857Y-134921666D01*
X114173095Y-135112142D01*
X114173095Y-136159761D01*
X115982619Y-136159761D02*
X115982619Y-134159761D01*
X115982619Y-136064523D02*
X115792142Y-136159761D01*
X115411190Y-136159761D01*
X115220714Y-136064523D01*
X115125476Y-135969285D01*
X115030238Y-135778809D01*
X115030238Y-135207380D01*
X115125476Y-135016904D01*
X115220714Y-134921666D01*
X115411190Y-134826428D01*
X115792142Y-134826428D01*
X115982619Y-134921666D01*
X116839761Y-136064523D02*
X117030238Y-136159761D01*
X117411190Y-136159761D01*
X117601666Y-136064523D01*
X117696904Y-135874047D01*
X117696904Y-135778809D01*
X117601666Y-135588333D01*
X117411190Y-135493095D01*
X117125476Y-135493095D01*
X116935000Y-135397857D01*
X116839761Y-135207380D01*
X116839761Y-135112142D01*
X116935000Y-134921666D01*
X117125476Y-134826428D01*
X117411190Y-134826428D01*
X117601666Y-134921666D01*
X119315952Y-136064523D02*
X119125476Y-136159761D01*
X118744523Y-136159761D01*
X118554047Y-136064523D01*
X118458809Y-135874047D01*
X118458809Y-135112142D01*
X118554047Y-134921666D01*
X118744523Y-134826428D01*
X119125476Y-134826428D01*
X119315952Y-134921666D01*
X119411190Y-135112142D01*
X119411190Y-135302619D01*
X118458809Y-135493095D01*
X119982619Y-134826428D02*
X120744523Y-134826428D01*
X120268333Y-134159761D02*
X120268333Y-135874047D01*
X120363571Y-136064523D01*
X120554047Y-136159761D01*
X120744523Y-136159761D01*
X78010476Y-135969285D02*
X77915238Y-136064523D01*
X77629523Y-136159761D01*
X77439047Y-136159761D01*
X77153333Y-136064523D01*
X76962857Y-135874047D01*
X76867619Y-135683571D01*
X76772380Y-135302619D01*
X76772380Y-135016904D01*
X76867619Y-134635952D01*
X76962857Y-134445476D01*
X77153333Y-134255000D01*
X77439047Y-134159761D01*
X77629523Y-134159761D01*
X77915238Y-134255000D01*
X78010476Y-134350238D01*
X79153333Y-136159761D02*
X78962857Y-136064523D01*
X78867619Y-135969285D01*
X78772380Y-135778809D01*
X78772380Y-135207380D01*
X78867619Y-135016904D01*
X78962857Y-134921666D01*
X79153333Y-134826428D01*
X79439047Y-134826428D01*
X79629523Y-134921666D01*
X79724761Y-135016904D01*
X79820000Y-135207380D01*
X79820000Y-135778809D01*
X79724761Y-135969285D01*
X79629523Y-136064523D01*
X79439047Y-136159761D01*
X79153333Y-136159761D01*
X80677142Y-134826428D02*
X80677142Y-136159761D01*
X80677142Y-135016904D02*
X80772380Y-134921666D01*
X80962857Y-134826428D01*
X81248571Y-134826428D01*
X81439047Y-134921666D01*
X81534285Y-135112142D01*
X81534285Y-136159761D01*
X82200952Y-134826428D02*
X82962857Y-134826428D01*
X82486666Y-134159761D02*
X82486666Y-135874047D01*
X82581904Y-136064523D01*
X82772380Y-136159761D01*
X82962857Y-136159761D01*
X83629523Y-136159761D02*
X83629523Y-134826428D01*
X83629523Y-135207380D02*
X83724761Y-135016904D01*
X83820000Y-134921666D01*
X84010476Y-134826428D01*
X84200952Y-134826428D01*
X85153333Y-136159761D02*
X84962857Y-136064523D01*
X84867619Y-135969285D01*
X84772380Y-135778809D01*
X84772380Y-135207380D01*
X84867619Y-135016904D01*
X84962857Y-134921666D01*
X85153333Y-134826428D01*
X85439047Y-134826428D01*
X85629523Y-134921666D01*
X85724761Y-135016904D01*
X85820000Y-135207380D01*
X85820000Y-135778809D01*
X85724761Y-135969285D01*
X85629523Y-136064523D01*
X85439047Y-136159761D01*
X85153333Y-136159761D01*
X86962857Y-136159761D02*
X86772380Y-136064523D01*
X86677142Y-135874047D01*
X86677142Y-134159761D01*
X88010476Y-136159761D02*
X87820000Y-136064523D01*
X87724761Y-135874047D01*
X87724761Y-134159761D01*
X89534285Y-136064523D02*
X89343809Y-136159761D01*
X88962857Y-136159761D01*
X88772380Y-136064523D01*
X88677142Y-135874047D01*
X88677142Y-135112142D01*
X88772380Y-134921666D01*
X88962857Y-134826428D01*
X89343809Y-134826428D01*
X89534285Y-134921666D01*
X89629523Y-135112142D01*
X89629523Y-135302619D01*
X88677142Y-135493095D01*
X90486666Y-136159761D02*
X90486666Y-134826428D01*
X90486666Y-135207380D02*
X90581904Y-135016904D01*
X90677142Y-134921666D01*
X90867619Y-134826428D01*
X91058095Y-134826428D01*
D11*
%TO.C,A1*%
X98570714Y-86526666D02*
X99046904Y-86526666D01*
X98475476Y-86812380D02*
X98808809Y-85812380D01*
X99142142Y-86812380D01*
X99999285Y-86812380D02*
X99427857Y-86812380D01*
X99713571Y-86812380D02*
X99713571Y-85812380D01*
X99618333Y-85955238D01*
X99523095Y-86050476D01*
X99427857Y-86098095D01*
%TO.C,J2*%
X103811666Y-124547380D02*
X103811666Y-125261666D01*
X103764047Y-125404523D01*
X103668809Y-125499761D01*
X103525952Y-125547380D01*
X103430714Y-125547380D01*
X104240238Y-124642619D02*
X104287857Y-124595000D01*
X104383095Y-124547380D01*
X104621190Y-124547380D01*
X104716428Y-124595000D01*
X104764047Y-124642619D01*
X104811666Y-124737857D01*
X104811666Y-124833095D01*
X104764047Y-124975952D01*
X104192619Y-125547380D01*
X104811666Y-125547380D01*
%TO.C,J1*%
X93566666Y-124547380D02*
X93566666Y-125261666D01*
X93519047Y-125404523D01*
X93423809Y-125499761D01*
X93280952Y-125547380D01*
X93185714Y-125547380D01*
X94566666Y-125547380D02*
X93995238Y-125547380D01*
X94280952Y-125547380D02*
X94280952Y-124547380D01*
X94185714Y-124690238D01*
X94090476Y-124785476D01*
X93995238Y-124833095D01*
D12*
%TO.C,A1*%
X95285000Y-59560000D02*
X103285000Y-59560000D01*
X88785000Y-61110000D02*
X88785000Y-60860000D01*
X95625000Y-111860000D02*
X88785000Y-111860000D01*
X103285000Y-59560000D02*
X103285000Y-60860000D01*
X109785000Y-60860000D02*
X109785000Y-61110000D01*
X109785000Y-111860000D02*
X102945000Y-111860000D01*
X109785000Y-111860000D02*
X109785000Y-111610000D01*
X88785000Y-60860000D02*
X95285000Y-60860000D01*
X88785000Y-111860000D02*
X88785000Y-111610000D01*
X103285000Y-60860000D02*
X109785000Y-60860000D01*
X95285000Y-60860000D02*
X95285000Y-59560000D01*
D10*
X87245000Y-62230000D02*
G75*
G03*
X87245000Y-62230000I-150000J0D01*
G01*
D13*
%TO.C,J2*%
X105265000Y-117335000D02*
X123225000Y-117335000D01*
X123225000Y-132855000D02*
X123225000Y-117335000D01*
X109145000Y-133040000D02*
X108645000Y-133540000D01*
X105265000Y-117335000D02*
X105265000Y-132855000D01*
X108645000Y-133540000D02*
X109645000Y-133540000D01*
X105265000Y-132855000D02*
X123225000Y-132855000D01*
X109645000Y-133540000D02*
X109145000Y-133040000D01*
%TO.C,J1*%
X92780000Y-132855000D02*
X92780000Y-117335000D01*
X88900000Y-117150000D02*
X89400000Y-116650000D01*
X88400000Y-116650000D02*
X88900000Y-117150000D01*
X92780000Y-117335000D02*
X74820000Y-117335000D01*
X89400000Y-116650000D02*
X88400000Y-116650000D01*
X92780000Y-132855000D02*
X74820000Y-132855000D01*
X74820000Y-117335000D02*
X74820000Y-132855000D01*
%TD*%
M02*
